1232
0 -0.339849 0.339777 0.0479
1 -0.241272 0.410761 0.036
2 -0.337049 0.337077 0.036
3 -0.323449 0.323477 0.0248
4 -0.290949 0.290994 0.015
5 -0.414027 0.243194 0.0479
6 -0.424327 0.249194 0.0639
7 -0.410727 0.241194 0.036
8 -0.394127 0.231494 0.0248
9 -0.354549 0.20821 0.015
10 -0.461805 0.12851 0.0479
11 -0.458005 0.127426 0.036
12 -0.439527 0.122326 0.0248
13 -0.592883 0.16501 0.437873
14 -0.473205 0.13171 0.0639
15 -0.395427 0.110026 0.015
16 -0.282149 0.16571 0.0071
17 -0.501705 0.13961 0.088655
18 -0.478605 4.2e-05 0.0479
19 -0.490405 4.2e-05 0.0639
20 -0.474705 4.2e-05 0.036
21 -0.314649 0.087626 0.0071
22 -0.455505 4.2e-05 0.0248
23 -0.409827 4.2e-05 0.015
24 -0.326149 4.2e-05 0.0071
25 -0.395427 -0.110042 0.015
26 -0.314649 -0.087542 0.0071
27 -0.139594 0.501645 0.088655
28 -0.298949 0.508945 0.517527
29 -0.131694 0.473145 0.0639
30 -0.128494 0.461761 0.0479
31 -0.249172 0.424261 0.0639
32 -0.243172 0.414061 0.0479
33 -0.127494 0.458061 0.036
34 -0.122294 0.439561 0.0248
35 -0.348149 0.348177 0.0639
36 -0.231472 0.394161 0.0248
37 -0.208272 0.354577 0.015
38 -0.165694 0.282194 0.0071
39 -0.231572 0.231594 0.0071
40 -0.160294 0.575729 0.166654
41 -0.149894 0.538745 0.122654
42 -0.168194 0.604229 0.221209
43 -0.303249 0.516345 0.166654
44 -0.283749 0.483045 0.122654
45 -0.171394 0.615629 0.287163
46 -0.318249 0.541845 0.221209
47 -0.169694 0.609629 0.360818
48 -0.324249 0.552145 0.287163
49 -0.164994 0.592829 0.437873
50 -0.321049 0.546645 0.360818
51 -0.312249 0.531645 0.437873
52 -0.264172 0.449861 0.088655
53 -0.453105 0.453061 0.287163
54 -0.396427 0.396461 0.122654
55 -0.423727 0.423661 0.166654
56 -0.369127 0.369177 0.088655
57 -0.444705 0.444661 0.221209
58 -0.448605 0.448661 0.360818
59 -0.436327 0.436261 0.437873
60 -0.417627 0.417661 0.517527
61 -0.483105 0.283694 0.122654
62 -0.516305 0.303277 0.166654
63 -0.449905 0.264194 0.088655
64 -0.541883 0.318277 0.221209
65 -0.552083 0.324277 0.287163
66 -0.546683 0.321077 0.360818
67 -0.531683 0.312277 0.437873
68 -0.609583 0.16971 0.360818
69 -0.866916 -0.039858 0.373918
70 -0.769638 -0.039858 0.372318
71 -0.913394 -0.039858 0.438773
72 -0.855416 -0.063842 0.385318
73 -0.814216 -0.039858 0.426173
74 -0.825616 -0.063842 0.414818
75 -0.940994 -0.039858 0.505727
76 -0.898594 -0.063842 0.447773
77 -0.845016 -0.039858 0.480273
78 -0.859816 -0.063842 0.471273
79 -0.923994 -0.063842 0.511227
80 -0.840516 -0.071742 0.400118
81 -0.879194 -0.071742 0.459573
82 -0.901894 -0.071742 0.518327
83 -0.898594 0.063826 0.447773
84 -0.879194 0.071826 0.459573
85 -0.825616 0.063826 0.414818
86 -0.859816 0.063826 0.471273
87 -0.845016 0.039842 0.480273
88 -0.814216 0.039842 0.426173
89 -0.923994 0.063826 0.511227
90 -0.901894 0.071826 0.518327
91 -0.913394 0.039842 0.438773
92 -0.879794 0.063826 0.525427
93 -0.940994 0.039842 0.505727
94 -0.919394 4.2e-05 0.435173
95 -0.809616 4.2e-05 0.430773
96 -0.947794 4.2e-05 0.503627
97 -0.839016 4.2e-05 0.483873
98 -0.711438 0.063826 0.307364
99 -0.794116 0.063826 0.325063
100 -0.855416 0.063826 0.385318
101 -0.840516 0.071826 0.400118
102 -0.785238 0.071826 0.342118
103 -0.800816 0.039842 0.311863
104 -0.776438 0.063826 0.359218
105 -0.769638 0.039842 0.372318
106 -0.710438 0.039842 0.322363
107 -0.866916 0.039842 0.373918
108 -0.803616 4.2e-05 0.306664
109 -0.871416 4.2e-05 0.369418
110 -0.766938 4.2e-05 0.377518
111 -0.714938 0.039842 0.253264
112 -0.715338 4.2e-05 0.247209
113 -0.714938 -0.039858 0.253264
114 -0.800816 -0.039858 0.311863
115 -0.713938 -0.063842 0.268263
116 -0.794116 -0.063842 0.325063
117 -0.710038 4.2e-05 0.328364
118 -0.710438 -0.039858 0.322363
119 -0.638161 4.2e-05 0.287163
120 -0.776438 -0.063842 0.359218
121 -0.711438 -0.063842 0.307364
122 -0.712638 -0.071742 0.287764
123 -0.785238 -0.071742 0.342118
124 -0.538683 0.14991 0.122654
125 -0.575783 0.16021 0.166654
126 -0.604283 0.16821 0.221209
127 -0.615661 0.17131 0.287163
128 -0.558383 4.2e-05 0.122654
129 -0.596783 4.2e-05 0.166654
130 -0.608883 0.039842 0.198709
131 -0.624861 0.063826 0.259564
132 -0.631161 0.039842 0.277564
133 -0.619961 0.071826 0.238109
134 -0.615561 0.063826 0.216809
135 -0.712638 0.071826 0.287764
136 -0.713938 0.063826 0.268263
137 -0.611683 4.2e-05 0.194209
138 -0.520005 4.2e-05 0.088655
139 -0.631861 4.2e-05 0.360818
140 -0.614483 4.2e-05 0.437873
141 -0.538683 -0.149926 0.122654
142 -0.608883 -0.039858 0.198709
143 -0.575783 -0.160226 0.166654
144 -0.501705 -0.139626 0.088654
145 -0.615461 -0.063542 0.216609
146 -0.631161 -0.039858 0.277564
147 -0.615661 -0.171326 0.287163
148 -0.624861 -0.063842 0.259564
149 -0.609583 -0.169626 0.360818
150 -0.592883 -0.165026 0.437873
151 -0.619961 -0.071742 0.238109
152 -0.604283 -0.168226 0.221209
153 -0.157994 0.567529 0.517527
154 -0.149094 0.535845 0.599182
155 -0.282249 0.480545 0.599182
156 -0.394327 0.394361 0.599182
157 -0.509005 0.298977 0.517527
158 -0.480505 0.282194 0.599182
159 -0.367827 0.367877 0.682136
160 -0.305349 0.305377 0.750836
161 -0.218572 0.372077 0.750836
162 -0.098216 0.16721 0.0019
163 -0.137294 0.13721 0.0019
164 -0.133794 0.227694 0.813591
165 -0.186894 0.18691 0.813591
166 -0.130094 0.13001 0.82599
167 -0.139094 0.499845 0.682136
168 -0.263272 0.448261 0.682136
169 -0.128494 0.461761 0.765791
170 -0.243172 0.414061 0.765791
171 -0.230172 0.391961 0.750036
172 -0.226972 0.386461 0.765791
173 -0.317149 0.317177 0.765791
174 -0.321649 0.321677 0.750036
175 -0.237772 0.404861 0.78319
176 -0.339849 0.339777 0.765791
177 -0.332249 0.332177 0.78319
178 -0.448305 0.263294 0.682136
179 -0.391927 0.230194 0.750036
180 -0.414027 0.243194 0.765791
181 -0.210772 0.358877 0.765791
182 -0.294449 0.294494 0.765791
183 -0.199772 0.340177 0.78609
184 -0.279149 0.279194 0.78609
185 -0.171694 0.292394 0.80119
186 -0.358827 0.21081 0.765791
187 -0.239972 0.239994 0.80119
188 -0.340249 0.19981 0.78609
189 -0.292449 0.17171 0.80119
190 -0.400227 0.111426 0.765791
191 -0.379427 0.105626 0.78609
192 -0.326049 0.090726 0.80119
193 -0.414827 4.2e-05 0.765791
194 -0.393227 4.2e-05 0.78609
195 -0.567583 0.15801 0.517527
196 -0.167294 0.098226 0.0019
197 -0.535883 0.14911 0.599182
198 -0.186494 0.051926 0.0019
199 -0.588283 4.2e-05 0.517527
200 -0.555383 4.2e-05 0.599182
201 -0.227772 0.13371 0.813591
202 -0.253972 0.070726 0.813591
203 -0.158494 0.093126 0.82599
204 -0.193372 4.2e-05 0.0019
205 -0.176694 0.049226 0.82599
206 -0.263272 4.2e-05 0.813591
207 -0.183194 4.2e-05 0.82599
208 -0.186494 -0.051942 0.0019
209 -0.253972 -0.070642 0.813591
210 -0.176694 -0.049142 0.82599
211 -0.372127 0.218594 0.750836
212 -0.499905 0.13911 0.682136
213 -0.437027 0.121626 0.750036
214 -0.414927 0.115526 0.750836
215 -0.461805 0.12851 0.765791
216 -0.517605 0.063826 0.664682
217 -0.498505 0.039842 0.712536
218 -0.508705 0.071726 0.682136
219 -0.501705 0.063826 0.699236
220 -0.453005 4.2e-05 0.750036
221 -0.430127 4.2e-05 0.750836
222 -0.337949 4.2e-05 0.80119
223 -0.526705 0.039842 0.651382
224 -0.787316 0.063826 0.653382
225 -0.774738 0.039842 0.641782
226 -0.712138 0.063826 0.661382
227 -0.722638 0.071826 0.678036
228 -0.704038 0.039842 0.648582
229 -0.616861 0.063826 0.664282
230 -0.614883 0.039842 0.651082
231 -0.619461 0.071826 0.681536
232 -0.733138 0.063826 0.694636
233 -0.622061 0.063826 0.698736
234 -0.741238 0.039842 0.707436
235 -0.624061 0.039842 0.711936
236 -0.826316 -0.039858 0.628582
237 -0.769738 4.2e-05 0.637082
238 -0.774738 -0.039858 0.641782
239 -0.787316 -0.063842 0.653382
240 -0.704038 -0.039858 0.648582
241 -0.712138 -0.063842 0.661382
242 -0.837516 4.2e-05 0.699936
243 -0.832516 -0.039858 0.695336
244 -0.744438 4.2e-05 0.712536
245 -0.741238 -0.039858 0.707436
246 -0.820016 -0.063842 0.683636
247 -0.733138 -0.063842 0.694636
248 -0.803616 -0.071742 0.668582
249 -0.722638 -0.071742 0.678036
250 -0.700738 4.2e-05 0.643482
251 -0.614083 4.2e-05 0.645782
252 -0.614883 -0.039858 0.651082
253 -0.616861 -0.063842 0.664282
254 -0.534283 4.2e-05 0.645982
255 -0.526705 -0.039858 0.651382
256 -0.517605 -0.063842 0.664682
257 -0.624861 4.2e-05 0.717236
258 -0.624061 -0.039858 0.711936
259 -0.622061 -0.063842 0.698736
260 -0.501205 4.2e-05 0.717836
261 -0.498505 -0.039858 0.712536
262 -0.501705 -0.063842 0.699236
263 -0.619461 -0.071742 0.681536
264 -0.508705 -0.071742 0.682136
265 -0.862816 -0.039858 0.530927
266 -0.879794 -0.063842 0.525427
267 -0.936994 -0.039858 0.632582
268 -0.932394 -0.063842 0.574327
269 -0.868516 -0.039858 0.574327
270 -0.857916 -0.039858 0.606782
271 -0.875094 -0.063842 0.612382
272 -0.886294 -0.063842 0.574327
273 -0.897794 -0.039858 0.671636
274 -0.919794 -0.063842 0.626982
275 -0.841916 -0.063842 0.637882
276 -0.882294 -0.063842 0.662282
277 -0.909294 -0.071742 0.574327
278 -0.897394 -0.071742 0.619682
279 -0.862016 -0.071742 0.650082
280 -0.875094 0.063826 0.612382
281 -0.857916 0.039842 0.606782
282 -0.882294 0.063826 0.662282
283 -0.862016 0.071826 0.650082
284 -0.841916 0.063826 0.637882
285 -0.803616 0.071826 0.668582
286 -0.820016 0.063826 0.683636
287 -0.897794 0.039842 0.671636
288 -0.826316 0.039842 0.628582
289 -0.832516 0.039842 0.695336
290 -0.851016 4.2e-05 0.604582
291 -0.903994 4.2e-05 0.675336
292 -0.820116 4.2e-05 0.624882
293 -0.862816 0.039842 0.530927
294 -0.932394 0.063826 0.574327
295 -0.909294 0.071826 0.574327
296 -0.919794 0.063826 0.626982
297 -0.897394 0.071826 0.619682
298 -0.950094 0.039842 0.574327
299 -0.886294 0.063826 0.574327
300 -0.868516 0.039842 0.574327
301 -0.936994 0.039842 0.632582
302 -0.856016 4.2e-05 0.533127
303 -0.957194 4.2e-05 0.574327
304 -0.950094 -0.039858 0.574327
305 -0.943894 4.2e-05 0.634782
306 -0.861516 4.2e-05 0.574327
307 0.483051 -0.28371 0.122654
308 0.541829 -0.318294 0.221209
309 0.552129 -0.324293 0.287163
310 0.546629 -0.321093 0.360818
311 0.396473 -0.396477 0.122654
312 0.423751 -0.423677 0.166654
313 0.444651 -0.444677 0.221209
314 0.453051 -0.453077 0.287163
315 0.448651 -0.448577 0.360818
316 0.303295 -0.516361 0.166654
317 0.318295 -0.541861 0.221209
318 0.324295 -0.552061 0.287163
319 0.321095 -0.546661 0.360818
320 0.283695 -0.483061 0.122654
321 0.14994 -0.538761 0.122654
322 -0.149894 -0.538761 0.122654
323 -0.160294 -0.575745 0.166654
324 -3.8e-05 -0.558345 0.122654
325 0.160217 -0.575745 0.166654
326 -3.8e-05 -0.596745 0.166654
327 0.168217 -0.604245 0.221209
328 -0.168194 -0.604245 0.221209
329 0.171317 -0.615645 0.287163
330 0.169617 -0.609645 0.360818
331 -3.8e-05 -0.626345 0.221209
332 -3.8e-05 -0.638145 0.287163
333 -3.8e-05 -0.631845 0.360818
334 -3.8e-05 -0.326194 0.0071
335 0.08754 -0.314694 0.0071
336 0.11004 -0.395377 0.015
337 -3.8e-05 -0.409777 0.015
338 0.12234 -0.439477 0.0248
339 -3.8e-05 -0.474761 0.036
340 -3.8e-05 -0.478561 0.0479
341 -3.8e-05 -0.455577 0.0248
342 0.127439 -0.457977 0.036
343 -3.8e-05 -0.490461 0.0639
344 -3.8e-05 -0.519961 0.088654
345 0.157917 -0.567545 0.517527
346 -3.8e-05 -0.588245 0.517527
347 -3.8e-05 -0.614545 0.437873
348 0.394173 -0.23151 0.0248
349 0.410751 -0.24121 0.036
350 0.414051 -0.24321 0.0479
351 0.290995 -0.29091 0.015
352 0.323395 -0.323393 0.0248
353 0.208217 -0.354594 0.015
354 0.231517 -0.394177 0.0248
355 0.337073 -0.337094 0.036
356 0.339773 -0.339794 0.0479
357 0.241195 -0.410677 0.036
358 0.243195 -0.414077 0.0479
359 0.249195 -0.424277 0.0639
360 0.12854 -0.461777 0.0479
361 0.131639 -0.473161 0.0639
362 0.231617 -0.23161 0.0071
363 0.165717 -0.28221 0.0071
364 0.424251 -0.24921 0.0639
365 0.449851 -0.26421 0.088654
366 0.531629 -0.312293 0.437873
367 0.508929 -0.298894 0.517527
368 0.348173 -0.348193 0.0639
369 0.369173 -0.369193 0.088654
370 0.264195 -0.449877 0.088654
371 0.436251 -0.436277 0.437873
372 0.417651 -0.417677 0.517527
373 0.139639 -0.501661 0.088654
374 0.312295 -0.531661 0.437873
375 0.298895 -0.508961 0.517527
376 0.165017 -0.592845 0.437873
377 -0.461805 -0.128526 0.0479
378 -0.458005 -0.127442 0.036
379 -0.439527 -0.122342 0.0248
380 -0.394127 -0.23151 0.0248
381 -0.410727 -0.24121 0.036
382 -0.354549 -0.208226 0.015
383 -0.414027 -0.24321 0.0479
384 -0.424327 -0.24921 0.0639
385 -0.290949 -0.29091 0.015
386 -0.339849 -0.339794 0.0479
387 -0.337049 -0.337094 0.036
388 -0.323449 -0.323393 0.0248
389 -0.243172 -0.414077 0.0479
390 -0.241272 -0.410677 0.036
391 -0.231472 -0.394177 0.0248
392 -0.127494 -0.457977 0.036
393 -0.499905 -0.139126 0.682136
394 -0.414927 -0.115442 0.750836
395 -0.400227 -0.111342 0.765791
396 -0.379427 -0.105542 0.78609
397 -0.326049 -0.090742 0.80119
398 -0.372127 -0.21851 0.750836
399 -0.358827 -0.210726 0.765791
400 -0.340249 -0.199826 0.78609
401 -0.292449 -0.171726 0.80119
402 -0.294449 -0.29451 0.765791
403 -0.279149 -0.27921 0.78609
404 -0.239972 -0.24001 0.80119
405 -0.305349 -0.305394 0.750836
406 -0.473205 -0.131726 0.0639
407 -0.167294 -0.098242 0.0019
408 -0.137294 -0.137226 0.0019
409 -0.567583 -0.157926 0.517527
410 -0.535883 -0.149126 0.599182
411 -0.158494 -0.093042 0.82599
412 -0.282149 -0.165726 0.0071
413 -0.227772 -0.133726 0.813591
414 -0.186894 -0.186926 0.813591
415 -0.130094 -0.130026 0.82599
416 -0.509005 -0.298894 0.517527
417 -0.480505 -0.28221 0.599182
418 -0.448305 -0.26331 0.682136
419 -0.367827 -0.367894 0.682136
420 -0.098216 -0.167226 0.0019
421 -0.165694 -0.28221 0.0071
422 -0.087616 -0.314694 0.0071
423 -0.208272 -0.354594 0.015
424 -0.394327 -0.394377 0.599182
425 -0.109994 -0.395377 0.015
426 -0.282249 -0.480561 0.599182
427 -0.128494 -0.461777 0.0479
428 -0.131694 -0.473161 0.0639
429 -0.122294 -0.439477 0.0248
430 -0.139594 -0.501661 0.088654
431 -0.298949 -0.508961 0.517527
432 -0.164994 -0.592845 0.437873
433 -0.157994 -0.567545 0.517527
434 -0.516305 -0.303293 0.166654
435 -0.541883 -0.318294 0.221209
436 -0.552083 -0.324293 0.287163
437 -0.396427 -0.396477 0.122654
438 -0.423727 -0.423677 0.166654
439 -0.444705 -0.444677 0.221209
440 -0.453105 -0.453077 0.287163
441 -0.283749 -0.483061 0.122654
442 -0.303249 -0.516361 0.166654
443 -0.318249 -0.541861 0.221209
444 -0.324249 -0.552061 0.287163
445 -0.321049 -0.546661 0.360818
446 -0.171394 -0.615645 0.287163
447 -0.169694 -0.609645 0.360818
448 -0.231572 -0.23161 0.0071
449 -0.483105 -0.28371 0.122654
450 -0.449905 -0.26421 0.088654
451 -0.546683 -0.321093 0.360818
452 -0.531683 -0.312293 0.437873
453 -0.348149 -0.348193 0.0639
454 -0.369127 -0.369193 0.088654
455 -0.417627 -0.417677 0.517527
456 -0.249172 -0.424277 0.0639
457 -0.264172 -0.449877 0.088654
458 -0.448605 -0.448577 0.360818
459 -0.436327 -0.436277 0.437873
460 -0.312249 -0.531661 0.437873
461 -0.171694 -0.29241 0.80119
462 -0.133794 -0.22771 0.813591
463 -0.218572 -0.372093 0.750836
464 -0.210772 -0.358894 0.765791
465 -0.199772 -0.340194 0.78609
466 -0.105594 -0.379394 0.78609
467 -0.090716 -0.326093 0.80119
468 -3.8e-05 -0.337994 0.80119
469 0.09074 -0.326093 0.80119
470 -0.115494 -0.414977 0.750836
471 -0.111394 -0.400177 0.765791
472 -3.8e-05 -0.414777 0.765791
473 -3.8e-05 -0.393177 0.78609
474 0.10554 -0.379394 0.78609
475 -3.8e-05 -0.430077 0.750836
476 -0.051916 -0.186526 0.0019
477 -3.8e-05 -0.193326 0.0019
478 0.051862 -0.186526 0.0019
479 -0.093116 -0.158426 0.82599
480 -0.049216 -0.176726 0.82599
481 -3.8e-05 -0.183126 0.82599
482 0.049162 -0.176726 0.82599
483 0.093039 -0.158426 0.82599
484 -0.070716 -0.25401 0.813591
485 -3.8e-05 -0.26321 0.813591
486 0.070639 -0.25401 0.813591
487 -0.149094 -0.535861 0.599182
488 -3.8e-05 -0.555445 0.599182
489 0.395373 -0.23221 0.793691
490 0.404873 -0.23781 0.78319
491 0.448251 -0.26331 0.682136
492 0.414051 -0.24321 0.765791
493 0.317195 -0.317194 0.765791
494 0.339773 -0.339794 0.765791
495 0.312895 -0.312894 0.78319
496 0.313595 -0.313594 0.793691
497 0.317895 -0.317894 0.79719
498 0.324495 -0.324493 0.793691
499 0.332273 -0.332193 0.78319
500 0.227017 -0.386477 0.765791
501 0.232217 -0.395377 0.793691
502 0.237817 -0.404877 0.78319
503 0.13724 -0.137226 0.0019
504 0.09824 -0.167226 0.0019
505 0.480551 -0.28221 0.599182
506 0.13374 -0.22771 0.813591
507 0.186917 -0.186926 0.813591
508 0.239995 -0.24001 0.80119
509 0.279195 -0.27921 0.78609
510 0.294495 -0.29451 0.765791
511 0.394373 -0.394377 0.599182
512 0.305395 -0.305394 0.750836
513 0.171717 -0.29241 0.80119
514 0.199817 -0.340194 0.78609
515 0.218517 -0.372093 0.750836
516 0.210817 -0.358894 0.765791
517 0.111339 -0.400177 0.765791
518 0.282195 -0.480561 0.599182
519 0.367873 -0.367894 0.682136
520 0.321595 -0.321593 0.750036
521 0.11544 -0.414977 0.750836
522 0.230217 -0.391977 0.750036
523 0.243195 -0.414077 0.765791
524 0.263295 -0.448277 0.682136
525 -3.8e-05 -0.452977 0.750036
526 0.121639 -0.437077 0.750036
527 0.12854 -0.461777 0.765791
528 0.13914 -0.499861 0.682136
529 -3.8e-05 -0.518061 0.682136
530 0.149139 -0.535861 0.599182
531 0.223917 -0.381294 0.78319
532 0.224417 -0.382093 0.793691
533 0.118339 -0.425277 0.78319
534 0.119939 -0.430977 0.765791
535 0.118639 -0.426077 0.793691
536 0.227517 -0.387377 0.79719
537 -3.8e-05 -0.457077 0.793691
538 -3.8e-05 -0.447677 0.79719
539 -3.8e-05 -0.440777 0.78319
540 -3.8e-05 -0.441677 0.793691
541 0.120239 -0.431977 0.79719
542 0.122739 -0.440977 0.793691
543 0.125639 -0.451477 0.78319
544 -0.317149 -0.317194 0.765791
545 -0.321649 -0.321593 0.750036
546 -0.339849 -0.339794 0.765791
547 -0.332249 -0.332193 0.78319
548 -0.324449 -0.324493 0.793691
549 -0.312949 -0.312894 0.78319
550 -0.263272 -0.448277 0.682136
551 -0.230172 -0.391977 0.750036
552 -0.243172 -0.414077 0.765791
553 -0.237772 -0.404877 0.78319
554 -0.226972 -0.386477 0.765791
555 -0.139094 -0.499861 0.682136
556 -0.121594 -0.437077 0.750036
557 -0.128494 -0.461777 0.765791
558 -0.317849 -0.317894 0.79719
559 -0.313549 -0.313594 0.793691
560 -0.232272 -0.395377 0.793691
561 -0.227472 -0.387377 0.79719
562 -0.223972 -0.381294 0.78319
563 -0.224472 -0.382093 0.793691
564 -0.120194 -0.431977 0.79719
565 -0.118594 -0.426077 0.793691
566 -0.118394 -0.425277 0.78319
567 -0.119994 -0.430977 0.765791
568 -3.8e-05 -0.446677 0.765791
569 -0.125694 -0.451477 0.78319
570 -0.122694 -0.440977 0.793691
571 -3.8e-05 -0.478561 0.765791
572 -3.8e-05 -0.467877 0.78319
573 -0.437027 -0.121642 0.750036
574 -0.430927 -0.119942 0.765791
575 -0.461805 -0.128526 0.765791
576 -0.451505 -0.125642 0.78319
577 -0.440927 -0.122742 0.793691
578 -0.431927 -0.120242 0.79719
579 -0.426127 -0.118642 0.793691
580 -0.386427 -0.22701 0.765791
581 -0.391927 -0.23021 0.750036
582 -0.414027 -0.24321 0.765791
583 -0.404827 -0.23781 0.78319
584 -0.395427 -0.23221 0.793691
585 -0.387327 -0.22751 0.79719
586 -0.381327 -0.22401 0.78319
587 -0.382127 -0.22441 0.793691
588 -0.451505 0.125626 0.78319
589 -0.440927 0.122726 0.793691
590 -0.431927 0.120226 0.79719
591 -0.425227 0.118326 0.78319
592 -0.430927 0.119926 0.765791
593 -0.426127 0.118626 0.793691
594 -0.478605 4.2e-05 0.765791
595 -0.467905 4.2e-05 0.78319
596 -0.457005 4.2e-05 0.793691
597 -0.447705 4.2e-05 0.79719
598 -0.440727 4.2e-05 0.78319
599 -0.446705 4.2e-05 0.765791
600 -0.441627 4.2e-05 0.793691
601 -0.425227 -0.118342 0.78319
602 -0.232272 0.395461 0.793691
603 -0.324449 0.324477 0.793691
604 -0.317849 0.317877 0.79719
605 -0.224472 0.382077 0.793691
606 -0.223972 0.381277 0.78319
607 -0.312949 0.312977 0.78319
608 -0.404827 0.237794 0.78319
609 -0.395427 0.232194 0.793691
610 -0.313549 0.313577 0.793691
611 -0.387327 0.227494 0.79719
612 -0.381327 0.223994 0.78319
613 -0.386427 0.226994 0.765791
614 -0.382127 0.224394 0.793691
615 0.249195 0.424261 0.0639
616 0.243195 0.414061 0.0479
617 0.337073 0.337077 0.036
618 0.323395 0.323477 0.0248
619 0.339773 0.339777 0.0479
620 0.290995 0.290994 0.015
621 0.410751 0.241194 0.036
622 0.394173 0.231494 0.0248
623 0.414051 0.243194 0.0479
624 0.424251 0.249194 0.0639
625 0.354573 0.20821 0.015
626 0.458051 0.127426 0.036
627 0.439551 0.122326 0.0248
628 0.461751 0.12851 0.0479
629 -3.8e-05 0.490445 0.0639
630 -3.8e-05 0.478645 0.0479
631 0.131639 0.473145 0.0639
632 -3.8e-05 0.474745 0.036
633 0.12854 0.461761 0.0479
634 -3.8e-05 0.455561 0.0248
635 0.127439 0.458061 0.036
636 -0.109994 0.395361 0.015
637 -3.8e-05 0.409761 0.015
638 0.12234 0.439561 0.0248
639 0.11004 0.395361 0.015
640 0.231517 0.394161 0.0248
641 0.208217 0.354577 0.015
642 0.241195 0.410761 0.036
643 -3.8e-05 0.596729 0.166654
644 -3.8e-05 0.626329 0.221209
645 0.160217 0.575729 0.166654
646 0.168217 0.604229 0.221209
647 0.14994 0.538745 0.122654
648 0.318295 0.541845 0.221209
649 0.303295 0.516345 0.166654
650 -3.8e-05 0.638129 0.287163
651 0.171317 0.615629 0.287163
652 0.324295 0.552145 0.287163
653 0.283695 0.483045 0.122654
654 0.423751 0.423661 0.166654
655 0.444651 0.444661 0.221209
656 0.453051 0.453061 0.287163
657 -3.8e-05 0.558329 0.122654
658 -3.8e-05 0.519945 0.088655
659 -3.8e-05 0.631829 0.360818
660 0.169617 0.609629 0.360818
661 -3.8e-05 0.614529 0.437873
662 0.165017 0.592829 0.437873
663 0.157917 0.567529 0.517527
664 0.298895 0.508945 0.517527
665 0.139639 0.501645 0.088655
666 0.264195 0.449861 0.088655
667 -0.087616 0.314677 0.0071
668 -3.8e-05 0.326177 0.0071
669 0.08754 0.314677 0.0071
670 0.165717 0.282194 0.0071
671 0.321095 0.546645 0.360818
672 0.312295 0.531645 0.437873
673 0.396473 0.396461 0.122654
674 0.448651 0.448661 0.360818
675 0.436251 0.436261 0.437873
676 0.417651 0.417661 0.517527
677 0.348173 0.348177 0.0639
678 0.369173 0.369177 0.088655
679 0.546629 0.321077 0.360818
680 0.531629 0.312277 0.437873
681 0.508929 0.298977 0.517527
682 0.449851 0.264194 0.088655
683 0.231617 0.231594 0.0071
684 0.282195 0.16571 0.0071
685 0.395373 0.110026 0.015
686 0.490451 4.2e-05 0.0639
687 0.478551 4.2e-05 0.0479
688 0.409773 4.2e-05 0.015
689 0.455551 4.2e-05 0.0248
690 0.474751 4.2e-05 0.036
691 0.314695 -0.087542 0.0071
692 0.395373 -0.110042 0.015
693 0.439551 -0.122342 0.0248
694 0.458051 -0.127442 0.036
695 0.461751 -0.128526 0.0479
696 0.473151 -0.131726 0.0639
697 0.282195 -0.165726 0.0071
698 0.354573 -0.208226 0.015
699 0.592906 -0.165026 0.437873
700 0.555429 4.2e-05 0.599182
701 0.193317 4.2e-05 0.0019
702 0.263195 4.2e-05 0.813591
703 0.186517 -0.051942 0.0019
704 0.167217 -0.098242 0.0019
705 0.535829 -0.149126 0.599182
706 0.567529 -0.157926 0.517527
707 0.499929 -0.139126 0.682136
708 0.414951 -0.115442 0.750836
709 0.176717 -0.049142 0.82599
710 0.253995 -0.070642 0.813591
711 0.372073 -0.21851 0.750836
712 0.158517 -0.093042 0.82599
713 0.227717 -0.133726 0.813591
714 0.253995 0.070726 0.813591
715 0.326073 0.090726 0.80119
716 0.379373 0.105626 0.78609
717 0.430051 4.2e-05 0.750836
718 0.337973 4.2e-05 0.80119
719 0.393173 4.2e-05 0.78609
720 0.414751 4.2e-05 0.765791
721 0.400173 -0.111342 0.765791
722 0.326073 -0.090742 0.80119
723 0.379373 -0.105542 0.78609
724 0.358873 -0.210726 0.765791
725 0.292395 -0.171726 0.80119
726 0.340173 -0.199826 0.78609
727 0.596806 4.2e-05 0.166654
728 0.501629 -0.139626 0.088654
729 0.538729 -0.149926 0.122654
730 0.575729 -0.160226 0.166654
731 0.604306 -0.168226 0.221209
732 0.711084 -0.083742 0.266964
733 0.617706 -0.085942 0.235909
734 0.601006 -0.085742 0.444773
735 0.619406 -0.137226 0.283163
736 0.605106 -0.137226 0.399718
737 0.516329 -0.303293 0.166654
738 0.615706 -0.171326 0.287163
739 0.609606 -0.169626 0.360818
740 0.613306 -0.154326 0.341718
741 0.516329 0.303277 0.166654
742 0.483051 0.283694 0.122654
743 0.541829 0.318277 0.221209
744 0.552129 0.324277 0.287163
745 0.604306 0.16821 0.221209
746 0.575729 0.16021 0.166654
747 0.615706 0.17131 0.287163
748 0.609606 0.16971 0.360818
749 0.538729 0.14991 0.122654
750 0.617706 0.085926 0.235909
751 0.613306 0.15431 0.341718
752 0.619406 0.13721 0.283163
753 0.711084 0.083726 0.266964
754 0.605106 0.13731 0.399718
755 0.592906 0.16501 0.437873
756 0.567529 0.15801 0.517527
757 0.473151 0.13171 0.0639
758 0.501629 0.13961 0.088655
759 0.314695 0.087626 0.0071
760 0.519929 4.2e-05 0.088655
761 0.558329 4.2e-05 0.122654
762 0.625606 4.2e-05 0.219909
763 0.601006 0.085726 0.444773
764 0.588306 4.2e-05 0.517527
765 0.186517 0.051926 0.0019
766 0.326173 4.2e-05 0.0071
767 0.715384 4.2e-05 0.250609
768 0.605906 4.2e-05 0.463773
769 0.957217 0.059826 0.765791
770 1.00332 0.053226 0.765791
771 0.930017 0.051626 0.776491
772 0.979117 0.058026 0.777191
773 0.943717 0.047626 0.78309
774 0.992617 0.053626 0.784391
775 0.951217 0.042526 0.785491
776 0.951617 0.037442 0.783391
777 0.993517 0.042142 0.78499
778 0.965217 0.030142 0.750936
779 0.957217 0.035942 0.765791
780 0.987917 0.031942 0.765791
781 0.91934 0.023342 0.782191
782 0.943617 0.033442 0.776891
783 0.980217 0.037642 0.777991
784 1.0387 0.033242 0.765791
785 0.997617 0.047826 0.78709
786 1.0282 0.051626 0.777891
787 1.0416 0.047626 0.78569
788 1.0439 0.042526 0.788691
789 1.0355 0.037442 0.786591
790 1.0659 0.032242 0.778391
791 1.0792 0.029742 0.786591
792 1.0678 0.023342 0.78789
793 0.987117 0.019042 0.750936
794 1.0116 0.019942 0.765791
795 1.0167 0.033442 0.779091
796 1.0448 0.020942 0.77999
797 0.936817 -0.016058 0.750936
798 0.926517 -0.021258 0.765791
799 0.930017 -0.051542 0.776491
800 0.91564 -0.026158 0.78419
801 0.943617 -0.027358 0.776891
802 0.91934 -0.022358 0.782191
803 0.943717 -0.047242 0.78309
804 0.951617 -0.034258 0.783391
805 0.951217 -0.041258 0.785491
806 0.980217 -0.027258 0.777991
807 0.993517 -0.036758 0.78499
808 0.992617 -0.052942 0.784391
809 0.957217 -0.059842 0.765791
810 0.979117 -0.057942 0.777191
811 1.0795 0.026542 0.789891
812 0.997617 -0.045642 0.78709
813 1.0355 -0.031158 0.786591
814 1.0439 -0.039858 0.788691
815 1.0678 -0.018458 0.78789
816 1.0795 -0.024558 0.789891
817 1.081 4.2e-05 0.778591
818 1.0659 -0.032158 0.778391
819 1.0282 -0.051542 0.777891
820 1.0792 -0.029158 0.786591
821 1.0416 -0.046842 0.78569
822 1.0807 4.2e-05 0.788391
823 1.0943 4.2e-05 0.786991
824 1.0938 4.2e-05 0.79039
825 0.936517 -0.037258 0.688336
826 1.0529 4.2e-05 0.765791
827 1.0387 -0.033258 0.765791
828 1.00332 -0.053142 0.765791
829 0.965217 -0.009358 0.750936
830 0.957217 -0.017958 0.765791
831 0.987117 -0.002558 0.750936
832 0.995917 0.000542 0.750936
833 0.987917 -0.010658 0.765791
834 1.0116 -0.003358 0.765791
835 1.021 4.2e-05 0.765791
836 1.0167 -0.021158 0.779091
837 1.0448 -0.011358 0.77999
838 1.0561 4.2e-05 0.78029
839 0.90604 0.029742 0.78209
840 0.91564 0.026542 0.78419
841 0.89334 4.2e-05 0.765791
842 0.90284 0.019942 0.765791
843 0.90284 -0.016658 0.765791
844 0.926517 0.031942 0.765791
845 0.89104 4.2e-05 0.78169
846 0.90604 -0.029658 0.78209
847 0.90134 4.2e-05 0.783691
848 0.90434 4.2e-05 0.77569
849 0.91554 -0.018958 0.776091
850 0.90634 4.2e-05 0.78169
851 0.91554 0.020942 0.776091
852 0.946417 4.2e-05 0.686636
853 0.823362 -0.037258 0.707736
854 0.86144 4.2e-05 0.765791
855 0.87564 -0.033258 0.765791
856 0.84794 -0.059642 0.703536
857 0.87764 0.000542 0.750936
858 0.88644 0.019042 0.750936
859 0.88644 -0.014858 0.750936
860 0.90834 -0.019158 0.750936
861 0.91194 -0.059642 0.692536
862 0.87714 4.2e-05 0.77569
863 0.89224 -0.032258 0.77599
864 0.91114 -0.053142 0.765791
865 0.87994 -0.067142 0.698036
866 0.89224 4.2e-05 0.579627
867 0.936517 0.037242 0.688336
868 0.84794 0.059626 0.703536
869 0.785862 4.2e-05 0.642582
870 0.823362 0.037242 0.707736
871 0.87994 0.067126 0.698036
872 0.91194 0.059626 0.692536
873 0.91114 0.053226 0.765791
874 0.87564 0.033242 0.765791
875 0.89224 0.032242 0.77599
876 0.813462 4.2e-05 0.709436
877 0.793762 -0.047342 0.637882
878 0.936817 0.007342 0.750936
879 0.90834 0.030142 0.750936
880 0.936817 0.033842 0.750936
881 0.700184 0.13391 0.307763
882 0.686184 0.15071 0.360818
883 0.787462 0.117826 0.389318
884 0.803162 0.073626 0.358118
885 0.672084 0.13391 0.413918
886 0.766962 0.13251 0.429873
887 0.661206 0.083726 0.454773
888 0.746484 0.117826 0.470373
889 0.809662 0.108926 0.517527
890 0.832662 0.096826 0.490073
891 0.85044 0.060526 0.469073
892 0.730684 0.073626 0.501572
893 0.786562 0.096826 0.544827
894 0.86464 0.075826 0.595982
895 0.83904 0.085226 0.611082
896 0.809462 4.2e-05 0.345618
897 0.85744 4.2e-05 0.460673
898 0.768862 0.060526 0.565927
899 0.724384 4.2e-05 0.514027
900 0.88434 0.047326 0.584327
901 0.793762 0.047326 0.637882
902 0.813462 0.075826 0.626282
903 0.761762 4.2e-05 0.574327
904 0.85044 -0.060442 0.469073
905 0.88434 -0.047342 0.584327
906 0.768862 -0.060442 0.565927
907 0.813462 -0.075742 0.626282
908 0.86464 -0.075742 0.595982
909 0.83904 -0.085242 0.611082
910 0.656906 4.2e-05 0.471073
911 0.803162 -0.073642 0.358118
912 0.661206 -0.083742 0.454773
913 0.730684 -0.073642 0.501572
914 0.787462 -0.117742 0.389318
915 0.700184 -0.133926 0.307763
916 0.832662 -0.096742 0.490073
917 0.809662 -0.108842 0.517527
918 0.766962 -0.132526 0.429873
919 0.672084 -0.133926 0.413918
920 0.746484 -0.117742 0.470373
921 0.786562 -0.096742 0.544827
922 0.686184 -0.150626 0.360818
923 -0.017116 0.061526 0.861445
924 -0.038816 0.038842 0.888745
925 -0.065416 0.038542 0.919945
926 -0.047316 0.027842 0.888745
927 -0.027816 0.047326 0.888745
928 -0.014738 0.052726 0.888745
929 -0.100016 0.027942 0.9512
930 -0.073016 0.020342 0.919945
931 -0.085816 0.023942 0.997699
932 -0.061616 0.017142 0.861445
933 -0.075616 4.2e-05 0.919945
934 -0.054616 4.2e-05 0.888745
935 -0.052716 0.014642 0.888745
936 -0.088916 4.2e-05 0.997699
937 -0.053716 0.053726 0.919945
938 -0.038516 0.065426 0.919945
939 -0.073716 0.073726 0.9512
940 -0.052816 0.089726 0.9512
941 -0.027916 0.100026 0.9512
942 -0.100216 0.058926 0.9785
943 -0.089816 0.052826 0.9512
944 -0.082316 0.082326 0.9785
945 -0.077016 0.045326 0.997699
946 -0.063216 0.063226 0.997699
947 -0.111794 0.031242 0.9785
948 -0.045316 0.077026 0.997699
949 -0.059016 0.100226 0.9785
950 -0.031216 0.111726 0.9785
951 -0.111994 4.2e-05 0.841045
952 -0.107994 -0.030058 0.841045
953 -0.063816 4.2e-05 0.861445
954 -0.061616 -0.017158 0.861445
955 -0.096916 -0.056942 0.841045
956 -0.052716 -0.014658 0.888745
957 -0.047316 -0.027758 0.888745
958 -0.038816 -0.038858 0.888745
959 -0.055216 -0.032458 0.861445
960 -0.079516 -0.079542 0.841045
961 -0.045316 -0.045342 0.861445
962 -0.032416 -0.055242 0.861445
963 -0.056916 -0.096842 0.841045
964 -0.030016 -0.108042 0.841045
965 -0.014738 -0.052742 0.888745
966 -0.017116 -0.061542 0.861445
967 -0.027816 -0.047342 0.888745
968 -0.063216 -0.063242 0.997699
969 -0.045316 -0.076942 0.997699
970 -0.023916 -0.085842 0.997699
971 -3.8e-05 -0.088942 0.997699
972 -0.038516 -0.065442 0.919945
973 -0.020316 -0.072942 0.919945
974 -0.052816 -0.089742 0.9512
975 -0.027916 -0.100042 0.9512
976 -3.8e-05 -0.103742 0.9512
977 -0.082316 -0.082342 0.9785
978 -0.059016 -0.100242 0.9785
979 -0.031216 -0.111742 0.9785
980 -3.8e-05 -0.115842 0.9785
981 -0.073016 -0.020358 0.919945
982 -0.103694 4.2e-05 0.9512
983 -0.065416 -0.038458 0.919945
984 -0.100016 -0.027958 0.9512
985 -0.053716 -0.053742 0.919945
986 -0.089816 -0.052842 0.9512
987 -0.115794 4.2e-05 0.9785
988 -0.111794 -0.031158 0.9785
989 -0.085816 -0.023958 0.997699
990 -0.100216 -0.058942 0.9785
991 -0.077016 -0.045242 0.997699
992 -0.073716 -0.073742 0.9512
993 -0.020316 0.073026 0.919945
994 -3.8e-05 0.075626 0.919945
995 -3.8e-05 0.103726 0.9512
996 0.020362 0.073026 0.919945
997 0.027962 0.100026 0.9512
998 0.052762 0.089726 0.9512
999 -0.023916 0.085826 0.997699
1000 -3.8e-05 0.088926 0.997699
1001 -3.8e-05 0.115826 0.9785
1002 0.023962 0.085826 0.997699
1003 0.031162 0.111726 0.9785
1004 0.045262 0.077026 0.997699
1005 0.058962 0.100226 0.9785
1006 0.014662 0.052726 0.888745
1007 0.038462 0.065426 0.919945
1008 0.027762 0.047326 0.888745
1009 0.053762 0.053726 0.919945
1010 0.038862 0.038842 0.888745
1011 0.073739 0.073726 0.9512
1012 0.047262 0.027842 0.888745
1013 0.08974 0.052826 0.9512
1014 0.065462 0.038542 0.919945
1015 -3.8e-05 4.2e-05 1.0051
1016 0.063262 0.063226 0.997699
1017 0.08234 0.082326 0.9785
1018 0.07694 0.045326 0.997699
1019 0.10024 0.058926 0.9785
1020 0.052762 0.014642 0.888745
1021 0.08584 0.023942 0.997699
1022 0.11174 0.031242 0.9785
1023 0.100039 0.027942 0.9512
1024 0.065462 -0.038458 0.919945
1025 0.07294 0.020342 0.919945
1026 0.07294 -0.020358 0.919945
1027 0.07564 4.2e-05 0.919945
1028 0.100039 -0.027958 0.9512
1029 0.10374 4.2e-05 0.9512
1030 0.08584 -0.023958 0.997699
1031 0.08894 4.2e-05 0.997699
1032 0.07694 -0.045242 0.997699
1033 0.11174 -0.031158 0.9785
1034 0.115839 4.2e-05 0.9785
1035 0.053762 -0.053742 0.919945
1036 0.038462 -0.065442 0.919945
1037 0.08974 -0.052842 0.9512
1038 0.073739 -0.073742 0.9512
1039 0.023962 -0.085842 0.997699
1040 0.045262 -0.076942 0.997699
1041 0.063262 -0.063242 0.997699
1042 0.10024 -0.058942 0.9785
1043 0.020362 -0.072942 0.919945
1044 0.027962 -0.100042 0.9512
1045 0.052762 -0.089742 0.9512
1046 0.031162 -0.111742 0.9785
1047 0.058962 -0.100242 0.9785
1048 0.08234 -0.082342 0.9785
1049 -3.8e-05 0.111926 0.841045
1050 0.111939 4.2e-05 0.841045
1051 -3.8e-05 0.063826 0.861445
1052 -3.8e-05 0.054626 0.888745
1053 0.017162 0.061526 0.861445
1054 0.055162 0.032442 0.861445
1055 0.061562 0.017142 0.861445
1056 0.052762 -0.014658 0.888745
1057 0.061562 -0.017158 0.861445
1058 0.054662 4.2e-05 0.888745
1059 0.063862 4.2e-05 0.861445
1060 -3.8e-05 -0.054642 0.888745
1061 -3.8e-05 -0.075642 0.919945
1062 -3.8e-05 -0.063842 0.861445
1063 0.108039 -0.030058 0.841045
1064 0.038862 -0.038858 0.888745
1065 0.047262 -0.027758 0.888745
1066 0.055162 -0.032458 0.861445
1067 0.027762 -0.047342 0.888745
1068 0.045262 -0.045342 0.861445
1069 0.09684 -0.056942 0.841045
1070 0.07954 -0.079542 0.841045
1071 0.130039 -0.130026 0.82599
1072 -3.8e-05 -0.111942 0.841045
1073 0.017162 -0.061542 0.861445
1074 0.014662 -0.052742 0.888745
1075 0.030062 -0.108042 0.841045
1076 0.032462 -0.055242 0.861445
1077 0.056862 -0.096842 0.841045
1078 0.437051 0.121626 0.750036
1079 0.430951 0.119926 0.765791
1080 0.518129 4.2e-05 0.682136
1081 0.478551 4.2e-05 0.765791
1082 0.467951 4.2e-05 0.78319
1083 0.453051 4.2e-05 0.750036
1084 0.446651 4.2e-05 0.765791
1085 0.437051 -0.121642 0.750036
1086 0.430951 -0.119942 0.765791
1087 0.461751 -0.128526 0.765791
1088 0.451451 -0.125642 0.78319
1089 0.386473 -0.22701 0.765791
1090 0.391973 -0.23021 0.750036
1091 0.425251 0.118326 0.78319
1092 0.426151 0.118626 0.793691
1093 0.431951 0.120226 0.79719
1094 0.440751 4.2e-05 0.78319
1095 0.441651 4.2e-05 0.793691
1096 0.447651 4.2e-05 0.79719
1097 0.457051 4.2e-05 0.793691
1098 0.425251 -0.118342 0.78319
1099 0.426151 -0.118642 0.793691
1100 0.431951 -0.120242 0.79719
1101 0.440951 -0.122742 0.793691
1102 0.381373 -0.22401 0.78319
1103 0.382173 -0.22441 0.793691
1104 0.387373 -0.22751 0.79719
1105 0.317195 0.317177 0.765791
1106 0.313595 0.313577 0.793691
1107 0.317895 0.317877 0.79719
1108 0.324495 0.324477 0.793691
1109 0.332273 0.332177 0.78319
1110 0.414051 0.243194 0.765791
1111 0.386473 0.226994 0.765791
1112 0.381373 0.223994 0.78319
1113 0.382173 0.224394 0.793691
1114 0.387373 0.227494 0.79719
1115 0.395373 0.232194 0.793691
1116 0.404873 0.237794 0.78319
1117 0.461751 0.12851 0.765791
1118 0.440951 0.122726 0.793691
1119 0.451451 0.125626 0.78319
1120 -3.8e-05 0.478645 0.765791
1121 -3.8e-05 0.467961 0.78319
1122 -0.119994 0.430961 0.765791
1123 -3.8e-05 0.446661 0.765791
1124 -0.125694 0.451461 0.78319
1125 -0.122694 0.440961 0.793691
1126 -0.227472 0.387361 0.79719
1127 -0.120194 0.431961 0.79719
1128 -0.118594 0.426161 0.793691
1129 -3.8e-05 0.457061 0.793691
1130 -3.8e-05 0.447661 0.79719
1131 -3.8e-05 0.441661 0.793691
1132 -0.118394 0.425261 0.78319
1133 -3.8e-05 0.440761 0.78319
1134 0.125639 0.451461 0.78319
1135 0.119939 0.430961 0.765791
1136 0.227017 0.386461 0.765791
1137 0.118339 0.425261 0.78319
1138 0.118639 0.426161 0.793691
1139 0.120239 0.431961 0.79719
1140 0.122739 0.440961 0.793691
1141 0.223917 0.381277 0.78319
1142 0.224417 0.382077 0.793691
1143 0.227517 0.387361 0.79719
1144 0.232217 0.395461 0.793691
1145 0.237817 0.404861 0.78319
1146 0.312895 0.312977 0.78319
1147 0.111339 0.400161 0.765791
1148 0.210817 0.358877 0.765791
1149 0.09074 0.326077 0.80119
1150 0.10554 0.379377 0.78609
1151 0.199817 0.340177 0.78609
1152 0.294495 0.294494 0.765791
1153 0.171717 0.292394 0.80119
1154 0.239995 0.239994 0.80119
1155 0.279195 0.279194 0.78609
1156 0.358873 0.21081 0.765791
1157 0.414951 0.115526 0.750836
1158 0.292395 0.17171 0.80119
1159 0.340173 0.19981 0.78609
1160 0.400173 0.111426 0.765791
1161 0.394373 0.394361 0.599182
1162 0.367873 0.367877 0.682136
1163 0.480551 0.282194 0.599182
1164 0.448251 0.263294 0.682136
1165 0.535829 0.14911 0.599182
1166 0.305395 0.305377 0.750836
1167 0.372073 0.218594 0.750836
1168 0.391973 0.230194 0.750036
1169 0.13724 0.13721 0.0019
1170 0.499929 0.13911 0.682136
1171 0.130039 0.13001 0.82599
1172 0.186917 0.18691 0.813591
1173 0.227717 0.13371 0.813591
1174 0.167217 0.098226 0.0019
1175 0.149139 0.535845 0.599182
1176 0.282195 0.480545 0.599182
1177 0.13914 0.499845 0.682136
1178 0.263295 0.448261 0.682136
1179 0.12854 0.461761 0.765791
1180 0.243195 0.414061 0.765791
1181 0.121639 0.437061 0.750036
1182 0.11544 0.414961 0.750836
1183 0.230217 0.391961 0.750036
1184 0.218517 0.372077 0.750836
1185 0.321595 0.321677 0.750036
1186 0.339773 0.339777 0.765791
1187 0.13374 0.227694 0.813591
1188 0.09824 0.16721 0.0019
1189 -3.8e-05 0.555429 0.599182
1190 -3.8e-05 0.518145 0.682136
1191 -0.121594 0.437061 0.750036
1192 -3.8e-05 0.453061 0.750036
1193 -0.115494 0.414961 0.750836
1194 -3.8e-05 0.430061 0.750836
1195 -0.111394 0.400161 0.765791
1196 -3.8e-05 0.414761 0.765791
1197 -3.8e-05 0.393261 0.78609
1198 -0.105594 0.379377 0.78609
1199 -3.8e-05 0.337977 0.80119
1200 -0.090716 0.326077 0.80119
1201 -0.070716 0.253994 0.813591
1202 0.070639 0.253994 0.813591
1203 0.049162 0.17671 0.82599
1204 0.093039 0.15851 0.82599
1205 -3.8e-05 4.2e-05 0.0
1206 0.030062 0.108026 0.841045
1207 0.056862 0.096826 0.841045
1208 0.07954 0.079526 0.841045
1209 0.158517 0.093126 0.82599
1210 0.09684 0.056926 0.841045
1211 0.176717 0.049226 0.82599
1212 0.108039 0.030042 0.841045
1213 0.183117 4.2e-05 0.82599
1214 0.032462 0.055226 0.861445
1215 0.045262 0.045326 0.861445
1216 -3.8e-05 0.588229 0.517527
1217 -0.051916 0.18651 0.0019
1218 -3.8e-05 0.19331 0.0019
1219 0.051862 0.18651 0.0019
1220 -3.8e-05 0.263194 0.813591
1221 -0.093116 0.15851 0.82599
1222 -0.049216 0.17671 0.82599
1223 -3.8e-05 0.18321 0.82599
1224 -0.079516 0.079526 0.841045
1225 -0.056916 0.096826 0.841045
1226 -0.030016 0.108026 0.841045
1227 -0.096916 0.056926 0.841045
1228 -0.107994 0.030042 0.841045
1229 -0.045316 0.045326 0.861445
1230 -0.055216 0.032442 0.861445
1231 -0.032416 0.055226 0.861445
