2464
0 177 603 175
1 318 315 314
2 855 863 864
3 1063 1213 709
4 1225 1224 166
5 95 105 110
6 95 105 88
7 918 917 921
8 1194 1196 1195
9 39 38 163
10 324 344 430
11 329 319 318
12 936 1015 931
13 51 60 59
14 1186 1164 1110
15 432 433 431
16 1060 1062 965
17 1062 965 966
18 539 540 565
19 538 540 565
20 230 223 254
21 414 404 461
22 556 567 568
23 407 208 1205
24 1019 1016 1018
25 1023 1025 1029
26 408 448 412
27 934 933 956
28 1059 1212 1055
29 1212 1054 1055
30 425 341 429
31 5 2 7
32 2 3 7
33 1059 1055 1058
34 43 40 44
35 464 463 470
36 1148 1147 1151
37 452 149 451
38 397 413 209
39 587 586 549
40 229 223 230
41 181 1193 161
42 438 434 437
43 22 25 379
44 1081 1117 1080
45 182 186 184
46 435 436 147
47 23 21 15
48 70 117 118
49 100 102 101
50 102 101 104
51 78 77 73
52 15 16 21
53 842 844 851
54 380 388 385
55 41 27 657
56 113 114 115
57 1134 1121 1140
58 70 120 74
59 80 120 74
60 106 110 105
61 106 110 117
62 1122 172 171
63 34 33 36
64 303 301 298
65 18 10 11
66 151 147 148
67 14 19 138
68 121 148 122
69 121 148 146
70 1213 1212 1211
71 445 458 444
72 160 174 171
73 394 398 573
74 1201 1221 164
75 1071 1069 712
76 155 156 28
77 1152 1159 1155
78 1159 1155 1154
79 29 27 658
80 1041 1048 1042
81 1048 1038 1042
82 1200 1198 1197
83 1196 1198 1197
84 669 668 637
85 62 126 64
86 126 127 64
87 1147 1194 1182
88 119 68 127
89 119 132 127
90 109 108 114
91 464 403 402
92 952 210 207
93 142 137 112
94 51 28 60
95 93 303 96
96 1109 1186 1110
97 124 63 17
98 130 137 129
99 137 129 142
100 1080 1117 1170
101 822 811 792
102 1007 996 1006
103 200 199 197
104 995 941 993
105 1122 171 1191
106 1220 1199 1202
107 1207 1203 1204
108 1219 1218 1205
109 485 484 480
110 438 442 437
111 295 299 92
112 1142 1146 1106
113 1142 1143 1106
114 1015 1000 999
115 150 149 140
116 1176 1175 1178
117 169 175 170
118 1129 1125 1127
119 7 8 3
120 552 553 557
121 186 211 214
122 985 958 983
123 162 163 38
124 472 466 473
125 467 466 473
126 487 550 426
127 709 702 1213
128 1052 994 928
129 936 987 931
130 351 698 362
131 821 812 814
132 812 814 813
133 603 604 602
134 152 151 145
135 152 143 145
136 186 190 188
137 422 420 476
138 209 411 413
139 951 932 1228
140 978 968 969
141 93 303 298
142 1171 1210 1209
143 221 190 214
144 169 1120 1124
145 71 72 69
146 581 398 405
147 306 269 302
148 295 280 297
149 295 280 299
150 68 127 65
151 53 46 48
152 341 338 336
153 584 548 583
154 410 417 409
155 491 705 707
156 937 924 938
157 925 935 926
158 790 784 786
159 1198 181 183
160 1198 185 183
161 875 862 839
162 396 399 400
163 396 401 400
164 585 558 559
165 1215 1012 1010
166 955 954 952
167 865 856 864
168 856 864 855
169 1167 1078 1157
170 478 334 477
171 485 468 484
172 1086 1085 1089
173 207 210 206
174 1051 923 1052
175 934 930 935
176 272 266 265
177 205 206 202
178 555 557 529
179 571 529 557
180 465 464 403
181 465 403 404
182 583 584 576
183 564 561 570
184 571 572 569
185 524 494 523
186 943 937 939
187 468 484 467
188 947 987 931
189 1144 1145 1108
190 370 369 368
191 349 352 348
192 1041 1015 1032
193 401 413 397
194 389 392 390
195 391 392 390
196 1145 1134 1144
197 434 152 435
198 147 152 435
199 908 904 905
200 326 323 331
201 1196 1147 1194
202 1056 1026 1058
203 1100 1096 1099
204 372 371 367
205 448 382 412
206 993 941 938
207 753 896 884
208 1026 1029 1027
209 615 665 666
210 628 687 626
211 1094 1091 1095
212 1018 1022 1019
213 1022 1013 1019
214 1028 1029 1026
215 950 941 940
216 1002 1004 1003
217 716 1158 715
218 166 164 1221
219 667 1217 162
220 806 801 807
221 715 1173 714
222 647 649 653
223 519 518 511
224 1152 1167 1156
225 1001 941 950
226 1001 999 950
227 343 344 428
228 527 543 502
229 490 498 499
230 670 1169 683
231 712 1071 713
232 1207 1204 1171
233 1195 1193 181
234 777 795 789
235 777 785 789
236 1021 1018 1022
237 1198 1200 185
238 833 837 836
239 833 837 834
240 170 167 168
241 1192 1191 1193
242 1156 1157 1167
243 332 328 446
244 706 705 505
245 42 40 43
246 877 921 906
247 877 921 907
248 663 661 662
249 868 873 871
250 157 156 60
251 60 28 156
252 1223 1220 1203
253 432 431 460
254 898 892 899
255 856 853 855
256 756 681 755
257 617 623 619
258 814 815 813
259 758 757 760
260 342 340 360
261 642 618 640
262 630 633 635
263 768 734 910
264 668 667 1217
265 154 167 168
266 742 749 746
267 648 654 655
268 648 655 656
269 1185 1168 1105
270 1160 716 1159
271 716 1159 1158
272 1111 1112 1079
273 1170 700 1165
274 1085 1083 708
275 427 343 428
276 686 687 628
277 644 643 645
278 885 754 882
279 1211 702 714
280 359 356 368
281 489 498 490
282 311 316 320
283 444 443 446
284 756 1165 764
285 339 340 342
286 339 342 338
287 728 365 729
288 187 165 189
289 381 388 380
290 521 526 525
291 469 486 468
292 337 334 422
293 458 440 444
294 436 440 458
295 324 430 322
296 16 39 9
297 427 340 343
298 384 383 406
299 379 380 378
300 143 145 142
301 382 385 448
302 441 437 442
303 328 332 331
304 328 331 323
305 436 439 435
306 439 435 438
307 341 337 425
308 252 256 255
309 426 433 431
310 346 432 433
311 423 421 425
312 446 445 444
313 341 429 339
314 487 488 346
315 341 339 338
316 441 442 323
317 260 258 257
318 272 278 277
319 278 274 277
320 458 459 451
321 444 440 439
322 447 333 432
323 328 323 442
324 506 483 486
325 312 308 313
326 308 314 313
327 325 326 331
328 84 92 90
329 84 92 86
330 322 441 323
331 432 333 347
332 373 324 321
333 435 438 434
334 446 328 443
335 328 443 442
336 326 322 323
337 324 322 326
338 441 454 437
339 446 333 447
340 445 460 458
341 332 333 446
342 427 392 389
343 447 445 446
344 386 387 383
345 444 439 443
346 439 438 443
347 443 442 438
348 436 439 440
349 458 451 436
350 391 423 385
351 429 425 423
352 460 459 458
353 451 459 452
354 406 383 377
355 429 391 392
356 427 340 392
357 423 429 391
358 430 456 428
359 448 421 423
360 389 427 428
361 457 456 453
362 389 428 456
363 541 535 532
364 531 535 532
365 390 388 391
366 390 387 389
367 390 387 388
368 386 389 387
369 441 322 457
370 430 457 322
371 441 457 454
372 432 460 445
373 454 457 453
374 453 383 386
375 445 447 432
376 338 354 342
377 750 767 762
378 360 357 358
379 503 1205 504
380 340 339 392
381 429 339 392
382 728 364 696
383 55 46 43
384 389 453 386
385 387 388 381
386 387 381 383
387 363 503 504
388 360 361 358
389 456 430 457
390 337 422 425
391 1189 1216 1175
392 1217 1218 668
393 460 459 455
394 202 206 222
395 421 425 422
396 1219 668 1218
397 405 402 398
398 428 344 430
399 423 448 385
400 146 147 148
401 456 453 389
402 388 385 391
403 384 383 453
404 406 377 19
405 377 18 19
406 125 61 124
407 12 9 8
408 115 122 151
409 148 122 151
410 117 119 118
411 380 385 382
412 37 4 36
413 129 128 124
414 113 115 145
415 151 115 145
416 421 408 420
417 448 408 421
418 144 384 406
419 147 436 149
420 669 668 1219
421 120 70 118
422 143 434 449
423 113 145 142
424 74 73 70
425 449 141 143
426 26 412 25
427 548 558 585
428 401 413 414
429 380 381 378
430 381 377 378
431 125 126 62
432 450 141 449
433 383 377 381
434 464 471 465
435 108 107 103
436 294 297 296
437 73 95 77
438 246 248 247
439 246 245 247
440 225 250 228
441 225 250 237
442 138 406 144
443 78 74 81
444 78 74 73
445 75 303 304
446 986 983 985
447 611 614 590
448 611 590 589
449 560 569 553
450 266 82 78
451 71 75 76
452 72 71 76
453 81 80 76
454 81 80 74
455 72 76 80
456 115 116 122
457 115 116 114
458 114 69 116
459 149 119 139
460 72 69 116
461 122 116 123
462 122 123 121
463 72 116 123
464 80 72 123
465 80 120 123
466 114 69 109
467 111 134 136
468 134 136 133
469 133 131 127
470 121 146 118
471 123 121 120
472 121 118 120
473 25 382 379
474 454 449 437
475 437 449 434
476 382 380 379
477 152 434 143
478 98 105 104
479 98 105 106
480 449 454 450
481 147 151 152
482 451 149 436
483 453 450 454
484 384 450 453
485 150 149 452
486 144 141 450
487 450 384 144
488 64 127 65
489 22 25 23
490 19 406 138
491 412 382 25
492 22 379 20
493 142 112 113
494 20 379 378
495 20 18 378
496 378 18 377
497 129 141 128
498 97 95 88
499 97 87 88
500 141 129 143
501 142 129 143
502 56 44 52
503 15 9 16
504 8 12 11
505 133 126 134
506 126 125 134
507 112 103 108
508 643 41 40
509 129 130 125
510 129 124 125
511 55 64 57
512 64 65 57
513 130 134 125
514 17 128 138
515 124 128 17
516 144 128 141
517 144 138 128
518 61 125 62
519 11 20 12
520 11 20 18
521 39 9 4
522 23 24 21
523 20 12 22
524 26 23 25
525 26 24 23
526 10 19 14
527 50 48 45
528 23 15 22
529 12 22 15
530 18 19 10
531 32 2 1
532 2 1 3
533 138 17 14
534 13 68 139
535 14 5 10
536 1187 1171 1172
537 636 34 37
538 1192 1193 1194
539 1003 1001 997
540 1003 1001 1002
541 9 8 4
542 252 256 253
543 49 1216 153
544 10 11 7
545 11 7 8
546 105 104 88
547 104 85 88
548 8 3 4
549 7 5 10
550 0 2 5
551 36 4 3
552 675 664 672
553 17 14 6
554 63 6 17
555 15 9 12
556 6 14 5
557 678 682 742
558 54 62 55
559 118 119 146
560 52 56 35
561 0 2 32
562 200 410 199
563 3 1 36
564 37 39 4
565 37 38 39
566 63 56 35
567 37 34 36
568 63 35 6
569 52 35 31
570 5 35 0
571 6 35 5
572 32 35 31
573 0 35 32
574 33 34 632
575 33 632 30
576 62 64 55
577 29 658 629
578 27 52 41
579 636 667 38
580 636 38 37
581 32 29 31
582 32 30 29
583 658 657 27
584 36 33 1
585 32 33 1
586 30 33 32
587 633 616 642
588 632 630 30
589 634 34 632
590 643 657 41
591 637 636 634
592 634 636 34
593 637 668 667
594 637 667 636
595 630 629 30
596 29 30 629
597 1163 676 1161
598 31 27 52
599 29 27 31
600 43 54 55
601 49 659 661
602 38 667 162
603 638 639 641
604 646 650 651
605 650 45 42
606 52 44 41
607 54 44 56
608 65 58 66
609 46 45 48
610 58 53 65
611 650 659 45
612 50 45 47
613 61 62 54
614 40 41 44
615 178 176 159
616 53 50 58
617 1184 1147 1182
618 43 44 54
619 65 57 53
620 124 61 63
621 57 46 53
622 57 46 55
623 48 50 53
624 71 75 96
625 56 61 54
626 63 61 56
627 133 126 127
628 13 68 67
629 66 67 68
630 86 85 101
631 86 84 101
632 644 40 42
633 644 650 42
634 47 45 659
635 131 133 135
636 133 136 135
637 619 616 615
638 644 643 40
639 49 661 1216
640 46 42 45
641 46 42 43
642 47 659 49
643 163 196 16
644 1191 161 1193
645 50 49 51
646 47 49 50
647 50 59 58
648 51 59 50
649 66 59 67
650 58 59 66
651 945 946 1015
652 140 149 139
653 139 140 13
654 66 68 65
655 160 161 171
656 136 103 111
657 590 593 597
658 137 111 130
659 137 111 112
660 130 111 134
661 100 103 99
662 113 108 112
663 114 113 108
664 135 131 98
665 131 98 132
666 132 127 131
667 100 84 101
668 135 99 136
669 103 99 136
670 132 117 106
671 132 117 119
672 112 103 111
673 98 132 106
674 100 103 107
675 71 69 94
676 69 94 109
677 135 98 102
678 135 102 99
679 98 102 104
680 95 110 73
681 70 73 110
682 117 110 70
683 95 77 97
684 409 416 150
685 291 267 273
686 296 282 301
687 99 100 102
688 91 107 83
689 286 232 285
690 100 84 83
691 104 101 85
692 109 91 107
693 107 83 100
694 94 109 91
695 71 96 94
696 26 24 208
697 297 284 283
698 297 284 280
699 281 292 288
700 281 292 290
701 291 289 287
702 94 93 91
703 79 82 81
704 78 82 81
705 89 91 93
706 86 85 87
707 85 87 88
708 298 89 294
709 89 91 83
710 1196 1195 1198
711 75 304 79
712 287 286 289
713 83 90 84
714 83 90 89
715 417 455 416
716 305 287 291
717 302 265 269
718 87 86 293
719 86 92 293
720 233 227 231
721 227 231 226
722 303 301 305
723 294 297 295
724 195 197 199
725 293 306 300
726 93 298 89
727 296 298 301
728 260 217 594
729 283 296 297
730 92 90 295
731 90 294 295
732 89 90 294
733 92 300 293
734 274 277 268
735 290 300 306
736 290 300 281
737 284 225 224
738 284 225 288
739 158 197 195
740 284 285 224
741 282 283 296
742 305 287 301
743 304 268 79
744 244 235 257
745 265 77 97
746 282 286 283
747 156 157 158
748 286 283 285
749 283 285 284
750 300 92 299
751 265 266 77
752 299 281 280
753 299 281 300
754 280 288 284
755 280 288 281
756 291 289 242
757 830 829 797
758 227 224 226
759 13 195 140
760 288 237 225
761 288 237 292
762 242 234 244
763 224 228 226
764 224 228 225
765 217 215 219
766 223 216 229
767 231 216 229
768 575 262 261
769 179 160 211
770 158 195 157
771 204 208 24
772 226 229 231
773 224 285 227
774 285 232 227
775 217 219 235
776 985 986 992
777 232 289 234
778 276 273 243
779 1000 1015 1002
780 236 275 270
781 235 219 233
782 232 235 234
783 233 227 232
784 233 235 232
785 216 197 223
786 960 963 479
787 215 608 588
788 174 179 160
789 257 235 260
790 155 28 153
791 198 21 196
792 230 254 251
793 233 219 218
794 567 566 562
795 180 215 212
796 235 260 217
797 612 607 610
798 949 950 948
799 949 950 940
800 218 231 216
801 218 231 233
802 589 609 611
803 219 215 212
804 216 218 212
805 198 204 24
806 216 212 197
807 947 931 945
808 179 211 213
809 200 254 255
810 200 254 223
811 214 213 211
812 409 199 410
813 219 212 218
814 39 163 16
815 13 67 157
816 158 197 178
817 228 251 230
818 228 251 250
819 157 195 13
820 226 230 229
821 226 230 228
822 196 21 16
823 202 222 192
824 222 192 194
825 195 199 140
826 24 21 198
827 1222 1221 1225
828 1074 1061 1060
829 1149 1187 1153
830 988 984 986
831 988 990 986
832 205 202 203
833 1123 1132 1133
834 213 214 220
835 214 221 220
836 982 987 947
837 982 929 947
838 1000 1001 1002
839 188 189 187
840 178 197 212
841 186 188 184
842 188 187 184
843 606 172 1122
844 175 1124 602
845 67 60 59
846 157 67 60
847 158 159 178
848 156 159 158
849 925 924 937
850 1120 1124 1121
851 154 155 153
852 1123 1122 1132
853 154 168 155
854 1137 1131 1138
855 1131 1138 1130
856 1189 154 1216
857 603 609 611
858 1193 1195 1194
859 1175 1177 1178
860 153 1216 154
861 187 183 185
862 927 1229 924
863 49 28 153
864 51 28 49
865 1191 171 161
866 1190 167 1189
867 154 1189 167
868 159 155 168
869 156 155 159
870 193 190 221
871 661 663 1216
872 1141 1135 1136
873 1191 1123 1122
874 1192 1191 1123
875 997 1005 998
876 1120 169 1190
877 1220 1201 1199
878 1054 1055 1020
879 1058 1055 1020
880 1190 169 167
881 167 169 170
882 1185 1183 1136
883 186 214 190
884 611 610 614
885 612 610 614
886 590 614 593
887 201 192 189
888 189 201 165
889 938 993 927
890 993 928 927
891 1127 1130 1128
892 1127 1130 1129
893 1199 1200 1197
894 640 620 618
895 1122 1132 606
896 183 182 184
897 183 187 184
898 181 1198 1195
899 1124 1121 1125
900 1121 1125 1129
901 1133 1128 1131
902 1130 1128 1131
903 1133 1128 1132
904 928 927 923
905 173 613 607
906 170 176 168
907 608 603 177
908 159 168 176
909 1125 1127 1126
910 605 606 1132
911 1125 602 1124
912 1126 602 1125
913 1132 1128 605
914 1128 1126 605
915 1127 1126 1128
916 259 263 249
917 241 263 249
918 165 187 185
919 592 612 591
920 1124 175 169
921 1126 604 602
922 1126 604 605
923 183 182 181
924 179 173 613
925 612 593 614
926 1212 1054 1210
927 176 180 178
928 212 178 180
929 612 607 613
930 174 173 179
931 164 185 1200
932 610 604 611
933 605 604 610
934 605 607 610
935 603 608 609
936 594 588 215
937 418 410 417
938 182 161 160
939 592 613 612
940 1200 1199 1201
941 611 604 603
942 171 174 173
943 171 173 172
944 180 177 176
945 180 608 177
946 177 170 176
947 175 170 177
948 605 606 607
949 175 603 602
950 172 607 173
951 606 607 172
952 599 591 598
953 258 262 261
954 182 160 211
955 182 211 186
956 182 181 161
957 927 938 924
958 1001 997 995
959 995 941 1001
960 1226 1223 1049
961 164 1200 1201
962 1228 1227 1230
963 1229 1227 1230
964 925 926 924
965 1001 1000 999
966 165 185 164
967 625 620 622
968 1115 1107 1108
969 1206 1053 1049
970 1217 1205 162
971 915 740 922
972 736 740 922
973 1220 1222 1201
974 1205 1217 1218
975 1223 1222 1220
976 1010 1009 1014
977 1010 1012 1014
978 1015 1018 1021
979 942 946 944
980 205 1227 1228
981 422 476 334
982 1052 928 923
983 1008 1053 1006
984 999 948 950
985 949 948 946
986 1007 1006 1008
987 960 411 955
988 594 261 260
989 249 248 247
990 249 248 239
991 1005 997 1003
992 1005 1004 1003
993 194 222 397
994 1226 1051 1049
995 946 949 944
996 949 939 944
997 940 939 949
998 1016 1004 1005
999 1224 1229 1227
1000 939 944 943
1001 944 943 942
1002 945 946 942
1003 936 1015 989
1004 945 1015 931
1005 1016 1015 1004
1006 984 983 986
1007 943 925 930
1008 943 929 930
1009 942 929 943
1010 942 947 929
1011 942 947 945
1012 993 994 995
1013 1215 1054 1012
1014 1214 1215 1010
1015 1214 1010 1008
1016 954 956 959
1017 1039 1046 980
1018 1044 1046 980
1019 925 930 935
1020 1222 1201 1221
1021 939 937 940
1022 1206 1049 1223
1023 967 973 972
1024 467 484 462
1025 1222 1226 1225
1026 941 938 940
1027 1015 999 948
1028 946 1015 948
1029 1223 1203 1206
1030 938 940 937
1031 925 943 937
1032 1009 1007 998
1033 1002 1015 1004
1034 994 1006 996
1035 1045 1035 1038
1036 994 1052 1006
1037 993 928 994
1038 1051 1226 923
1039 1206 1214 1207
1040 1214 1215 1207
1041 1225 1229 1231
1042 1225 1226 1231
1043 1214 1053 1008
1044 1229 1230 924
1045 1007 1010 1008
1046 1009 1010 1007
1047 1064 1035 1036
1048 1061 1060 973
1049 1012 1054 1020
1050 726 508 725
1051 1069 1066 1063
1052 1033 1032 1030
1053 1076 1073 1067
1054 933 981 982
1055 963 964 480
1056 991 990 968
1057 1205 196 163
1058 930 934 933
1059 1214 1206 1053
1060 1206 1203 1207
1061 480 964 481
1062 210 955 411
1063 420 408 1205
1064 924 1230 926
1065 205 1228 207
1066 589 595 596
1067 207 206 205
1068 1051 1052 1006
1069 1051 1053 1006
1070 202 192 201
1071 274 267 268
1072 1222 1223 1226
1073 932 935 953
1074 198 196 1205
1075 926 935 932
1076 926 932 1230
1077 415 411 960
1078 996 998 997
1079 996 998 1007
1080 935 953 934
1081 593 612 591
1082 205 203 1227
1083 531 533 535
1084 1229 1225 1224
1085 165 164 166
1086 1225 1221 166
1087 162 1205 163
1088 203 166 1224
1089 548 585 584
1090 250 237 240
1091 470 471 464
1092 1205 204 198
1093 206 210 209
1094 1224 1227 203
1095 951 207 1228
1096 476 420 1205
1097 981 984 982
1098 932 951 953
1099 1228 932 1230
1100 923 1226 1231
1101 203 201 166
1102 465 404 461
1103 166 201 165
1104 223 197 200
1105 201 203 202
1106 417 419 418
1107 408 412 407
1108 588 589 595
1109 594 595 588
1110 592 599 220
1111 609 589 588
1112 608 588 609
1113 189 191 188
1114 190 191 188
1115 193 191 190
1116 259 262 258
1117 194 193 191
1118 194 191 192
1119 192 191 189
1120 304 267 305
1121 590 589 596
1122 592 220 213
1123 599 592 591
1124 613 213 179
1125 592 213 613
1126 608 215 180
1127 551 405 463
1128 594 217 215
1129 586 579 587
1130 596 597 590
1131 591 593 600
1132 593 597 600
1133 591 600 598
1134 586 574 580
1135 574 601 599
1136 244 245 257
1137 79 76 75
1138 75 303 96
1139 76 79 81
1140 77 266 78
1141 253 240 252
1142 290 306 270
1143 79 268 82
1144 567 562 554
1145 415 479 462
1146 82 266 277
1147 82 268 277
1148 97 302 265
1149 265 269 272
1150 271 270 269
1151 272 277 266
1152 276 279 278
1153 271 279 278
1154 243 244 245
1155 268 304 267
1156 272 269 271
1157 269 306 270
1158 275 279 248
1159 246 279 248
1160 303 304 305
1161 575 261 594
1162 249 239 241
1163 239 238 241
1164 278 272 271
1165 305 291 267
1166 568 567 566
1167 460 455 431
1168 465 471 466
1169 465 461 466
1170 273 276 274
1171 278 276 274
1172 575 393 262
1173 274 267 273
1174 221 395 193
1175 245 257 258
1176 246 245 243
1177 259 247 258
1178 259 247 249
1179 417 416 409
1180 237 292 238
1181 239 236 275
1182 239 275 248
1183 291 242 273
1184 242 243 244
1185 236 290 292
1186 236 270 290
1187 275 271 279
1188 275 271 270
1189 279 246 276
1190 246 243 276
1191 273 242 243
1192 239 236 238
1193 259 264 263
1194 264 263 256
1195 236 292 238
1196 150 416 452
1197 245 258 247
1198 238 240 241
1199 237 240 238
1200 424 431 455
1201 240 241 253
1202 241 253 263
1203 264 262 393
1204 397 222 209
1205 253 256 263
1206 264 262 259
1207 553 547 552
1208 250 240 252
1209 261 260 258
1210 581 573 398
1211 417 419 424
1212 251 250 252
1213 255 251 252
1214 419 426 550
1215 346 433 487
1216 393 256 410
1217 462 461 467
1218 393 264 256
1219 26 208 407
1220 412 26 407
1221 547 582 583
1222 424 455 417
1223 418 393 410
1224 140 409 199
1225 150 409 140
1226 559 585 587
1227 559 587 549
1228 410 256 255
1229 396 399 395
1230 414 415 462
1231 584 577 576
1232 585 584 577
1233 573 394 220
1234 220 394 221
1235 210 411 209
1236 1060 965 973
1237 452 455 459
1238 416 455 452
1239 424 419 426
1240 551 545 405
1241 347 346 432
1242 424 426 431
1243 487 433 426
1244 476 477 334
1245 1069 1063 709
1246 463 470 556
1247 463 402 405
1248 562 544 549
1249 551 544 554
1250 421 420 422
1251 551 567 556
1252 992 990 977
1253 968 990 977
1254 581 545 405
1255 555 550 487
1256 527 528 523
1257 551 463 556
1258 545 551 544
1259 557 571 569
1260 487 488 555
1261 475 470 525
1262 525 556 470
1263 555 488 529
1264 472 475 471
1265 554 551 567
1266 561 565 563
1267 565 562 563
1268 577 578 585
1269 587 578 585
1270 466 461 467
1271 495 532 496
1272 532 536 496
1273 535 540 533
1274 535 540 538
1275 473 474 472
1276 473 474 469
1277 473 468 467
1278 473 469 468
1279 550 546 419
1280 566 562 565
1281 419 546 418
1282 481 1075 482
1283 572 543 542
1284 568 525 556
1285 471 466 472
1286 800 803 846
1287 799 803 846
1288 561 570 560
1289 570 560 569
1290 470 471 475
1291 568 566 539
1292 570 569 572
1293 537 564 570
1294 564 538 565
1295 539 565 566
1296 570 572 537
1297 564 537 538
1298 393 582 575
1299 557 555 552
1300 398 399 394
1301 565 564 561
1302 481 485 480
1303 546 552 550
1304 1077 1073 1075
1305 970 969 1015
1306 414 462 461
1307 557 553 569
1308 975 972 973
1309 554 544 562
1310 560 558 548
1311 769 772 770
1312 580 549 586
1313 555 552 550
1314 413 415 414
1315 477 476 1205
1316 980 979 970
1317 980 979 975
1318 478 477 1205
1319 559 549 562
1320 418 582 546
1321 524 494 519
1322 501 497 498
1323 479 963 480
1324 1212 1059 1050
1325 960 961 963
1326 207 952 951
1327 480 479 484
1328 548 547 553
1329 548 583 547
1330 481 485 482
1331 1050 1213 1063
1332 1072 1075 481
1333 401 414 404
1334 402 399 398
1335 464 402 463
1336 562 559 563
1337 579 587 578
1338 418 393 582
1339 402 400 399
1340 400 402 403
1341 400 404 403
1342 559 563 558
1343 396 401 397
1344 404 400 401
1345 560 558 561
1346 563 558 561
1347 553 560 548
1348 546 547 582
1349 552 547 546
1350 411 413 415
1351 573 574 580
1352 193 395 396
1353 573 580 581
1354 982 984 987
1355 544 549 580
1356 484 462 479
1357 545 580 544
1358 581 580 545
1359 583 576 575
1360 583 575 582
1361 977 974 978
1362 977 968 978
1363 399 395 394
1364 575 576 594
1365 595 594 576
1366 220 574 599
1367 220 573 574
1368 194 193 396
1369 194 397 396
1370 1075 1062 1072
1371 222 209 206
1372 579 601 586
1373 394 395 221
1374 598 599 601
1375 600 597 579
1376 600 601 579
1377 600 598 601
1378 586 601 574
1379 577 596 595
1380 578 596 577
1381 577 595 576
1382 578 597 596
1383 579 597 578
1384 968 1015 969
1385 955 210 952
1386 410 255 200
1387 408 407 1205
1388 1205 208 204
1389 992 972 974
1390 960 479 415
1391 962 966 964
1392 1074 1043 1067
1393 1015 991 989
1394 1072 481 964
1395 523 528 524
1396 1077 482 1075
1397 964 963 962
1398 963 962 961
1399 954 953 952
1400 964 966 1072
1401 1066 1068 1064
1402 1066 1064 1065
1403 1036 1067 1043
1404 641 620 640
1405 955 961 960
1406 1015 1040 1039
1407 828 819 827
1408 971 970 1015
1409 953 956 934
1410 1064 1068 1067
1411 1073 1074 1067
1412 1076 1070 1068
1413 1070 1066 1068
1414 1077 1076 1073
1415 1076 1067 1068
1416 966 1062 1072
1417 954 955 959
1418 955 961 959
1419 953 951 952
1420 1136 1181 1135
1421 967 973 965
1422 534 525 526
1423 962 961 958
1424 961 958 957
1425 1058 1059 1056
1426 1059 1056 1057
1427 1015 1040 1041
1428 1061 1074 1043
1429 1056 1057 1065
1430 1066 1057 1065
1431 1065 1035 1064
1432 1070 1076 1077
1433 975 979 974
1434 1064 1036 1067
1435 1035 1024 1065
1436 1032 1015 1030
1437 1015 1030 1031
1438 1026 1028 1024
1439 966 967 962
1440 967 958 962
1441 954 956 953
1442 1074 1073 1060
1443 1062 1060 1073
1444 957 983 958
1445 985 972 958
1446 972 958 967
1447 975 974 972
1448 965 967 966
1449 956 933 981
1450 956 981 957
1451 983 981 957
1452 983 984 981
1453 1015 1039 971
1454 989 990 991
1455 984 987 988
1456 987 988 989
1457 972 992 985
1458 971 970 980
1459 980 975 976
1460 975 973 976
1461 976 1061 1043
1462 976 973 1061
1463 1043 1044 1036
1464 976 1043 1044
1465 1015 991 968
1466 1024 1056 1065
1467 1024 1056 1026
1468 980 971 1039
1469 980 976 1044
1470 987 936 989
1471 992 990 986
1472 970 979 969
1473 974 979 978
1474 979 969 978
1475 1036 1035 1045
1476 1044 1036 1045
1477 493 1089 495
1478 1046 1045 1047
1479 1046 1047 1039
1480 1047 1040 1039
1481 1046 1044 1045
1482 1024 1028 1037
1483 488 530 528
1484 1045 1047 1038
1485 1048 1047 1038
1486 1024 1037 1035
1487 1038 1042 1037
1488 1032 1041 1042
1489 1038 1037 1035
1490 1071 483 1070
1491 536 501 542
1492 998 1017 1005
1493 1017 1005 1016
1494 1037 1033 1028
1495 1037 1042 1033
1496 1042 1033 1032
1497 1070 483 1077
1498 1099 1100 1103
1499 1077 483 482
1500 1069 712 709
1501 515 521 526
1502 1030 1031 1034
1503 472 517 475
1504 508 726 509
1505 726 509 724
1506 736 734 699
1507 710 722 713
1508 1079 1083 1078
1509 529 528 527
1510 1070 1071 1069
1511 1070 1066 1069
1512 1188 670 669
1513 726 724 721
1514 1101 1100 1104
1515 1100 1103 1104
1516 490 499 492
1517 1172 1171 1173
1518 1099 1098 1095
1519 1099 1095 1096
1520 1097 1100 1096
1521 1103 1104 496
1522 1103 496 1102
1523 528 524 530
1524 1087 490 492
1525 1088 1101 1082
1526 490 1087 1088
1527 1081 1088 1082
1528 503 704 1205
1529 1011 1013 1019
1530 1086 1102 1098
1531 876 877 869
1532 876 877 853
1533 711 708 1085
1534 513 508 514
1535 525 475 521
1536 1102 1089 1086
1537 526 522 515
1538 722 725 713
1539 811 791 787
1540 811 788 787
1541 1097 1096 1093
1542 1104 489 1101
1543 489 1088 1101
1544 1099 1102 1098
1545 1103 1102 1099
1546 827 826 818
1547 1102 495 1089
1548 489 1088 490
1549 726 721 723
1550 726 725 723
1551 722 723 725
1552 724 708 721
1553 485 486 482
1554 496 495 1102
1555 571 529 527
1556 472 474 517
1557 724 509 510
1558 468 486 485
1559 483 486 482
1560 492 494 499
1561 497 489 498
1562 496 1104 497
1563 1104 497 489
1564 1089 1090 493
1565 488 528 529
1566 502 494 523
1567 345 530 346
1568 533 531 534
1569 510 514 509
1570 514 509 508
1571 801 798 806
1572 1090 1085 711
1573 502 527 523
1574 534 533 568
1575 346 530 488
1576 501 536 497
1577 496 536 497
1578 495 531 532
1579 541 536 542
1580 541 536 532
1581 571 543 572
1582 539 533 540
1583 819 808 810
1584 819 828 810
1585 499 502 494
1586 310 314 315
1587 531 495 500
1588 500 495 493
1589 501 502 498
1590 498 499 502
1591 513 469 474
1592 568 525 534
1593 568 533 539
1594 514 513 474
1595 514 517 474
1596 516 517 514
1597 736 739 740
1598 518 530 524
1599 515 510 512
1600 527 571 543
1601 534 531 500
1602 500 526 534
1603 535 538 541
1604 542 541 537
1605 542 537 572
1606 541 538 537
1607 501 543 502
1608 542 501 543
1609 802 804 849
1610 807 804 805
1611 517 521 475
1612 486 469 506
1613 506 469 513
1614 841 849 848
1615 526 522 500
1616 493 522 500
1617 520 493 522
1618 506 513 507
1619 516 510 515
1620 517 515 521
1621 517 516 515
1622 513 508 507
1623 1090 512 711
1624 825 861 828
1625 861 828 809
1626 738 308 309
1627 492 1087 707
1628 688 691 766
1629 724 708 711
1630 518 519 524
1631 511 519 505
1632 510 711 512
1633 493 1090 520
1634 492 707 491
1635 802 805 800
1636 805 800 803
1637 687 695 694
1638 507 725 713
1639 718 715 714
1640 1089 1085 1090
1641 876 874 870
1642 522 512 515
1643 520 512 522
1644 1090 512 520
1645 494 491 519
1646 494 492 491
1647 510 724 711
1648 507 508 725
1649 693 694 690
1650 687 694 690
1651 839 862 845
1652 839 847 845
1653 491 505 519
1654 705 505 491
1655 710 712 713
1656 756 764 763
1657 1176 1161 664
1658 346 347 345
1659 824 823 816
1660 878 778 880
1661 778 793 829
1662 907 853 856
1663 907 853 877
1664 847 850 800
1665 791 790 823
1666 790 823 817
1667 860 843 859
1668 1097 1093 1118
1669 709 710 712
1670 778 780 793
1671 843 798 860
1672 866 891 897
1673 816 823 820
1674 817 823 820
1675 789 785 788
1676 770 772 786
1677 909 865 908
1678 909 865 856
1679 858 857 841
1680 282 286 287
1681 854 862 855
1682 909 856 907
1683 876 853 854
1684 861 865 908
1685 861 905 908
1686 797 860 798
1687 803 805 808
1688 803 808 810
1689 808 812 821
1690 808 821 819
1691 801 807 804
1692 833 830 836
1693 836 830 806
1694 918 917 914
1695 782 783 779
1696 782 783 776
1697 799 864 809
1698 799 846 863
1699 799 864 863
1700 797 798 830
1701 798 806 830
1702 681 1163 756
1703 777 775 785
1704 774 775 785
1705 827 819 818
1706 819 818 821
1707 847 846 845
1708 849 801 843
1709 800 850 802
1710 849 850 802
1711 863 845 846
1712 684 685 759
1713 332 329 327
1714 864 809 865
1715 861 809 865
1716 692 697 698
1717 896 911 767
1718 901 903 869
1719 824 822 811
1720 704 503 697
1721 917 916 914
1722 746 762 727
1723 809 799 810
1724 799 810 803
1725 1158 1154 1172
1726 809 828 810
1727 808 812 805
1728 812 807 805
1729 836 813 807
1730 812 813 807
1731 833 829 830
1732 831 829 793
1733 794 795 796
1734 833 834 831
1735 836 806 807
1736 332 329 333
1737 1186 1162 1178
1738 893 892 898
1739 717 1160 1157
1740 795 780 794
1741 814 821 820
1742 821 818 820
1743 816 815 814
1744 816 820 814
1745 832 831 793
1746 1014 1023 1025
1747 860 878 797
1748 1094 1095 1098
1749 859 841 843
1750 783 779 780
1751 796 792 789
1752 792 788 789
1753 795 789 796
1754 641 683 620
1755 683 670 641
1756 835 838 796
1757 832 793 794
1758 1084 1083 1079
1759 863 862 855
1760 846 847 800
1761 786 784 770
1762 835 796 794
1763 834 838 837
1764 834 838 835
1765 1194 1182 1192
1766 818 817 826
1767 820 817 818
1768 889 886 890
1769 889 886 888
1770 791 790 786
1771 791 787 786
1772 823 791 824
1773 791 811 824
1774 717 1157 1083
1775 1141 1138 1137
1776 785 774 788
1777 774 788 787
1778 698 351 348
1779 811 792 788
1780 1180 1179 1145
1781 774 772 787
1782 772 787 786
1783 838 796 792
1784 837 822 815
1785 837 822 838
1786 822 838 792
1787 849 848 850
1788 1109 1116 1108
1789 879 844 880
1790 1098 1084 1086
1791 836 815 813
1792 836 815 837
1793 815 824 816
1794 815 824 822
1795 774 772 773
1796 774 775 773
1797 841 849 843
1798 827 852 826
1799 663 664 662
1800 772 773 771
1801 772 771 769
1802 1031 1021 1015
1803 794 835 832
1804 778 829 878
1805 839 840 847
1806 850 840 847
1807 1084 1079 1091
1808 845 863 862
1809 841 842 848
1810 720 717 1160
1811 842 879 844
1812 771 769 873
1813 706 734 764
1814 850 851 848
1815 842 851 848
1816 859 857 841
1817 778 880 779
1818 777 783 776
1819 777 776 775
1820 1174 1169 1205
1821 1158 1172 1173
1822 851 850 781
1823 850 781 840
1824 879 878 860
1825 1082 1101 1097
1826 794 793 780
1827 782 781 776
1828 797 878 829
1829 840 775 781
1830 840 775 773
1831 776 781 775
1832 875 873 874
1833 869 906 903
1834 869 906 877
1835 1101 1097 1100
1836 1087 1088 1081
1837 875 873 771
1838 875 771 839
1839 840 773 839
1840 773 771 839
1841 723 720 721
1842 719 722 723
1843 719 720 723
1844 719 718 715
1845 1112 1146 1105
1846 708 717 721
1847 1164 1163 1165
1848 702 710 718
1849 721 717 720
1850 718 722 719
1851 716 720 1160
1852 1091 1092 1095
1853 1096 1092 1095
1854 1168 1166 1185
1855 1119 1082 1118
1856 1094 1098 1084
1857 702 718 714
1858 1012 1025 1014
1859 759 766 688
1860 1086 1085 1083
1861 1083 1157 1078
1862 1092 1113 1093
1863 708 1083 717
1864 1207 1215 1208
1865 1215 1210 1208
1866 619 615 677
1867 1093 1096 1092
1868 1082 1118 1097
1869 1109 1145 1186
1870 1212 1210 1211
1871 1084 1091 1094
1872 1081 1082 1119
1873 1117 1119 1081
1874 1117 1116 1119
1875 1209 714 1173
1876 1009 1013 1014
1877 719 720 716
1878 719 715 716
1879 1054 1215 1210
1880 1050 1212 1213
1881 1026 1027 1058
1882 1208 1171 1207
1883 1086 1083 1084
1884 1016 1018 1015
1885 1209 1211 1210
1886 1019 1016 1017
1887 1019 1017 1011
1888 1208 1210 1171
1889 1141 1146 1142
1890 956 957 959
1891 961 957 959
1892 1020 1025 1012
1893 1027 1029 1025
1894 1051 1053 1049
1895 1057 1066 1063
1896 1057 1050 1063
1897 1057 1050 1059
1898 1229 927 1231
1899 927 923 1231
1900 1062 1075 1073
1901 1020 1027 1058
1902 1027 1020 1025
1903 1028 1033 1034
1904 1033 1034 1030
1905 1029 1034 1028
1906 1023 1022 1034
1907 1022 1021 1034
1908 1034 1031 1021
1909 1034 1029 1023
1910 998 1011 1009
1911 1113 1114 1093
1912 1118 1114 1093
1913 663 1175 1216
1914 624 623 619
1915 1011 1009 1013
1916 1023 1013 1022
1917 1014 1013 1023
1918 1140 1129 1139
1919 1159 1154 1158
1920 1192 1182 1181
1921 683 620 625
1922 1220 1202 1203
1923 1106 1143 1107
1924 1108 1107 1143
1925 1152 1148 1155
1926 784 817 790
1927 784 817 826
1928 1186 1145 1180
1929 1091 1112 1092
1930 1114 1106 1113
1931 1106 1112 1113
1932 1105 1111 1112
1933 1134 1120 1121
1934 1180 1177 1179
1935 1119 1116 1115
1936 1139 1142 1143
1937 1139 1140 1143
1938 1177 1189 1190
1939 1154 1151 1153
1940 1105 1168 1111
1941 1136 1141 1146
1942 1091 1079 1112
1943 1150 1196 1147
1944 1183 1184 1181
1945 1110 1116 1109
1946 1162 1164 1186
1947 1079 1078 1111
1948 1197 1149 1199
1949 1113 1092 1112
1950 1160 1156 1159
1951 1078 1168 1111
1952 1146 1106 1112
1953 1117 1110 1116
1954 1167 1166 1168
1955 1119 1115 1118
1956 1114 1107 1115
1957 1114 1107 1106
1958 1149 1197 1150
1959 1197 1150 1196
1960 1163 1161 1162
1961 1152 1166 1167
1962 1114 1115 1118
1963 1149 1153 1150
1964 1139 1142 1138
1965 1142 1138 1141
1966 1133 1137 1123
1967 1105 1185 1136
1968 1189 1177 1175
1969 1105 1136 1146
1970 1190 1179 1177
1971 1131 1137 1133
1972 1155 1154 1151
1973 1155 1151 1148
1974 1109 1108 1145
1975 1202 1199 1149
1976 1108 1143 1144
1977 1115 1108 1116
1978 1192 1181 1135
1979 1134 1144 1140
1980 1137 1135 1123
1981 1144 1140 1143
1982 1153 1151 1150
1983 1151 1147 1150
1984 1147 1184 1148
1985 1183 1181 1136
1986 1137 1141 1135
1987 1180 1178 1177
1988 1192 1135 1123
1989 1179 1134 1145
1990 1134 1179 1120
1991 1121 1129 1140
1992 1139 1129 1130
1993 1130 1138 1139
1994 689 692 693
1995 1153 1187 1172
1996 1160 1157 1156
1997 652 648 651
1998 1186 1178 1180
1999 1149 1202 1187
2000 1184 1182 1181
2001 1120 1179 1190
2002 893 898 902
2003 893 895 902
2004 1152 1184 1148
2005 1158 1173 715
2006 1154 1153 1172
2007 737 729 730
2008 1164 1165 1170
2009 664 675 676
2010 624 619 677
2011 1080 700 1170
2012 769 871 873
2013 759 684 1174
2014 866 900 891
2015 1152 1166 1184
2016 622 618 620
2017 1162 1176 1178
2018 1188 1169 670
2019 676 664 1161
2020 1164 1163 1162
2021 1162 1161 1176
2022 751 882 754
2023 751 882 881
2024 1183 1166 1184
2025 1183 1185 1166
2026 1081 1080 1087
2027 707 1087 1080
2028 710 722 718
2029 1168 1167 1078
2030 1117 1170 1110
2031 1110 1170 1164
2032 707 700 705
2033 1080 700 707
2034 903 913 899
2035 903 913 906
2036 888 892 887
2037 779 780 778
2038 825 852 827
2039 699 734 706
2040 784 852 867
2041 676 675 680
2042 854 875 874
2043 844 779 880
2044 876 874 854
2045 841 842 858
2046 859 858 860
2047 879 858 842
2048 854 875 862
2049 879 860 858
2050 851 782 844
2051 851 782 781
2052 853 855 854
2053 858 859 857
2054 828 825 827
2055 834 832 835
2056 869 870 901
2057 870 868 901
2058 784 826 852
2059 870 873 868
2060 880 879 878
2061 899 910 892
2062 768 910 887
2063 922 918 920
2064 867 894 900
2065 867 894 872
2066 898 903 901
2067 871 770 769
2068 871 770 872
2069 872 784 770
2070 872 784 867
2071 871 895 872
2072 894 895 872
2073 902 898 901
2074 868 902 901
2075 889 894 895
2076 889 895 893
2077 902 871 895
2078 825 861 905
2079 825 866 905
2080 825 852 866
2081 876 870 869
2082 867 852 900
2083 852 866 900
2084 885 882 886
2085 882 886 883
2086 899 903 898
2087 897 904 896
2088 763 885 887
2089 685 627 625
2090 881 752 753
2091 881 752 751
2092 885 763 754
2093 768 887 763
2094 881 884 753
2095 764 1165 700
2096 766 701 703
2097 761 728 760
2098 622 627 626
2099 881 884 883
2100 881 883 882
2101 910 892 887
2102 887 885 888
2103 885 888 886
2104 649 647 645
2105 658 665 657
2106 900 894 890
2107 894 890 889
2108 886 883 890
2109 883 890 891
2110 897 884 891
2111 891 884 883
2112 900 890 891
2113 888 893 892
2114 888 893 889
2115 623 628 621
2116 639 669 670
2117 676 680 681
2118 637 639 669
2119 748 755 680
2120 748 755 754
2121 755 681 680
2122 910 899 912
2123 756 1163 1165
2124 674 680 679
2125 678 677 682
2126 625 685 684
2127 748 751 747
2128 748 679 747
2129 621 618 622
2130 748 679 680
2131 679 744 747
2132 617 618 621
2133 617 621 623
2134 649 654 653
2135 635 632 638
2136 635 632 630
2137 644 650 646
2138 644 645 646
2139 647 657 665
2140 674 652 671
2141 643 657 647
2142 649 648 646
2143 651 648 646
2144 632 638 634
2145 646 645 649
2146 643 647 645
2147 678 742 673
2148 651 660 671
2149 658 631 665
2150 752 750 745
2151 631 665 615
2152 648 649 654
2153 658 629 631
2154 652 651 671
2155 638 641 640
2156 651 659 660
2157 651 650 659
2158 660 659 662
2159 662 659 661
2160 648 652 656
2161 1173 1171 1209
2162 635 640 638
2163 615 677 666
2164 662 672 671
2165 647 666 665
2166 653 666 647
2167 660 662 671
2168 642 635 640
2169 642 635 633
2170 639 670 641
2171 616 631 615
2172 633 631 616
2173 629 631 633
2174 633 630 629
2175 634 639 637
2176 638 634 639
2177 662 664 672
2178 616 619 617
2179 1211 714 1209
2180 673 742 654
2181 1174 684 1169
2182 678 666 677
2183 618 617 642
2184 616 617 642
2185 653 678 666
2186 671 675 674
2187 672 675 671
2188 680 674 675
2189 622 625 627
2190 653 673 678
2191 744 656 679
2192 679 656 674
2193 653 673 654
2194 652 674 656
2195 741 743 654
2196 623 757 624
2197 742 741 654
2198 677 624 682
2199 625 684 683
2200 747 751 752
2201 747 752 745
2202 1213 702 1211
2203 746 745 741
2204 742 741 746
2205 654 743 655
2206 656 743 655
2207 744 743 656
2208 747 744 743
2209 741 745 743
2210 745 743 747
2211 669 1219 1188
2212 750 767 753
2213 664 663 1176
2214 703 691 766
2215 681 676 1163
2216 684 1169 683
2217 1205 765 701
2218 1175 1176 663
2219 1174 1205 765
2220 734 768 764
2221 738 731 735
2222 761 729 728
2223 1204 1171 1187
2224 1203 1202 1204
2225 1205 1188 1219
2226 1204 1187 1202
2227 755 763 754
2228 758 624 757
2229 755 756 763
2230 760 757 686
2231 759 688 685
2232 623 628 757
2233 704 697 691
2234 1174 765 759
2235 1188 1205 1169
2236 764 768 763
2237 749 727 761
2238 622 626 621
2239 628 626 621
2240 686 628 757
2241 754 751 748
2242 682 758 624
2243 758 749 682
2244 742 682 749
2245 762 745 746
2246 762 745 750
2247 685 688 689
2248 753 752 750
2249 915 735 740
2250 915 735 732
2251 357 352 355
2252 357 356 355
2253 765 766 759
2254 701 766 765
2255 627 689 685
2256 727 729 761
2257 627 690 626
2258 687 690 626
2259 689 690 627
2260 746 749 727
2261 749 761 758
2262 758 761 760
2263 732 915 914
2264 916 911 904
2265 897 905 904
2266 366 371 310
2267 906 920 913
2268 906 920 921
2269 918 921 920
2270 908 916 904
2271 908 916 909
2272 916 914 911
2273 312 737 308
2274 703 704 691
2275 696 686 695
2276 690 689 693
2277 733 735 731
2278 363 362 503
2279 764 705 706
2280 354 351 352
2281 353 354 338
2282 507 713 1071
2283 375 371 372
2284 899 913 912
2285 919 913 912
2286 913 920 919
2287 922 920 919
2288 686 695 687
2289 922 918 915
2290 919 736 912
2291 732 911 767
2292 910 912 734
2293 736 912 734
2294 733 735 732
2295 732 911 914
2296 736 922 919
2297 310 315 371
2298 727 731 730
2299 762 732 733
2300 767 732 762
2301 729 730 727
2302 313 312 317
2303 313 317 318
2304 736 699 739
2305 699 366 739
2306 691 692 688
2307 729 365 307
2308 764 700 705
2309 367 706 505
2310 692 691 697
2311 704 703 1205
2312 507 1071 506
2313 709 710 702
2314 689 688 692
2315 348 352 351
2316 511 372 367
2317 511 367 505
2318 701 1205 703
2319 511 375 372
2320 503 362 697
2321 511 518 375
2322 350 696 364
2323 760 696 728
2324 760 686 696
2325 365 364 728
2326 530 345 518
2327 693 698 692
2328 730 308 731
2329 308 731 738
2330 738 735 740
2331 729 737 307
2332 694 348 693
2333 349 694 348
2334 349 694 695
2335 478 334 335
2336 695 350 349
2337 698 348 693
2338 337 335 334
2339 350 695 696
2340 343 344 361
2341 354 342 357
2342 342 357 360
2343 341 336 337
2344 1205 504 478
2345 345 376 375
2346 518 345 375
2347 335 363 504
2348 335 504 478
2349 483 506 1071
2350 366 699 367
2351 324 373 344
2352 699 706 367
2353 697 362 698
2354 359 368 370
2355 354 357 352
2356 320 325 321
2357 318 317 329
2358 333 329 330
2359 338 336 353
2360 360 361 340
2361 337 336 335
2362 363 335 336
2363 353 336 363
2364 361 343 340
2365 310 309 314
2366 350 356 355
2367 353 351 354
2368 352 355 349
2369 350 355 349
2370 316 311 312
2371 327 316 317
2372 327 329 317
2373 374 371 375
2374 317 312 316
2375 358 361 359
2376 351 353 362
2377 362 353 363
2378 324 326 321
2379 364 356 350
2380 357 358 356
2381 368 364 356
2382 358 356 359
2383 365 368 364
2384 368 369 365
2385 316 325 320
2386 367 371 366
2387 312 307 737
2388 325 331 327
2389 331 327 332
2390 347 376 345
2391 325 321 326
2392 313 318 314
2393 370 359 373
2394 361 373 359
2395 361 344 373
2396 375 374 376
2397 330 333 376
2398 333 376 347
2399 373 370 321
2400 255 251 254
2401 330 319 329
2402 321 370 320
2403 844 779 782
2404 914 915 918
2405 739 738 310
2406 739 738 740
2407 308 309 314
2408 327 325 316
2409 369 365 307
2410 739 310 366
2411 369 307 311
2412 315 319 318
2413 376 374 319
2414 376 319 330
2415 369 311 320
2416 320 370 369
2417 374 319 371
2418 371 315 319
2419 767 896 753
2420 907 921 917
2421 310 738 309
2422 312 311 307
2423 730 308 737
2424 989 990 988
2425 282 287 301
2426 108 107 109
2427 149 119 147
2428 119 146 147
2429 896 897 884
2430 87 302 293
2431 87 302 97
2432 802 805 804
2433 907 909 917
2434 916 909 917
2435 977 974 992
2436 242 234 289
2437 831 834 832
2438 870 874 873
2439 996 994 997
2440 997 994 995
2441 296 298 294
2442 731 727 762
2443 731 733 762
2444 1152 1159 1156
2445 930 933 929
2446 929 933 982
2447 902 871 868
2448 783 795 780
2449 783 795 777
2450 244 235 234
2451 998 1017 1011
2452 286 232 289
2453 833 831 829
2454 897 905 866
2455 904 896 911
2456 293 306 302
2457 94 93 96
2458 510 514 516
2459 119 68 139
2460 1041 1040 1048
2461 1048 1040 1047
2462 843 801 798
2463 849 804 801
