3780
0 177 603 607 175
1 318 315 314 311
2 855 863 864 860
3 1063 1205 1213 709
4 212 179 215 213
5 422 432 433 421
6 394 398 413 401
7 1225 1205 1224 166
8 95 105 110 88
9 913 918 917 921
10 581 393 398 418
11 1194 1196 1195 1200
12 1190 1189 1182 1194
13 39 38 28 163
14 324 344 430 333
15 329 320 319 318
16 930 936 1015 931
17 631 669 670 665
18 662 669 670 663
19 51 39 60 59
20 1186 1185 1164 1110
21 421 432 433 431
22 1060 1062 965 966
23 1065 1015 1026 1056
24 539 538 540 565
25 235 230 223 254
26 463 414 404 461
27 923 924 1229 932
28 571 556 567 568
29 1195 1200 185 1193
30 148 145 113 146
31 417 405 414 398
32 407 208 411 1205
33 1205 204 210 207
34 1019 1016 1013 1018
35 1023 1031 1025 1029
36 434 436 449 147
37 17 63 13 16
38 408 448 416 412
39 934 933 956 1015
40 1059 1212 1054 1055
41 340 425 341 429
42 147 151 141 143
43 813 821 827 814
44 5 2 3 7
45 1054 1059 1055 1058
46 43 40 45 44
47 340 343 337 425
48 464 463 461 470
49 1153 1148 1147 1151
50 452 149 450 451
51 394 397 413 209
52 438 440 437 436
53 412 448 416 452
54 587 585 586 549
55 133 130 17 138
56 1054 1215 1207 1206
57 235 229 223 230
58 181 1193 185 161
59 302 303 304 306
60 436 438 434 437
61 22 25 18 379
62 1081 1117 1080 1078
63 456 448 385 453
64 182 186 187 184
65 435 436 434 147
66 150 149 144 450
67 115 146 122 148
68 1216 669 663 1219
69 23 19 21 15
70 124 130 17 133
71 70 117 118 114
72 100 102 101 104
73 78 71 77 73
74 14 15 16 21
75 839 842 844 851
76 380 388 385 383
77 214 223 221 216
78 41 659 27 657
79 113 114 115 121
80 1134 1121 1137 1140
81 70 80 120 74
82 13 140 131 17
83 106 110 105 117
84 1122 172 169 171
85 34 30 33 36
86 303 301 306 298
87 18 10 12 11
88 149 151 147 148
89 14 19 21 138
90 1175 1177 1182 1184
91 121 148 122 146
92 530 486 504 478
93 1213 1205 1212 1211
94 445 458 437 444
95 284 282 281 287
96 1216 668 661 669
97 113 117 119 112
98 160 174 171 168
99 394 393 398 573
100 1201 162 1221 164
101 273 270 276 271
102 220 217 221 260
103 1071 1069 712 1205
104 155 156 28 163
105 49 667 153 38
106 1152 1159 1155 1154
107 667 29 27 658
108 806 810 801 809
109 1041 1048 1038 1042
110 1015 1052 935 928
111 1024 1015 1026 1065
112 119 137 132 146
113 929 936 987 982
114 1200 1196 1198 1197
115 148 151 113 145
116 393 573 394 264
117 669 668 629 637
118 148 149 139 146
119 62 126 127 64
120 121 146 122 115
121 139 146 132 128
122 119 146 132 139
123 1147 1194 1182 1149
124 73 69 71 109
125 669 668 661 658
126 119 68 132 127
127 70 109 108 114
128 948 999 938 941
129 404 464 403 402
130 952 1205 210 207
131 298 302 306 303
132 665 662 670 666
133 148 138 139 140
134 142 146 137 112
135 51 39 28 60
136 78 71 75 77
137 93 302 303 96
138 1109 1105 1186 1110
139 124 63 68 17
140 130 137 129 142
141 133 125 127 124
142 17 21 13 140
143 662 661 665 669
144 1080 1117 1170 1078
145 817 822 811 792
146 1007 1015 996 1006
147 715 714 1157 717
148 394 410 398 393
149 200 198 199 197
150 995 941 993 1000
151 1122 171 169 1191
152 667 1216 153 1217
153 168 174 171 170
154 591 612 588 589
155 1220 1199 1202 1194
156 1207 1203 1204 1205
157 36 30 32 37
158 1219 1203 1218 1205
159 871 852 866 872
160 95 71 94 109
161 485 476 484 480
162 1219 1203 1220 1218
163 438 442 437 444
164 294 295 299 92
165 1142 1146 1143 1106
166 1015 1000 993 999
167 150 149 140 148
168 155 154 164 162
169 1176 1175 1184 1178
170 169 172 175 170
171 280 282 281 283
172 426 462 463 487
173 1132 1129 1125 1127
174 7 8 3 5
175 161 154 164 155
176 1020 1006 1053 1058
177 214 216 221 218
178 225 289 288 292
179 551 556 557 555
180 552 554 553 557
181 186 211 189 214
182 1026 1031 1027 1015
183 985 1015 958 983
184 162 163 28 38
185 472 467 466 473
186 487 550 463 426
187 709 702 701 1213
188 1052 994 928 1015
189 936 929 987 931
190 351 698 362 364
191 485 475 484 488
192 821 812 814 813
193 603 604 607 602
194 152 151 143 145
195 186 190 189 188
196 1218 1217 1220 1189
197 258 261 256 255
198 422 420 433 476
199 1200 1194 1201 1193
200 209 407 411 413
201 951 932 1226 1228
202 1015 983 956 957
203 978 968 969 974
204 293 93 303 298
205 1205 1171 1210 1209
206 1134 1121 1135 1137
207 221 190 192 214
208 169 1120 1124 1122
209 71 73 72 69
210 463 405 404 414
211 581 418 398 405
212 304 306 269 302
213 1006 1015 1012 1008
214 94 87 95 91
215 284 281 288 287
216 295 280 297 299
217 70 109 110 108
218 68 61 127 65
219 284 281 283 280
220 242 225 244 237
221 53 46 48 55
222 518 506 530 515
223 341 338 336 340
224 584 548 583 549
225 410 407 417 409
226 346 476 488 477
227 711 491 705 707
228 937 1015 924 938
229 925 1015 935 926
230 79 77 75 266
231 202 198 206 200
232 790 784 787 786
233 1198 181 185 183
234 847 875 862 839
235 865 856 855 859
236 281 290 305 306
237 396 399 401 400
238 549 585 558 559
239 1215 1008 1012 1010
240 955 954 961 952
241 865 856 864 855
242 401 394 395 397
243 1167 1078 1157 1170
244 478 334 346 477
245 489 1101 1102 1103
246 485 468 484 475
247 470 462 484 487
248 1087 1086 1085 1089
249 207 204 210 206
250 934 1051 923 1052
251 783 772 775 774
252 934 930 1015 935
253 463 462 461 470
254 409 208 410 407
255 221 254 255 260
256 272 266 268 265
257 205 198 206 202
258 534 571 526 527
259 546 545 544 552
260 555 556 557 529
261 571 529 557 556
262 1010 1015 1012 1009
263 465 464 403 404
264 583 584 586 576
265 566 564 561 570
266 571 572 567 569
267 209 410 413 394
268 524 494 520 523
269 1014 1009 1012 1015
270 943 946 937 939
271 475 468 484 467
272 947 987 929 931
273 1144 1145 1108 1146
274 322 333 430 447
275 523 494 520 493
276 784 826 796 835
277 370 362 369 368
278 711 708 705 713
279 350 349 352 348
280 1041 1015 1032 1035
281 394 401 413 397
282 423 391 427 389
283 389 391 392 390
284 1141 1145 1134 1144
285 434 147 152 435
286 881 887 884 885
287 422 334 346 347
288 906 908 904 905
289 326 323 331 332
290 1149 1196 1147 1194
291 1056 1015 1026 1058
292 105 85 101 100
293 373 363 376 370
294 1215 1008 1053 1054
295 521 529 528 526
296 818 815 837 814
297 1098 1100 1096 1099
298 362 372 371 367
299 384 448 382 412
300 877 866 856 905
301 1098 1086 1082 1088
302 827 826 835 837
303 834 837 836 835
304 993 941 938 999
305 753 892 896 884
306 1026 1029 1027 1031
307 166 1205 203 196
308 56 39 59 67
309 657 659 647 650
310 677 615 620 683
311 1050 1054 1212 1049
312 615 665 670 666
313 819 812 836 828
314 627 628 687 626
315 1207 1206 1212 1054
316 1094 1096 1091 1095
317 1018 1022 1013 1019
318 999 1000 993 941
319 553 562 549 560
320 1028 1029 1026 1031
321 950 941 948 940
322 53 55 48 54
323 997 1002 1004 1003
324 1160 716 1158 715
325 166 164 1221 162
326 667 1217 153 162
327 810 806 801 807
328 789 795 785 786
329 817 816 822 815
330 1167 1163 1166 1164
331 1081 1082 1079 1084
332 715 1173 1157 714
333 647 649 651 653
334 519 518 512 511
335 1152 1154 1167 1156
336 1001 941 999 950
337 343 344 422 428
338 527 500 543 502
339 495 490 498 499
340 670 664 1169 683
341 712 1071 704 713
342 705 710 704 713
343 1207 1205 1204 1171
344 1195 1193 185 181
345 777 795 785 789
346 1021 1023 1018 1022
347 1198 1200 185 1195
348 833 837 836 834
349 171 170 167 168
350 1192 1191 1190 1193
351 1158 1156 1157 1167
352 332 323 328 446
353 855 860 864 859
354 797 852 825 860
355 706 705 704 505
356 42 40 45 43
357 877 921 906 907
358 663 661 662 669
359 847 862 843 845
360 650 41 45 40
361 900 903 866 901
362 879 868 873 871
363 157 156 163 60
364 60 163 28 156
365 1223 1218 1220 1203
366 432 431 421 460
367 891 898 892 899
368 856 853 855 859
369 756 681 755 684
370 617 618 623 619
371 518 506 504 530
372 814 815 837 813
373 1014 1023 1018 1021
374 758 759 757 760
375 342 340 360 338
376 1089 490 493 492
377 653 651 647 660
378 616 642 618 640
379 638 630 633 635
380 915 768 734 910
381 668 1216 667 1217
382 1184 1178 1166 1176
383 52 39 31 38
384 154 161 167 168
385 16 67 39 63
386 742 751 749 746
387 648 654 655 656
388 1110 1185 1168 1105
389 1160 716 1159 1158
390 1111 1119 1112 1079
391 1157 1170 700 1165
392 1163 1172 1166 1161
393 1080 1085 1083 708
394 438 444 437 440
395 427 343 425 428
396 883 884 888 887
397 1102 489 495 490
398 369 374 371 362
399 685 686 687 628
400 1205 1206 1212 1207
401 421 430 422 432
402 644 643 645 650
403 885 881 754 882
404 1211 702 765 714
405 698 364 351 350
406 417 410 413 407
407 351 359 356 368
408 813 819 827 821
409 1071 1205 503 483
410 495 489 498 490
411 311 316 318 320
412 713 708 705 710
413 700 702 765 701
414 456 423 421 428
415 442 444 443 446
416 756 1165 765 764
417 746 751 749 752
418 696 691 697 728
419 786 789 787 785
420 339 340 342 338
421 802 799 803 800
422 728 739 365 729
423 334 344 335 347
424 151 138 142 148
425 892 896 897 899
426 187 211 165 189
427 381 388 380 383
428 707 708 705 711
429 521 529 526 525
430 475 469 486 468
431 337 334 422 343
432 458 440 437 444
433 436 440 437 458
434 324 333 430 322
435 246 248 275 236
436 16 39 9 6
437 425 427 340 343
438 384 383 406 382
439 148 146 139 138
440 382 383 385 384
441 379 380 377 378
442 143 145 141 142
443 452 451 450 454
444 382 384 385 448
445 441 444 437 442
446 328 332 331 323
447 436 439 435 438
448 341 340 337 425
449 252 256 255 258
450 426 420 433 431
451 346 432 433 422
452 428 423 421 425
453 446 445 441 444
454 341 429 339 340
455 265 303 304 302
456 477 478 488 346
457 487 476 488 346
458 341 340 339 338
459 441 446 442 323
460 260 254 258 257
461 272 278 274 277
462 458 459 454 451
463 347 333 430 344
464 444 440 438 439
465 447 333 430 432
466 68 124 127 61
467 328 323 442 446
468 506 483 504 486
469 445 444 437 441
470 312 308 314 313
471 325 326 331 332
472 362 351 368 359
473 84 92 90 86
474 95 71 97 94
475 330 370 319 320
476 322 446 441 323
477 334 344 422 343
478 9 10 5 8
479 432 333 430 347
480 429 427 340 425
481 373 324 321 333
482 435 438 434 436
483 446 328 443 442
484 326 332 322 323
485 324 332 322 326
486 386 383 385 388
487 444 446 442 441
488 441 445 454 437
489 333 332 322 324
490 446 333 322 447
491 445 460 454 458
492 332 333 322 446
493 446 323 322 332
494 427 391 392 389
495 447 446 441 322
496 447 445 441 446
497 449 451 450 149
498 386 388 387 383
499 444 439 438 443
500 443 442 438 444
501 436 439 438 440
502 287 290 288 292
503 458 451 454 437
504 460 431 421 448
505 458 451 437 436
506 391 423 385 389
507 445 458 454 437
508 429 427 425 423
509 460 459 454 458
510 460 448 454 459
511 451 459 454 452
512 452 459 454 448
513 406 383 377 382
514 429 391 392 427
515 427 429 340 392
516 389 386 385 388
517 427 423 429 391
518 428 423 425 427
519 430 456 421 428
520 456 448 421 423
521 503 506 504 518
522 423 389 427 428
523 476 420 433 487
524 457 448 456 453
525 423 389 428 456
526 541 531 535 532
527 390 388 389 391
528 390 387 389 388
529 386 388 389 387
530 441 322 457 447
531 430 447 457 322
532 454 460 457 448
533 454 445 457 460
534 441 445 457 454
535 441 447 457 445
536 432 460 457 445
537 454 448 457 453
538 453 383 385 386
539 430 432 457 447
540 445 447 457 432
541 360 338 354 342
542 750 767 763 762
543 143 151 141 145
544 354 360 357 358
545 430 347 422 432
546 503 1205 504 483
547 343 428 422 425
548 340 429 339 392
549 728 364 697 696
550 1187 1176 1169 1188
551 1178 1177 1184 1183
552 55 46 48 43
553 389 453 385 386
554 387 388 381 383
555 135 103 136 98
556 701 763 765 764
557 740 738 309 737
558 871 865 866 852
559 363 503 504 375
560 360 361 358 353
561 505 705 704 713
562 453 448 385 384
563 457 448 421 456
564 457 460 421 448
565 457 432 421 460
566 457 430 421 432
567 456 430 421 457
568 337 343 422 425
569 9 4 5 6
570 115 114 122 121
571 1189 1216 1175 1219
572 1217 1216 1218 668
573 428 430 422 421
574 460 459 455 448
575 202 221 206 222
576 421 425 422 428
577 1219 668 1218 1216
578 405 402 404 398
579 428 344 422 430
580 334 347 422 344
581 430 344 422 347
582 423 448 385 456
583 146 147 148 149
584 74 73 72 71
585 24 19 26 138
586 456 453 385 389
587 389 388 385 391
588 384 383 385 453
589 389 423 385 456
590 406 25 377 19
591 377 25 18 19
592 125 61 127 124
593 12 10 9 8
594 115 148 122 151
595 117 113 119 118
596 412 26 406 144
597 382 383 377 380
598 133 130 131 134
599 380 383 385 382
600 37 4 32 36
601 148 149 141 144
602 129 130 128 124
603 113 151 115 145
604 431 421 408 420
605 431 448 408 421
606 105 108 110 109
607 114 113 118 121
608 144 384 406 412
609 147 436 449 149
610 669 668 1219 1216
611 120 70 118 114
612 143 434 449 147
613 113 145 142 146
614 74 73 70 72
615 449 147 141 143
616 26 412 406 25
617 549 548 558 585
618 401 398 413 414
619 927 1015 924 928
620 68 13 131 17
621 406 382 377 25
622 426 550 463 405
623 280 296 299 300
624 380 381 377 378
625 128 138 139 146
626 83 85 84 88
627 125 126 127 62
628 133 124 131 17
629 450 149 141 449
630 380 383 377 381
631 464 471 461 465
632 132 134 131 130
633 108 107 105 103
634 294 297 296 299
635 68 17 131 124
636 120 114 118 116
637 71 73 95 77
638 246 248 245 247
639 286 284 285 288
640 225 250 228 237
641 263 259 253 240
642 26 138 406 144
643 78 74 81 73
644 75 303 304 265
645 986 983 991 985
646 611 614 590 589
647 244 257 240 250
648 560 569 553 562
649 79 266 82 78
650 73 78 76 81
651 73 71 76 78
652 71 78 75 76
653 72 71 76 74
654 73 74 76 71
655 81 74 76 73
656 81 80 76 74
657 72 74 76 80
658 115 116 122 114
659 114 120 69 116
660 121 114 122 116
661 149 119 139 146
662 72 69 120 116
663 148 146 142 145
664 73 69 70 72
665 133 138 131 130
666 113 148 115 151
667 122 116 123 121
668 113 146 115 148
669 70 72 120 80
670 117 111 119 112
671 120 114 69 70
672 70 69 120 72
673 72 116 120 123
674 80 72 120 123
675 114 69 70 109
676 111 134 136 133
677 68 133 131 127
678 80 74 70 72
679 105 103 106 117
680 121 116 118 114
681 113 121 146 118
682 121 113 146 115
683 123 121 118 120
684 123 116 118 121
685 120 116 118 123
686 148 145 142 151
687 25 382 377 379
688 454 451 449 437
689 437 436 449 434
690 437 451 449 436
691 382 380 377 379
692 152 434 143 147
693 142 151 141 144
694 98 105 104 106
695 144 151 141 148
696 147 149 141 151
697 449 454 450 451
698 148 151 141 149
699 142 145 141 151
700 147 151 143 152
701 451 149 449 436
702 449 149 141 147
703 453 448 450 454
704 384 448 450 453
705 150 149 450 452
706 25 19 406 26
707 144 149 141 450
708 412 448 450 384
709 150 452 450 412
710 412 452 450 448
711 454 448 450 452
712 450 384 144 412
713 150 148 144 149
714 412 150 144 450
715 412 26 144 150
716 148 138 144 151
717 83 88 84 86
718 62 64 127 65
719 22 25 23 18
720 151 138 144 142
721 26 19 406 138
722 412 382 406 25
723 412 384 406 382
724 22 379 18 20
725 142 146 112 113
726 20 379 18 378
727 378 379 18 377
728 137 142 130 146
729 16 63 13 67
730 129 141 128 142
731 97 95 87 88
732 21 17 13 16
733 71 109 95 73
734 130 138 131 128
735 130 128 131 132
736 141 142 129 143
737 56 44 50 52
738 14 15 9 16
739 10 8 12 11
740 133 126 125 134
741 106 103 104 99
742 112 103 108 117
743 666 683 670 615
744 196 197 195 198
745 98 103 106 99
746 643 41 650 40
747 51 56 50 52
748 129 130 124 125
749 133 124 127 68
750 1054 1059 1058 1053
751 134 133 124 125
752 55 64 65 57
753 130 134 124 125
754 54 56 50 58
755 68 124 131 133
756 134 130 124 133
757 14 16 9 6
758 17 130 128 138
759 124 130 128 17
760 129 142 128 130
761 144 142 128 141
762 144 138 128 142
763 130 142 128 146
764 61 125 127 62
765 142 148 128 146
766 138 148 128 142
767 138 146 128 148
768 11 20 12 18
769 18 10 15 12
770 6 39 9 4
771 379 25 18 377
772 138 19 21 24
773 23 24 21 19
774 18 20 12 22
775 15 19 21 14
776 25 19 23 18
777 26 19 23 25
778 26 24 23 19
779 10 19 15 14
780 50 48 45 44
781 23 18 15 22
782 12 22 15 18
783 18 19 15 10
784 23 19 15 18
785 32 2 1 3
786 138 17 21 14
787 200 198 206 204
788 13 68 131 139
789 9 14 5 10
790 1187 1171 1169 1172
791 587 584 586 585
792 636 30 34 37
793 1192 1193 1190 1194
794 37 4 31 32
795 1003 1001 997 1002
796 9 8 5 4
797 252 256 258 253
798 49 1216 153 667
799 161 168 155 160
800 1189 1194 1190 1193
801 10 11 7 8
802 39 63 6 16
803 105 104 85 88
804 17 14 16 21
805 5 4 3 0
806 5 8 3 4
807 7 8 5 10
808 0 2 3 5
809 36 4 32 3
810 675 664 672 683
811 17 14 6 16
812 16 63 6 17
813 3 4 32 0
814 15 10 9 12
815 14 10 9 15
816 6 14 5 9
817 678 682 742 679
818 54 62 65 55
819 39 67 56 63
820 118 113 119 146
821 52 39 56 35
822 0 2 32 3
823 200 208 410 199
824 32 3 1 36
825 37 39 31 4
826 687 688 692 686
827 37 38 31 39
828 39 63 56 35
829 202 223 206 221
830 37 30 34 36
831 39 63 35 6
832 52 39 35 31
833 6 4 35 39
834 31 39 35 4
835 4 5 35 0
836 4 6 35 5
837 4 32 35 31
838 4 0 35 32
839 33 34 632 30
840 62 64 65 55
841 50 44 47 52
842 667 29 658 629
843 27 52 47 41
844 636 37 29 30
845 636 667 29 38
846 636 38 29 37
847 31 37 29 38
848 32 37 29 31
849 32 30 29 37
850 658 657 27 659
851 36 32 33 1
852 36 30 33 32
853 633 616 640 642
854 61 62 127 65
855 632 34 630 30
856 634 34 630 632
857 643 657 650 41
858 637 636 630 634
859 34 636 630 30
860 634 636 630 34
861 630 637 629 636
862 637 668 629 667
863 636 667 629 29
864 637 667 629 636
865 630 636 629 30
866 29 30 629 636
867 729 735 730 733
868 669 668 658 629
869 79 78 75 77
870 1163 676 1169 1161
871 629 668 658 667
872 29 667 27 38
873 31 38 27 52
874 29 38 27 31
875 43 54 48 55
876 49 659 661 27
877 38 667 153 162
878 763 734 761 768
879 638 633 639 641
880 646 650 645 651
881 650 40 45 42
882 52 44 47 41
883 54 44 50 56
884 132 139 131 68
885 43 44 45 48
886 65 54 66 61
887 65 58 66 54
888 46 43 45 48
889 54 58 53 65
890 650 659 45 41
891 1167 1154 1166 1172
892 50 44 45 47
893 38 39 51 52
894 112 146 119 113
895 61 62 65 54
896 65 55 53 54
897 40 41 45 44
898 174 178 176 159
899 53 54 50 58
900 1184 1147 1182 1153
901 43 44 48 54
902 65 57 53 55
903 87 97 293 93
904 124 61 68 63
905 41 659 47 27
906 48 44 50 54
907 57 46 53 55
908 668 1216 661 667
909 27 659 661 658
910 48 54 50 53
911 77 71 75 96
912 56 54 66 58
913 56 61 66 54
914 63 61 66 56
915 56 67 66 63
916 132 128 131 138
917 133 126 127 125
918 13 63 68 67
919 66 67 68 63
920 86 85 84 101
921 137 146 119 112
922 128 146 132 130
923 644 40 650 42
924 47 41 45 659
925 1112 1107 1108 1146
926 131 133 136 135
927 47 44 45 41
928 52 39 51 56
929 619 616 620 615
930 644 643 650 40
931 49 667 661 1216
932 658 668 661 667
933 266 75 304 265
934 659 41 650 657
935 1175 1187 1182 1202
936 46 42 45 43
937 51 39 59 56
938 47 659 49 27
939 27 667 49 38
940 47 27 49 52
941 163 196 157 16
942 1191 161 167 1193
943 39 163 28 60
944 51 52 49 38
945 27 38 49 52
946 50 52 49 51
947 47 52 49 50
948 49 27 661 667
949 658 667 661 27
950 50 56 59 58
951 51 56 59 50
952 66 56 59 67
953 58 56 59 66
954 66 63 68 61
955 93 91 86 87
956 138 24 140 26
957 231 229 223 233
958 223 254 221 260
959 214 218 221 219
960 945 946 1015 925
961 216 217 221 219
962 119 117 106 111
963 21 24 140 138
964 131 111 136 133
965 132 111 136 131
966 132 111 131 134
967 140 149 139 148
968 139 140 131 13
969 13 17 68 63
970 107 103 104 105
971 66 61 68 65
972 168 160 161 171
973 144 138 140 26
974 144 26 140 150
975 144 150 140 148
976 144 148 140 138
977 233 231 216 223
978 417 408 416 407
979 136 106 103 111
980 133 134 131 111
981 138 17 140 21
982 105 103 104 106
983 590 593 597 591
984 132 131 136 135
985 130 146 132 137
986 139 128 132 138
987 119 111 132 112
988 119 112 132 137
989 137 111 132 130
990 137 111 112 132
991 130 111 132 134
992 132 138 131 139
993 138 17 131 140
994 138 133 131 17
995 139 138 131 140
996 98 132 136 135
997 100 103 99 104
998 117 113 108 112
999 118 113 108 117
1000 114 113 108 118
1001 118 117 108 114
1002 135 131 98 132
1003 132 127 68 131
1004 86 88 87 91
1005 100 84 85 101
1006 98 103 99 135
1007 111 103 117 106
1008 135 103 99 136
1009 132 117 106 119
1010 112 103 117 111
1011 136 132 106 111
1012 119 111 106 132
1013 98 132 106 136
1014 106 136 103 98
1015 100 103 104 107
1016 71 69 94 109
1017 135 98 102 99
1018 106 98 102 104
1019 106 99 102 98
1020 104 99 102 106
1021 95 109 110 73
1022 88 109 110 95
1023 70 73 110 69
1024 109 69 110 73
1025 70 69 110 109
1026 88 107 110 109
1027 105 107 110 88
1028 105 109 110 107
1029 114 70 110 108
1030 114 117 110 70
1031 108 117 110 114
1032 105 117 110 103
1033 108 103 110 117
1034 105 103 110 108
1035 71 97 96 77
1036 95 77 97 71
1037 409 412 416 150
1038 97 87 96 93
1039 85 88 107 105
1040 270 291 267 273
1041 296 281 282 301
1042 104 99 100 102
1043 91 85 107 83
1044 91 85 83 88
1045 105 107 100 104
1046 224 286 232 285
1047 100 84 83 85
1048 86 88 84 85
1049 105 104 101 85
1050 100 104 101 105
1051 88 109 91 107
1052 85 107 83 100
1053 989 983 991 984
1054 95 109 91 88
1055 94 109 91 95
1056 97 71 96 94
1057 26 24 199 208
1058 97 94 96 87
1059 269 270 267 274
1060 86 91 83 88
1061 91 85 88 107
1062 297 284 283 280
1063 946 1015 937 938
1064 91 88 87 95
1065 157 39 60 163
1066 281 292 288 290
1067 291 289 292 287
1068 87 94 95 97
1069 94 93 87 91
1070 864 800 846 799
1071 79 78 82 81
1072 89 91 86 93
1073 86 85 87 88
1074 156 163 165 158
1075 298 302 303 293
1076 298 89 294 92
1077 89 91 83 86
1078 281 306 305 301
1079 1200 1196 1195 1198
1080 75 266 304 79
1081 287 284 286 289
1082 93 86 89 87
1083 83 90 86 84
1084 83 90 89 86
1085 417 408 455 416
1086 305 287 291 290
1087 302 265 269 304
1088 293 97 302 93
1089 96 93 302 97
1090 302 93 303 293
1091 910 915 899 919
1092 87 86 92 293
1093 89 90 92 86
1094 89 86 92 87
1095 93 92 298 293
1096 87 93 92 89
1097 293 93 92 87
1098 233 227 231 226
1099 303 301 305 306
1100 294 297 299 295
1101 195 197 199 198
1102 298 301 306 300
1103 288 224 285 286
1104 293 306 300 298
1105 297 296 299 280
1106 234 224 232 225
1107 92 93 298 89
1108 296 298 299 301
1109 260 217 594 220
1110 283 280 296 297
1111 92 90 294 295
1112 89 90 294 92
1113 289 292 225 242
1114 92 300 298 293
1115 288 289 286 284
1116 274 277 268 272
1117 228 237 234 225
1118 290 300 306 281
1119 284 225 224 288
1120 299 300 301 298
1121 298 299 92 294
1122 158 197 195 196
1123 288 284 285 224
1124 296 300 301 299
1125 280 282 283 296
1126 281 305 287 301
1127 287 281 288 290
1128 221 394 209 397
1129 304 266 268 79
1130 228 237 250 244
1131 287 289 292 288
1132 244 235 257 228
1133 228 244 250 257
1134 140 24 199 26
1135 265 77 75 97
1136 269 272 267 304
1137 97 77 75 96
1138 284 282 286 283
1139 156 157 163 158
1140 281 296 300 301
1141 287 289 288 284
1142 286 283 285 284
1143 410 208 209 407
1144 306 300 301 281
1145 300 92 298 299
1146 225 227 232 226
1147 1051 934 923 953
1148 265 266 75 77
1149 299 281 280 300
1150 280 288 284 281
1151 226 228 231 233
1152 291 289 242 292
1153 225 289 234 224
1154 828 830 829 797
1155 305 281 287 290
1156 291 290 287 292
1157 233 228 231 229
1158 227 224 226 225
1159 13 21 195 140
1160 288 237 225 292
1161 732 899 913 767
1162 242 234 244 225
1163 292 242 237 225
1164 224 228 226 225
1165 215 613 588 592
1166 213 217 215 219
1167 223 231 216 229
1168 575 262 261 573
1169 179 160 211 178
1170 174 160 159 168
1171 158 196 195 157
1172 204 208 199 24
1173 224 289 288 225
1174 289 224 288 286
1175 226 229 231 228
1176 232 228 225 226
1177 224 285 232 227
1178 216 217 219 235
1179 244 237 234 228
1180 225 224 232 227
1181 228 232 225 234
1182 985 986 992 991
1183 232 289 224 234
1184 244 225 234 237
1185 261 262 256 221
1186 276 273 243 275
1187 996 1000 1015 1002
1188 273 236 275 270
1189 221 223 255 254
1190 250 235 230 228
1191 972 968 1015 985
1192 233 229 223 235
1193 216 235 219 233
1194 232 228 235 234
1195 226 228 235 232
1196 233 228 235 226
1197 233 226 235 227
1198 232 227 235 226
1199 233 227 235 232
1200 270 306 267 305
1201 235 228 250 257
1202 216 197 214 223
1203 235 229 228 233
1204 594 573 261 220
1205 250 251 230 257
1206 229 235 228 230
1207 230 257 254 235
1208 960 1205 963 479
1209 215 608 588 613
1210 273 271 276 278
1211 178 174 179 160
1212 250 257 230 235
1213 200 204 206 208
1214 257 235 260 254
1215 155 162 28 153
1216 198 21 195 196
1217 218 216 221 219
1218 257 230 254 251
1219 216 233 219 218
1220 567 566 562 569
1221 200 204 199 198
1222 180 179 215 212
1223 214 219 221 217
1224 223 235 260 217
1225 611 612 607 610
1226 949 950 948 940
1227 140 21 199 24
1228 218 231 216 233
1229 589 609 611 614
1230 213 219 215 212
1231 235 233 216 223
1232 223 217 216 235
1233 254 235 260 223
1234 216 218 214 212
1235 16 67 157 39
1236 198 204 199 24
1237 216 212 214 197
1238 947 931 929 945
1239 260 217 221 223
1240 187 211 189 186
1241 179 212 211 213
1242 200 254 255 223
1243 214 213 211 212
1244 155 161 165 164
1245 223 217 221 216
1246 409 199 410 208
1247 201 196 202 197
1248 219 212 213 218
1249 39 163 157 16
1250 599 594 595 592
1251 1193 161 167 154
1252 13 67 157 16
1253 196 163 157 158
1254 158 197 211 178
1255 228 251 230 250
1256 13 16 195 21
1257 157 16 195 13
1258 226 230 229 228
1259 196 16 195 157
1260 196 21 195 16
1261 202 222 192 221
1262 200 208 199 204
1263 193 222 192 194
1264 195 21 199 140
1265 195 198 199 21
1266 24 21 199 198
1267 213 212 214 218
1268 158 178 211 160
1269 1205 1222 1221 1225
1270 1074 1061 1015 1060
1271 1149 1187 1182 1153
1272 218 219 214 213
1273 988 984 990 986
1274 211 214 201 189
1275 609 612 611 614
1276 178 212 211 179
1277 205 198 202 203
1278 198 207 206 204
1279 1123 1121 1132 1133
1280 213 219 214 217
1281 213 217 214 220
1282 214 217 221 220
1283 982 987 929 947
1284 1000 1001 1002 995
1285 186 188 189 187
1286 214 212 211 197
1287 178 197 211 212
1288 153 1217 154 162
1289 51 38 28 39
1290 164 1193 1201 154
1291 186 188 187 184
1292 606 172 1124 1122
1293 175 1124 602 606
1294 39 67 60 59
1295 157 67 60 39
1296 178 160 159 174
1297 158 160 159 178
1298 156 160 159 158
1299 925 1015 924 937
1300 1122 1120 1124 1121
1301 169 1122 1124 172
1302 154 162 155 153
1303 1123 1122 1132 1121
1304 1192 1191 1120 1190
1305 154 168 155 161
1306 1137 1131 1138 1130
1307 1189 1217 154 1216
1308 603 609 607 611
1309 1200 1193 1195 1194
1310 1175 1177 1184 1178
1311 1190 1191 167 1193
1312 153 1216 154 1217
1313 187 183 185 181
1314 910 736 734 915
1315 927 1229 923 924
1316 1218 1216 1189 1219
1317 1217 1216 1189 1218
1318 1069 1077 1063 1205
1319 155 160 165 161
1320 153 162 28 38
1321 38 49 28 153
1322 38 51 28 49
1323 155 163 28 162
1324 161 171 167 168
1325 1191 171 167 161
1326 1190 1193 167 1189
1327 154 1189 167 1193
1328 159 160 155 168
1329 156 160 155 159
1330 193 190 192 221
1331 1120 1122 169 1191
1332 661 669 663 1216
1333 995 1000 999 941
1334 1191 171 169 167
1335 1134 1141 1135 1136
1336 1121 1120 1123 1122
1337 1120 1191 1123 1122
1338 1192 1191 1123 1120
1339 997 1005 1004 998
1340 1120 1191 169 1190
1341 1220 1194 1201 1199
1342 1054 1058 1055 1020
1343 1072 1205 964 952
1344 1190 1191 169 167
1345 167 171 169 170
1346 1127 1129 1128 1132
1347 1140 1139 1138 1141
1348 1185 1180 1183 1136
1349 186 214 189 190
1350 158 160 165 156
1351 606 1124 1125 1132
1352 171 172 169 170
1353 611 612 610 614
1354 590 614 593 589
1355 201 214 192 189
1356 155 163 165 156
1357 211 189 201 165
1358 938 993 928 927
1359 154 162 1201 164
1360 187 160 165 211
1361 1127 1130 1128 1129
1362 1199 1196 1200 1197
1363 640 616 620 618
1364 926 1015 935 924
1365 1124 1122 1132 606
1366 1196 1199 1200 1194
1367 183 182 187 184
1368 181 1198 185 1195
1369 1124 1121 1132 1122
1370 609 608 607 612
1371 1124 1121 1125 1132
1372 1132 1121 1125 1129
1373 1133 1130 1128 1131
1374 1133 1121 1132 1129
1375 1129 1133 1128 1132
1376 1129 1130 1128 1133
1377 177 175 607 173
1378 173 608 607 177
1379 928 927 923 924
1380 173 613 607 608
1381 170 174 176 168
1382 608 603 607 177
1383 159 168 176 174
1384 611 609 607 612
1385 1132 606 1126 1125
1386 1125 1127 1126 1132
1387 605 606 1126 1132
1388 1220 1189 1201 1194
1389 156 160 165 155
1390 1125 606 602 1124
1391 1126 606 602 1125
1392 1218 1203 1223 1205
1393 1132 1128 1126 605
1394 1132 1127 1126 1128
1395 259 241 263 249
1396 165 187 185 161
1397 592 612 588 591
1398 1124 172 175 169
1399 606 172 175 1124
1400 1126 605 602 606
1401 1126 604 602 605
1402 183 182 181 187
1403 180 179 173 613
1404 179 178 180 174
1405 612 589 593 614
1406 1193 1194 1201 1189
1407 180 176 173 174
1408 1212 1054 1210 1207
1409 221 214 192 202
1410 176 174 180 178
1411 212 178 180 179
1412 612 589 614 609
1413 612 608 607 613
1414 180 174 173 179
1415 164 1193 185 1200
1416 155 162 164 163
1417 1189 1217 1201 154
1418 610 604 607 611
1419 605 604 607 610
1420 603 608 607 609
1421 592 594 588 215
1422 418 410 398 417
1423 182 161 187 160
1424 592 613 588 612
1425 189 214 192 190
1426 1200 1199 1201 1194
1427 611 604 607 603
1428 171 174 173 170
1429 171 170 173 172
1430 180 177 173 176
1431 176 170 173 174
1432 180 608 173 177
1433 613 608 173 180
1434 177 170 173 176
1435 175 172 173 170
1436 175 170 173 177
1437 187 181 185 161
1438 605 606 607 602
1439 602 604 607 605
1440 175 603 607 602
1441 602 606 607 175
1442 175 172 607 173
1443 175 606 607 172
1444 164 161 185 1193
1445 599 591 595 598
1446 1007 997 996 1002
1447 258 262 256 261
1448 1058 1015 1020 1006
1449 182 160 187 211
1450 182 211 187 186
1451 182 181 187 161
1452 187 161 165 160
1453 591 596 595 598
1454 927 938 924 1015
1455 1134 1136 1135 1179
1456 1193 1189 1201 154
1457 164 163 165 155
1458 1220 1217 1201 1189
1459 1002 1001 997 995
1460 154 1217 1201 162
1461 946 925 937 1015
1462 211 160 165 158
1463 1219 1218 1220 1189
1464 995 941 999 1001
1465 1226 1223 1049 1205
1466 164 1200 1201 1193
1467 1228 1229 1227 1230
1468 154 161 164 1193
1469 925 1015 926 924
1470 166 162 1221 1205
1471 1001 1000 999 995
1472 165 161 185 164
1473 623 625 620 622
1474 1016 1009 1004 998
1475 1115 1107 1108 1112
1476 1206 1053 1049 1054
1477 1217 1205 1222 162
1478 915 736 740 922
1479 1220 1217 1222 1201
1480 1205 1218 1222 1223
1481 1205 1217 1222 1218
1482 1220 1218 1222 1217
1483 1223 1218 1222 1220
1484 1222 162 1201 1217
1485 1000 996 1015 994
1486 1010 1009 1012 1014
1487 1012 1006 1020 1015
1488 1015 1025 1018 1021
1489 942 946 939 944
1490 938 1015 928 993
1491 953 1226 932 923
1492 205 1205 1227 1228
1493 487 462 484 420
1494 422 476 346 334
1495 936 930 1015 933
1496 1052 928 923 935
1497 1054 1008 1053 1006
1498 999 941 948 950
1499 949 940 948 946
1500 1007 1006 1008 1015
1501 1224 1225 1228 1205
1502 1226 932 1229 1228
1503 960 1205 411 955
1504 594 220 261 260
1505 249 248 247 239
1506 935 928 923 924
1507 209 208 411 407
1508 1005 997 1004 1003
1509 821 812 813 819
1510 194 222 397 193
1511 1226 1051 953 1049
1512 1075 1072 1063 1205
1513 946 949 939 944
1514 946 940 939 949
1515 1051 1058 1053 1052
1516 1016 998 1004 1005
1517 1224 1229 1227 1228
1518 253 256 258 259
1519 939 944 943 942
1520 939 942 943 946
1521 945 946 943 942
1522 936 1015 989 981
1523 945 925 1015 931
1524 1016 1015 1004 1009
1525 801 810 804 809
1526 984 983 991 986
1527 925 930 1015 931
1528 943 925 929 930
1529 931 930 929 925
1530 945 925 929 943
1531 945 931 929 925
1532 942 945 929 943
1533 942 947 929 945
1534 991 968 992 985
1535 993 1000 994 995
1536 924 1015 935 928
1537 1215 1008 1054 1012
1538 1214 1215 1010 1008
1539 954 961 956 959
1540 993 1015 994 1000
1541 1007 1002 996 1015
1542 531 532 542 536
1543 1039 1044 1046 980
1544 925 930 935 1015
1545 162 1222 1201 1221
1546 939 946 937 940
1547 1206 1205 1049 1223
1548 967 973 1015 972
1549 470 467 484 462
1550 1222 1205 1226 1225
1551 948 941 938 940
1552 1015 999 938 948
1553 993 999 938 1015
1554 946 1015 938 948
1555 927 1015 928 938
1556 1223 1203 1206 1205
1557 938 946 940 937
1558 946 938 940 948
1559 946 925 943 937
1560 925 946 943 945
1561 1004 1009 1007 998
1562 1004 998 1007 997
1563 997 1002 1007 1004
1564 1004 1015 1007 1009
1565 1002 1015 1007 1004
1566 994 1006 996 1015
1567 936 930 929 931
1568 1041 1045 1035 1038
1569 1000 997 995 1002
1570 1006 1052 1053 1058
1571 994 1015 1052 1006
1572 960 952 963 1205
1573 165 158 201 211
1574 1049 1205 1212 1050
1575 993 1015 928 994
1576 1051 1226 953 923
1577 1206 1214 1215 1207
1578 1225 1229 1226 1231
1579 1222 1205 1221 162
1580 1215 1214 1053 1008
1581 221 222 192 193
1582 1012 1008 1054 1006
1583 932 1229 1230 924
1584 814 813 837 818
1585 1010 1008 1012 1015
1586 202 200 206 223
1587 934 1052 935 1015
1588 934 1052 923 935
1589 1015 1007 1010 1008
1590 1015 1009 1010 1007
1591 1015 1064 1035 1036
1592 1061 1015 1060 973
1593 1052 1015 1058 1006
1594 1012 1006 1054 1020
1595 966 1060 956 965
1596 726 724 508 725
1597 1069 1066 1063 1077
1598 1033 1032 1030 1028
1599 1076 1065 1073 1067
1600 936 933 981 982
1601 963 1205 964 480
1602 992 991 990 968
1603 1205 196 166 163
1604 930 934 1015 933
1605 1214 1206 1215 1053
1606 1051 1059 1053 1058
1607 1206 1203 1207 1205
1608 480 1205 964 481
1609 210 955 411 1205
1610 420 408 415 1205
1611 935 924 1230 926
1612 205 1205 1228 207
1613 1205 198 205 203
1614 591 589 595 596
1615 207 198 206 205
1616 1054 1006 1053 1020
1617 207 198 205 1205
1618 1051 1052 1053 1006
1619 202 214 192 201
1620 272 274 267 268
1621 1222 1223 1226 1205
1622 932 935 953 923
1623 932 924 1230 935
1624 1054 1215 1206 1053
1625 198 196 203 1205
1626 1065 1073 1074 1058
1627 926 935 932 1230
1628 415 1205 411 960
1629 996 998 997 1007
1630 923 935 953 934
1631 983 1015 991 985
1632 1015 1036 1040 1043
1633 1226 1205 1228 1225
1634 593 612 591 589
1635 221 223 206 200
1636 205 203 1227 1205
1637 542 531 533 535
1638 1229 1225 1228 1224
1639 165 164 166 163
1640 1205 1225 1221 166
1641 162 1205 166 163
1642 203 166 1224 1205
1643 162 163 166 164
1644 221 214 202 223
1645 767 915 899 910
1646 548 585 549 584
1647 198 197 202 196
1648 201 197 202 214
1649 250 237 240 244
1650 214 197 202 223
1651 470 471 461 464
1652 1205 204 207 198
1653 1228 1205 1227 1224
1654 1226 951 1228 1205
1655 1226 951 1205 1049
1656 426 462 487 420
1657 206 208 210 209
1658 1224 1205 1227 203
1659 211 197 201 214
1660 951 207 1228 1205
1661 476 420 479 1205
1662 470 467 461 471
1663 989 981 984 982
1664 1225 1229 1228 1226
1665 932 951 1226 953
1666 1049 953 1226 951
1667 1229 1228 932 1230
1668 1229 923 1226 1231
1669 1229 923 932 1226
1670 211 158 201 197
1671 203 196 201 166
1672 465 464 404 461
1673 196 197 201 158
1674 163 158 201 165
1675 163 196 201 158
1676 166 196 201 163
1677 166 163 201 165
1678 200 197 202 198
1679 223 197 202 200
1680 201 203 202 196
1681 198 196 202 203
1682 393 575 581 573
1683 405 418 398 417
1684 417 419 405 418
1685 408 412 416 407
1686 408 448 455 416
1687 588 589 595 591
1688 592 594 595 588
1689 588 591 595 592
1690 594 592 599 220
1691 609 589 588 612
1692 612 608 588 609
1693 570 566 562 561
1694 189 190 191 188
1695 192 193 191 190
1696 259 262 256 258
1697 194 193 191 192
1698 192 190 191 189
1699 269 274 267 272
1700 269 304 267 305
1701 590 589 591 596
1702 593 589 591 590
1703 213 220 594 217
1704 592 220 594 213
1705 599 592 595 591
1706 613 179 215 180
1707 613 213 215 179
1708 592 213 215 613
1709 608 613 215 180
1710 551 405 463 550
1711 213 592 215 594
1712 594 217 215 213
1713 608 612 588 613
1714 577 586 579 587
1715 591 596 597 590
1716 591 593 597 600
1717 591 600 597 598
1718 591 598 597 596
1719 586 576 574 580
1720 574 595 601 599
1721 240 244 245 257
1722 260 220 261 221
1723 79 76 75 78
1724 302 75 303 96
1725 76 78 79 81
1726 77 266 79 78
1727 258 253 240 252
1728 290 306 270 305
1729 79 266 268 82
1730 567 569 562 554
1731 415 420 479 462
1732 82 266 268 277
1733 75 302 303 265
1734 97 302 75 265
1735 97 96 75 302
1736 580 576 574 575
1737 265 304 268 272
1738 304 305 269 306
1739 304 265 269 272
1740 271 270 269 274
1741 272 277 268 266
1742 265 266 268 304
1743 276 271 279 278
1744 243 244 245 238
1745 268 304 267 272
1746 240 257 258 250
1747 274 272 269 271
1748 269 305 267 306
1749 269 306 267 270
1750 275 246 279 248
1751 394 410 413 398
1752 306 303 304 305
1753 575 573 261 594
1754 249 239 238 241
1755 238 239 245 243
1756 278 272 274 271
1757 305 270 291 267
1758 254 251 258 257
1759 572 568 567 566
1760 460 448 455 431
1761 465 471 461 466
1762 273 278 276 274
1763 273 270 275 276
1764 241 249 258 247
1765 271 278 273 274
1766 583 549 586 584
1767 575 573 393 262
1768 274 270 267 273
1769 397 221 395 193
1770 248 236 246 239
1771 241 245 258 240
1772 245 257 258 240
1773 422 476 433 346
1774 239 246 245 243
1775 239 248 245 246
1776 259 247 258 249
1777 417 407 416 409
1778 237 292 238 242
1779 237 242 238 244
1780 239 243 236 246
1781 239 236 275 248
1782 274 270 273 271
1783 405 550 545 419
1784 236 292 273 242
1785 291 242 273 292
1786 238 242 243 244
1787 236 290 273 292
1788 291 292 273 290
1789 236 270 273 290
1790 291 290 273 270
1791 236 246 243 275
1792 279 275 243 246
1793 270 305 291 290
1794 275 271 279 270
1795 276 270 279 271
1796 275 270 279 276
1797 276 275 243 279
1798 279 246 243 276
1799 273 236 243 275
1800 273 242 243 236
1801 243 239 236 238
1802 259 264 263 256
1803 259 241 258 240
1804 238 292 243 242
1805 236 292 243 238
1806 236 242 243 292
1807 249 239 247 238
1808 241 249 247 238
1809 150 412 416 452
1810 247 248 245 239
1811 245 241 258 247
1812 238 241 245 247
1813 238 240 245 241
1814 237 240 245 238
1815 237 244 245 240
1816 238 244 245 237
1817 247 239 245 238
1818 407 412 416 409
1819 549 559 558 560
1820 221 260 255 261
1821 424 431 455 408
1822 200 223 255 221
1823 240 241 253 263
1824 264 262 393 573
1825 259 249 258 241
1826 261 221 256 255
1827 206 200 255 221
1828 397 222 209 221
1829 253 256 259 263
1830 264 262 256 259
1831 264 221 256 262
1832 259 240 263 241
1833 553 547 544 552
1834 250 240 252 258
1835 258 260 255 254
1836 261 260 255 258
1837 547 553 544 549
1838 581 573 398 393
1839 417 419 424 405
1840 253 258 240 259
1841 251 258 250 252
1842 258 251 250 257
1843 255 251 252 258
1844 405 419 426 550
1845 346 476 433 487
1846 393 256 394 410
1847 470 462 461 467
1848 393 264 394 256
1849 26 208 409 407
1850 412 26 409 407
1851 150 26 409 412
1852 547 582 583 544
1853 424 408 455 417
1854 418 393 398 410
1855 503 518 504 375
1856 199 208 409 26
1857 408 431 455 448
1858 26 140 409 199
1859 26 150 409 140
1860 559 585 587 549
1861 410 256 394 255
1862 221 255 394 256
1863 264 221 394 256
1864 396 399 395 401
1865 414 408 415 462
1866 264 573 394 262
1867 264 262 394 221
1868 586 584 577 576
1869 585 584 577 587
1870 261 262 394 573
1871 221 262 394 261
1872 261 573 394 220
1873 261 220 394 221
1874 476 481 485 477
1875 420 476 484 487
1876 210 208 411 209
1877 1060 1015 965 973
1878 452 448 455 459
1879 416 448 455 452
1880 424 419 426 405
1881 551 550 545 405
1882 422 347 346 432
1883 424 408 426 431
1884 420 431 426 408
1885 487 420 433 426
1886 476 477 346 334
1887 408 462 426 420
1888 1069 1205 1063 709
1889 463 555 470 556
1890 463 462 470 487
1891 991 986 990 984
1892 960 1205 955 952
1893 463 402 404 405
1894 553 562 544 549
1895 552 551 544 554
1896 421 420 433 422
1897 421 431 433 420
1898 557 551 567 556
1899 568 572 567 571
1900 557 556 567 571
1901 992 968 990 977
1902 1049 1054 1212 1206
1903 210 1205 411 208
1904 487 555 470 463
1905 418 581 545 405
1906 405 419 545 418
1907 555 550 463 487
1908 551 550 463 555
1909 522 527 528 523
1910 975 973 970 971
1911 551 555 463 556
1912 485 488 484 476
1913 545 551 544 552
1914 557 571 567 569
1915 487 488 470 555
1916 529 556 470 555
1917 529 475 470 525
1918 525 556 470 529
1919 475 529 470 488
1920 555 488 470 529
1921 472 475 471 467
1922 554 551 567 557
1923 561 565 562 563
1924 557 569 567 554
1925 577 587 578 585
1926 466 471 461 467
1927 495 532 536 496
1928 535 540 533 538
1929 473 474 472 469
1930 473 468 472 467
1931 475 467 472 468
1932 468 469 472 475
1933 473 469 472 468
1934 1000 996 997 1002
1935 1079 1117 1111 1119
1936 545 550 546 419
1937 561 566 562 565
1938 545 419 546 418
1939 481 1205 1075 482
1940 506 486 530 521
1941 529 556 571 525
1942 533 572 543 542
1943 568 525 571 556
1944 566 569 567 572
1945 471 467 466 472
1946 562 569 553 554
1947 800 799 803 846
1948 551 550 552 545
1949 561 570 560 562
1950 570 569 562 566
1951 562 570 560 569
1952 470 467 471 475
1953 572 568 566 539
1954 570 569 566 572
1955 537 564 566 570
1956 564 538 566 565
1957 539 565 566 538
1958 537 572 566 539
1959 570 572 566 537
1960 564 537 566 538
1961 539 538 566 537
1962 552 554 544 553
1963 581 393 582 575
1964 557 555 552 551
1965 398 399 401 394
1966 565 564 561 566
1967 487 488 484 470
1968 481 476 485 480
1969 546 545 552 550
1970 477 478 485 488
1971 1066 1077 1073 1075
1972 970 972 969 1015
1973 414 462 461 463
1974 557 554 553 569
1975 975 972 970 973
1976 904 899 913 906
1977 480 1205 481 476
1978 553 554 544 562
1979 549 560 558 548
1980 769 772 778 770
1981 580 549 586 583
1982 562 563 560 561
1983 551 555 552 550
1984 413 408 415 414
1985 557 551 552 554
1986 477 476 481 1205
1987 980 979 970 975
1988 478 477 481 1205
1989 470 488 484 475
1990 559 560 549 562
1991 549 547 583 544
1992 587 584 577 586
1993 418 545 582 546
1994 524 494 519 520
1995 1066 1072 1063 1075
1996 700 714 765 702
1997 475 467 484 470
1998 501 497 498 495
1999 476 477 485 488
2000 479 1205 963 480
2001 1212 1059 1054 1050
2002 960 952 961 963
2003 1205 478 483 482
2004 487 476 484 488
2005 1205 207 952 951
2006 476 480 479 484
2007 549 585 586 584
2008 548 547 549 553
2009 414 398 413 417
2010 476 1205 479 480
2011 549 548 583 547
2012 463 426 414 462
2013 405 426 414 463
2014 405 417 414 424
2015 417 408 414 424
2016 405 424 414 426
2017 426 408 414 462
2018 424 408 414 426
2019 1076 1066 1073 1065
2020 502 500 543 531
2021 522 526 528 527
2022 478 481 485 482
2023 481 478 485 477
2024 1205 478 482 481
2025 1050 1205 1213 1063
2026 408 1205 411 415
2027 1072 1205 1075 481
2028 401 414 404 398
2029 405 398 404 414
2030 401 398 404 399
2031 402 399 404 398
2032 464 463 404 461
2033 464 402 404 463
2034 560 562 559 563
2035 579 587 578 577
2036 583 576 586 580
2037 418 393 582 581
2038 402 400 404 399
2039 418 581 582 545
2040 400 402 404 403
2041 559 563 558 560
2042 396 401 395 397
2043 404 399 400 401
2044 560 563 558 561
2045 553 560 549 548
2046 546 547 544 582
2047 582 545 544 546
2048 552 547 544 546
2049 408 411 413 415
2050 575 573 574 580
2051 582 544 580 583
2052 397 193 395 396
2053 575 573 580 581
2054 989 982 984 987
2055 544 549 580 583
2056 484 462 479 420
2057 582 545 580 544
2058 582 581 580 545
2059 583 576 580 575
2060 582 575 580 581
2061 583 575 580 582
2062 410 417 413 398
2063 414 417 413 408
2064 977 974 968 978
2065 401 399 395 394
2066 407 408 413 417
2067 966 962 958 957
2068 575 594 574 573
2069 575 576 574 594
2070 595 594 574 576
2071 599 594 574 595
2072 220 594 574 599
2073 220 573 574 594
2074 194 193 397 396
2075 206 204 210 208
2076 1075 1062 1066 1072
2077 221 222 209 206
2078 1040 1043 1044 1039
2079 209 407 413 410
2080 579 577 601 586
2081 397 394 395 221
2082 193 222 397 221
2083 598 599 601 595
2084 600 597 601 579
2085 600 598 601 597
2086 586 576 601 574
2087 577 576 601 586
2088 574 576 601 595
2089 598 596 601 597
2090 595 596 601 598
2091 577 596 601 595
2092 577 579 601 578
2093 578 596 601 577
2094 577 595 601 576
2095 578 597 601 596
2096 579 597 601 578
2097 410 200 209 208
2098 206 208 209 200
2099 394 255 209 410
2100 221 255 209 394
2101 221 206 209 255
2102 968 972 1015 969
2103 955 1205 210 952
2104 415 1205 479 420
2105 410 255 209 200
2106 206 200 209 255
2107 411 408 413 407
2108 1074 1058 1060 1015
2109 733 760 728 736
2110 408 407 411 1205
2111 1205 208 210 204
2112 820 815 818 814
2113 992 972 968 974
2114 420 462 415 408
2115 484 420 479 476
2116 1062 1066 1058 1073
2117 960 1205 479 415
2118 962 952 966 964
2119 1074 1015 1043 1067
2120 1075 1205 1063 1077
2121 962 961 966 952
2122 1015 983 991 989
2123 1072 481 964 1205
2124 522 523 528 524
2125 1077 482 1075 1205
2126 964 963 962 961
2127 963 952 964 1205
2128 963 952 961 964
2129 1056 1058 1065 1015
2130 954 953 966 952
2131 952 951 1072 1205
2132 1049 1205 1072 951
2133 1058 1059 1062 1051
2134 964 952 966 1072
2135 1049 951 1072 953
2136 1066 1068 1064 1065
2137 1064 1065 1067 1015
2138 1036 1067 1043 1015
2139 1058 1066 1065 1073
2140 956 961 966 957
2141 957 965 956 1015
2142 641 616 620 640
2143 955 952 961 960
2144 953 934 1062 1051
2145 1015 1043 1040 1039
2146 828 819 827 836
2147 971 973 970 1015
2148 966 953 956 934
2149 1064 1068 1067 1065
2150 1073 1065 1074 1067
2151 1076 1070 1066 1068
2152 1066 1077 1076 1073
2153 932 924 935 923
2154 1076 1065 1067 1068
2155 961 952 962 964
2156 1062 1057 1059 1058
2157 966 953 1062 1072
2158 961 952 954 966
2159 954 955 961 959
2160 1072 952 966 951
2161 953 951 966 952
2162 1072 951 966 953
2163 1136 1179 1181 1135
2164 967 973 965 1015
2165 534 525 526 571
2166 957 966 956 965
2167 934 1062 966 953
2168 1070 1077 1069 1205
2169 962 961 958 957
2170 1062 934 966 1060
2171 1058 1059 1056 1057
2172 1035 1015 1040 1041
2173 1061 1074 1015 1043
2174 1024 1035 1032 1015
2175 1056 1057 1065 1058
2176 1058 1066 1057 1065
2177 1015 1065 1035 1064
2178 1070 1076 1066 1077
2179 975 979 969 974
2180 954 961 966 956
2181 1065 1015 1074 1067
2182 1065 1058 1074 1015
2183 1015 1064 1036 1067
2184 1035 1015 1024 1065
2185 1032 1015 1030 1026
2186 1032 1024 1030 1028
2187 1049 1206 1212 1205
2188 1026 1015 1030 1031
2189 1026 1028 1030 1024
2190 1035 1036 1040 1015
2191 1026 1031 1030 1028
2192 966 967 958 962
2193 966 954 956 953
2194 1015 1052 1060 934
2195 1058 1052 1060 1015
2196 1074 1073 1060 1058
2197 1062 1058 1060 1073
2198 1051 934 1060 1052
2199 1062 934 1060 1051
2200 1051 1058 1060 1062
2201 1051 1052 1060 1058
2202 957 983 958 1015
2203 985 972 958 1015
2204 965 1015 958 967
2205 1015 972 958 967
2206 962 961 957 966
2207 975 974 969 972
2208 966 934 956 1060
2209 965 1060 956 1015
2210 934 1015 956 1060
2211 957 1015 958 965
2212 965 966 958 957
2213 965 967 958 966
2214 933 936 981 1015
2215 982 936 989 981
2216 1015 983 981 956
2217 956 933 981 1015
2218 956 983 981 957
2219 989 983 984 981
2220 1015 1043 1039 971
2221 1015 973 970 972
2222 534 500 543 527
2223 989 990 984 991
2224 984 987 988 989
2225 972 992 968 985
2226 475 488 521 529
2227 976 971 970 980
2228 976 975 970 971
2229 980 975 970 976
2230 975 973 971 976
2231 976 1061 971 1043
2232 1015 1043 971 1061
2233 1061 973 971 1015
2234 976 973 971 1061
2235 1043 1040 1044 1036
2236 976 1043 1039 1044
2237 971 1043 1039 976
2238 985 1015 991 968
2239 1024 1056 1065 1026
2240 980 971 1039 976
2241 980 976 1039 1044
2242 1015 983 989 981
2243 987 936 989 982
2244 991 992 990 986
2245 975 972 969 970
2246 970 979 969 975
2247 974 979 969 978
2248 1036 1035 1040 1045
2249 1044 1036 1040 1045
2250 1076 1066 1065 1068
2251 493 1089 495 490
2252 1046 1045 1040 1047
2253 1046 1047 1040 1039
2254 1046 1044 1040 1045
2255 1039 1044 1040 1046
2256 859 860 864 865
2257 1032 1024 1028 1037
2258 521 488 530 528
2259 1045 1041 1035 1040
2260 1045 1048 1047 1038
2261 1102 1104 496 489
2262 712 1205 704 1071
2263 1032 1024 1037 1035
2264 1038 1042 1037 1041
2265 1032 1041 1037 1042
2266 1038 1041 1037 1035
2267 1032 1035 1037 1041
2268 1071 1205 483 1070
2269 536 501 542 531
2270 998 1017 1005 1016
2271 1075 1077 1063 1066
2272 1037 1032 1033 1028
2273 1037 1042 1033 1032
2274 1070 1205 483 1077
2275 1099 1100 1103 1101
2276 1032 1015 1026 1024
2277 1026 1024 1030 1032
2278 1025 1023 1021 1031
2279 1028 1031 1030 1029
2280 1077 1205 483 482
2281 1205 1069 712 709
2282 515 521 528 526
2283 1030 1031 1034 1029
2284 495 490 499 493
2285 472 469 517 475
2286 508 726 509 724
2287 736 734 691 699
2288 710 708 722 713
2289 1079 1081 1083 1078
2290 526 529 528 527
2291 1205 1070 1071 1069
2292 1070 1077 1066 1069
2293 968 972 969 974
2294 1188 663 670 669
2295 726 724 725 721
2296 1101 1100 1103 1104
2297 493 490 499 492
2298 1080 1081 1083 1085
2299 1168 1078 1170 1117
2300 1172 1171 1169 1173
2301 491 1090 707 711
2302 1188 1171 1169 1187
2303 859 863 855 860
2304 1082 1086 1084 1081
2305 1099 1098 1095 1096
2306 1097 1100 1096 1098
2307 1103 1104 496 1102
2308 1165 1163 1174 1173
2309 528 524 530 515
2310 1087 490 1089 492
2311 1088 1101 1082 1098
2312 490 1087 1089 1088
2313 1101 1100 1098 1099
2314 1081 1088 1082 1086
2315 503 1071 704 1205
2316 1011 1016 1013 1019
2317 1088 1086 1102 1098
2318 1103 1104 1102 489
2319 876 877 869 853
2320 1087 1090 1085 707
2321 718 720 717 715
2322 624 677 620 683
2323 711 708 1085 707
2324 717 708 700 1080
2325 478 488 486 485
2326 725 708 711 713
2327 513 508 514 516
2328 525 475 521 529
2329 1102 1088 1089 1086
2330 526 522 528 515
2331 722 708 725 713
2332 770 794 793 784
2333 811 791 788 787
2334 1097 1096 1093 1091
2335 490 1088 1089 1102
2336 507 511 505 512
2337 1103 1104 489 1101
2338 515 522 528 524
2339 489 1088 1102 1101
2340 1098 1101 1102 1088
2341 1099 1101 1102 1098
2342 1103 1101 1102 1099
2343 827 826 837 818
2344 1102 490 495 1089
2345 489 1088 490 1102
2346 1086 1088 1089 1087
2347 726 721 725 723
2348 722 723 725 721
2349 721 708 725 722
2350 724 708 725 721
2351 818 826 837 815
2352 478 485 486 482
2353 496 489 495 1102
2354 497 489 495 496
2355 485 488 486 475
2356 571 529 526 527
2357 472 474 517 469
2358 508 724 509 510
2359 475 468 486 485
2360 483 478 486 482
2361 492 493 494 499
2362 497 489 498 495
2363 496 1104 497 489
2364 492 1089 1090 493
2365 521 488 528 529
2366 805 810 807 808
2367 502 494 523 493
2368 478 345 530 346
2369 533 531 543 534
2370 796 784 790 826
2371 510 514 509 508
2372 542 531 535 541
2373 808 810 807 828
2374 762 761 733 734
2375 801 797 798 806
2376 707 1090 1085 711
2377 495 496 536 501
2378 500 502 527 523
2379 534 572 533 568
2380 493 500 523 502
2381 501 495 531 536
2382 515 508 512 507
2383 478 346 530 488
2384 535 541 533 542
2385 501 496 536 497
2386 533 534 543 572
2387 890 891 892 888
2388 536 495 531 532
2389 541 536 542 532
2390 495 496 501 497
2391 534 571 543 572
2392 541 532 542 531
2393 492 493 520 494
2394 542 531 543 533
2395 539 538 533 540
2396 819 808 828 810
2397 493 499 502 494
2398 310 311 314 315
2399 531 495 502 500
2400 531 501 502 495
2401 500 495 502 493
2402 499 493 502 495
2403 495 501 502 498
2404 498 499 502 495
2405 513 469 517 474
2406 530 478 504 345
2407 568 525 534 571
2408 568 572 533 539
2409 514 513 517 474
2410 516 513 517 514
2411 736 739 728 740
2412 518 515 530 524
2413 515 510 512 508
2414 527 571 543 534
2415 534 531 543 500
2416 527 500 526 534
2417 724 725 711 508
2418 572 568 534 571
2419 571 525 526 529
2420 535 538 533 541
2421 542 541 533 537
2422 542 537 533 572
2423 539 572 533 537
2424 537 538 533 539
2425 541 538 533 537
2426 531 501 543 502
2427 542 501 543 531
2428 799 802 804 849
2429 807 804 810 805
2430 488 475 521 486
2431 515 521 530 528
2432 515 506 530 521
2433 475 469 521 486
2434 517 469 521 475
2435 486 469 521 506
2436 517 513 521 469
2437 506 469 521 513
2438 521 513 515 506
2439 478 488 530 486
2440 841 849 848 847
2441 829 831 828 825
2442 523 524 522 520
2443 828 836 827 834
2444 507 506 518 515
2445 526 527 522 500
2446 523 500 522 527
2447 523 493 522 500
2448 520 493 522 523
2449 760 686 691 766
2450 519 520 512 524
2451 506 513 515 507
2452 516 510 515 508
2453 503 372 362 367
2454 517 513 515 521
2455 517 516 515 513
2456 513 508 515 507
2457 516 508 515 513
2458 1090 512 711 491
2459 825 861 828 809
2460 492 1087 1090 1089
2461 738 308 309 737
2462 492 1087 707 1090
2463 486 488 530 521
2464 507 512 505 711
2465 709 1205 704 712
2466 367 505 704 503
2467 686 688 691 766
2468 724 708 711 725
2469 518 519 512 524
2470 515 507 512 518
2471 511 518 512 507
2472 813 836 827 819
2473 511 519 505 512
2474 518 524 512 515
2475 510 508 711 512
2476 492 493 1090 520
2477 492 1090 707 491
2478 802 805 800 803
2479 693 687 695 694
2480 840 873 771 844
2481 507 725 711 713
2482 1054 1058 1020 1053
2483 718 715 717 714
2484 877 903 905 906
2485 1087 1089 1085 1090
2486 876 874 857 870
2487 524 522 512 515
2488 524 520 512 522
2489 1209 1205 1174 1211
2490 915 767 732 768
2491 1090 520 491 492
2492 1090 512 491 520
2493 519 520 491 512
2494 494 520 491 519
2495 494 492 491 520
2496 510 724 711 508
2497 507 508 711 725
2498 512 508 711 507
2499 900 898 866 903
2500 693 687 694 690
2501 804 805 803 809
2502 839 862 847 845
2503 705 713 505 711
2504 711 713 505 507
2505 829 852 825 797
2506 512 491 505 711
2507 491 512 505 519
2508 705 711 505 491
2509 878 852 867 778
2510 710 712 704 713
2511 1176 664 1169 1188
2512 915 767 768 910
2513 756 764 765 763
2514 701 764 703 734
2515 1176 1161 1169 664
2516 362 366 371 369
2517 346 347 335 345
2518 732 736 740 915
2519 824 822 823 816
2520 806 810 828 807
2521 878 778 867 880
2522 879 870 871 858
2523 828 797 829 825
2524 858 870 871 857
2525 833 828 834 836
2526 836 812 807 828
2527 778 852 793 829
2528 817 815 822 838
2529 907 853 856 877
2530 847 849 850 800
2531 825 831 832 852
2532 791 790 823 817
2533 860 863 843 859
2534 861 852 866 865
2535 907 905 906 877
2536 860 861 825 797
2537 852 829 825 831
2538 860 863 864 843
2539 865 860 864 861
2540 839 850 851 840
2541 1097 1091 1093 1118
2542 779 773 776 775
2543 709 704 710 712
2544 778 780 793 770
2545 880 873 872 879
2546 859 860 865 861
2547 843 798 864 860
2548 854 855 857 859
2549 801 864 797 799
2550 866 898 891 897
2551 816 817 823 820
2552 789 785 788 787
2553 859 860 825 852
2554 861 860 825 859
2555 769 873 872 880
2556 888 889 892 890
2557 907 916 906 909
2558 902 898 895 894
2559 770 772 774 786
2560 909 865 908 856
2561 858 862 857 841
2562 282 284 286 287
2563 906 908 907 909
2564 854 859 862 855
2565 909 856 908 907
2566 876 853 857 854
2567 861 865 905 908
2568 908 865 905 856
2569 778 769 867 880
2570 908 856 905 907
2571 877 907 905 856
2572 905 907 906 908
2573 802 799 800 849
2574 861 860 864 797
2575 797 860 864 798
2576 803 805 808 810
2577 808 812 821 819
2578 802 799 804 803
2579 801 810 807 804
2580 849 864 801 799
2581 828 797 825 809
2582 828 833 830 836
2583 864 797 809 861
2584 825 861 809 797
2585 836 830 828 806
2586 846 843 864 863
2587 918 913 917 914
2588 782 783 779 776
2589 797 799 864 809
2590 859 865 864 855
2591 799 846 864 863
2592 797 798 806 830
2593 858 874 857 854
2594 681 1163 1174 756
2595 836 827 835 837
2596 777 774 775 785
2597 827 819 818 821
2598 847 846 845 843
2599 864 849 801 843
2600 1091 1118 1092 1093
2601 800 849 850 802
2602 863 843 845 846
2603 757 684 685 759
2604 332 325 329 327
2605 864 861 809 865
2606 692 696 697 698
2607 913 896 911 767
2608 871 876 866 865
2609 702 700 703 701
2610 901 903 866 869
2611 824 822 811 823
2612 704 503 697 367
2613 795 786 789 784
2614 801 799 797 809
2615 917 913 916 914
2616 767 910 892 753
2617 828 830 797 806
2618 801 797 806 809
2619 819 812 828 808
2620 746 762 750 727
2621 799 804 803 809
2622 809 799 810 803
2623 792 790 788 791
2624 819 812 813 836
2625 1158 1154 1167 1172
2626 803 805 810 809
2627 806 809 828 810
2628 809 805 810 804
2629 808 812 807 805
2630 1112 1111 1116 1119
2631 836 812 813 807
2632 827 821 818 814
2633 828 833 829 830
2634 831 829 793 852
2635 794 795 796 784
2636 879 870 868 871
2637 729 740 730 735
2638 828 833 834 831
2639 836 806 828 807
2640 828 812 807 808
2641 818 813 837 827
2642 321 332 329 333
2643 789 786 787 784
2644 1185 1186 1162 1178
2645 814 813 818 827
2646 740 307 309 310
2647 827 813 837 836
2648 891 893 892 898
2649 717 1160 1157 715
2650 890 893 892 891
2651 770 795 780 794
2652 814 821 818 820
2653 816 815 820 814
2654 792 791 811 817
2655 832 831 793 852
2656 1014 1023 1021 1025
2657 785 774 787 786
2658 817 816 823 822
2659 770 777 780 795
2660 860 852 878 797
2661 734 768 732 767
2662 1094 1096 1095 1098
2663 1189 1219 1175 1202
2664 867 852 793 778
2665 783 777 780 770
2666 862 859 841 843
2667 847 875 841 862
2668 770 772 780 783
2669 772 783 779 780
2670 858 870 857 874
2671 836 834 835 827
2672 796 792 788 789
2673 826 815 838 837
2674 795 784 789 796
2675 843 849 847 846
2676 641 683 620 615
2677 615 683 670 641
2678 732 735 740 736
2679 777 770 783 774
2680 774 770 783 772
2681 835 838 826 796
2682 859 853 857 856
2683 832 784 793 794
2684 1084 1081 1083 1079
2685 727 761 733 762
2686 859 863 862 855
2687 846 849 847 800
2688 879 880 867 872
2689 828 831 832 825
2690 795 770 784 794
2691 795 786 784 770
2692 835 838 837 826
2693 784 835 796 794
2694 834 838 837 835
2695 816 815 817 820
2696 838 826 817 815
2697 503 713 704 1071
2698 876 856 866 865
2699 796 790 788 792
2700 1190 1194 1182 1192
2701 818 815 817 826
2702 820 815 817 818
2703 871 872 866 900
2704 889 886 890 888
2705 796 826 790 838
2706 791 790 787 786
2707 823 791 811 824
2708 866 901 868 900
2709 889 893 900 894
2710 717 1080 1157 1083
2711 775 783 779 772
2712 1140 1141 1138 1137
2713 785 774 788 787
2714 698 350 351 348
2715 811 792 788 791
2716 1180 1179 1136 1145
2717 774 772 787 786
2718 838 796 792 790
2719 837 822 815 838
2720 787 791 788 790
2721 822 838 792 817
2722 849 848 847 850
2723 817 790 792 791
2724 1109 1116 1108 1146
2725 790 826 792 838
2726 817 826 792 790
2727 817 838 792 826
2728 879 844 880 873
2729 1177 1190 1182 1181
2730 1082 1098 1084 1086
2731 774 777 775 783
2732 836 815 813 837
2733 815 824 816 822
2734 817 791 811 823
2735 823 822 811 817
2736 795 770 785 786
2737 774 786 785 770
2738 770 777 785 774
2739 795 777 785 770
2740 774 772 775 773
2741 841 849 847 843
2742 839 847 851 850
2743 790 784 788 787
2744 790 796 788 784
2745 789 784 788 796
2746 787 784 788 789
2747 779 773 782 776
2748 827 852 832 826
2749 663 664 670 662
2750 875 847 842 839
2751 772 773 771 769
2752 1025 1031 1021 1015
2753 832 852 793 784
2754 872 880 867 769
2755 794 835 832 784
2756 778 829 878 852
2757 847 875 842 841
2758 839 850 840 847
2759 862 854 857 859
2760 1084 1082 1079 1091
2761 847 842 850 848
2762 1015 1014 1018 1025
2763 843 863 862 859
2764 845 863 862 843
2765 841 842 847 848
2766 1187 1172 1169 1176
2767 715 720 717 1160
2768 844 873 879 839
2769 839 842 879 844
2770 771 769 880 873
2771 706 734 703 764
2772 779 775 776 783
2773 916 906 913 921
2774 850 847 851 842
2775 850 842 851 848
2776 771 873 880 844
2777 862 859 857 841
2778 839 842 851 847
2779 778 769 880 779
2780 625 684 757 624
2781 777 783 776 775
2782 779 769 880 771
2783 1174 1171 1169 1205
2784 1158 1172 1167 1173
2785 851 850 781 840
2786 1156 1154 1167 1158
2787 879 852 878 860
2788 1082 1101 1097 1098
2789 840 773 781 782
2790 794 770 793 780
2791 872 873 871 879
2792 782 773 781 776
2793 797 852 878 829
2794 864 800 799 849
2795 840 775 781 773
2796 776 773 781 775
2797 875 873 879 874
2798 869 906 903 877
2799 840 839 844 851
2800 840 873 844 839
2801 781 840 844 851
2802 875 842 879 839
2803 839 873 879 875
2804 1087 1086 1081 1085
2805 775 773 769 779
2806 775 772 769 773
2807 779 772 769 775
2808 1098 1101 1097 1100
2809 1087 1088 1081 1086
2810 875 873 771 839
2811 839 873 771 840
2812 840 773 771 839
2813 782 773 771 840
2814 779 773 771 782
2815 769 773 771 779
2816 857 870 871 876
2817 844 781 771 840
2818 782 781 771 844
2819 782 840 771 781
2820 723 722 720 721
2821 1091 1119 1112 1118
2822 869 903 866 877
2823 719 722 720 723
2824 719 718 715 720
2825 1097 1098 1094 1082
2826 1112 1146 1116 1105
2827 722 708 717 721
2828 1164 1163 1165 1167
2829 702 710 717 718
2830 722 721 717 720
2831 1096 1098 1094 1097
2832 718 722 720 719
2833 1081 1078 1079 1117
2834 716 720 715 1160
2835 1091 1096 1092 1095
2836 1168 1164 1166 1185
2837 1119 1082 1118 1091
2838 1094 1098 1084 1082
2839 702 718 717 714
2840 1164 1185 1168 1110
2841 1012 1015 1025 1014
2842 759 686 766 688
2843 1021 1025 1018 1014
2844 1086 1085 1083 1081
2845 623 618 620 619
2846 1083 1080 1157 1078
2847 1092 1118 1113 1093
2848 1079 1082 1119 1091
2849 1080 708 1083 717
2850 1080 1078 1083 1081
2851 1157 1173 1165 714
2852 662 672 670 666
2853 1207 1215 1210 1208
2854 1162 1185 1166 1164
2855 1094 1097 1091 1096
2856 619 615 620 677
2857 1093 1096 1092 1091
2858 1091 1082 1118 1097
2859 1165 714 700 1157
2860 1094 1082 1091 1097
2861 1109 1145 1186 1105
2862 1212 1205 1210 1211
2863 1084 1082 1091 1094
2864 1105 1146 1109 1145
2865 1116 1146 1109 1105
2866 1081 1082 1119 1079
2867 1079 1117 1119 1081
2868 1111 1117 1116 1119
2869 1209 714 1174 1173
2870 1018 1009 1013 1014
2871 761 763 760 734
2872 719 720 715 716
2873 1054 1215 1210 1207
2874 1157 714 700 717
2875 1014 1015 1018 1009
2876 1207 1208 1210 1205
2877 1050 1205 1212 1213
2878 1207 1205 1210 1212
2879 1026 1015 1027 1058
2880 1205 1208 1171 1207
2881 1086 1081 1083 1084
2882 872 769 867 770
2883 704 706 703 705
2884 310 307 309 311
2885 624 625 620 623
2886 1016 1009 1018 1015
2887 619 618 620 616
2888 1209 1211 1210 1205
2889 1019 1016 1017 1011
2890 1205 1208 1210 1171
2891 1141 1146 1143 1142
2892 1072 1205 1050 1063
2893 1072 1049 1050 1205
2894 1049 1053 1050 1054
2895 1050 1059 1054 1053
2896 956 961 957 959
2897 1020 1015 1025 1012
2898 1027 1029 1025 1031
2899 1051 1053 1050 1049
2900 1051 1059 1050 1053
2901 1027 1031 1025 1015
2902 1062 1059 1050 1051
2903 1063 1066 1050 1072
2904 1057 1066 1050 1063
2905 1057 1050 1062 1059
2906 1229 927 923 1231
2907 1062 1075 1066 1073
2908 953 1072 1050 1062
2909 953 1049 1050 1072
2910 953 1051 1050 1049
2911 1062 1051 1050 953
2912 1066 1050 1062 1057
2913 1066 1072 1062 1050
2914 1020 1027 1015 1058
2915 1062 1066 1057 1058
2916 1027 1020 1015 1025
2917 1028 1033 1034 1030
2918 1030 1029 1034 1028
2919 1023 1022 1021 1034
2920 1034 1031 1021 1029
2921 1023 1029 1021 1031
2922 1034 1029 1021 1023
2923 1016 998 1011 1009
2924 1113 1118 1114 1093
2925 663 1219 1175 1216
2926 624 623 620 619
2927 1011 1009 1013 1016
2928 1018 1023 1013 1022
2929 1018 1016 1013 1009
2930 1018 1014 1013 1023
2931 1140 1129 1137 1139
2932 1139 1141 1140 1142
2933 1159 1154 1156 1158
2934 1190 1192 1182 1181
2935 624 683 620 625
2936 1220 1219 1202 1203
2937 1220 1194 1202 1189
2938 1220 1189 1202 1219
2939 1106 1146 1143 1107
2940 1108 1107 1143 1146
2941 1154 1152 1148 1155
2942 1110 1111 1168 1117
2943 1196 1194 1149 1199
2944 784 817 790 826
2945 1186 1145 1180 1105
2946 1143 1142 1140 1141
2947 1144 1146 1141 1145
2948 1091 1118 1112 1092
2949 1114 1106 1112 1113
2950 1105 1111 1116 1112
2951 1149 1194 1182 1202
2952 1134 1120 1135 1121
2953 1180 1177 1183 1179
2954 1112 1119 1116 1115
2955 1105 1185 1180 1186
2956 1139 1142 1140 1143
2957 1184 1153 1182 1187
2958 1177 1189 1182 1190
2959 1148 1154 1151 1153
2960 1110 1105 1168 1111
2961 1136 1145 1141 1146
2962 1091 1079 1112 1119
2963 1150 1196 1147 1149
2964 1183 1177 1184 1181
2965 1110 1116 1109 1105
2966 1162 1185 1164 1186
2967 1079 1078 1111 1117
2968 1197 1196 1149 1199
2969 1113 1092 1112 1118
2970 1158 1160 1156 1159
2971 1078 1117 1168 1111
2972 1176 1172 1166 1184
2973 1116 1105 1110 1111
2974 1110 1105 1186 1185
2975 1146 1106 1112 1107
2976 1162 1178 1166 1185
2977 676 683 1169 664
2978 1111 1117 1110 1116
2979 1167 1164 1166 1168
2980 665 669 670 662
2981 1112 1119 1115 1118
2982 1112 1106 1115 1107
2983 1114 1106 1115 1112
2984 1114 1107 1115 1106
2985 1149 1197 1150 1196
2986 1163 1161 1166 1162
2987 1152 1154 1166 1167
2988 1112 1118 1115 1113
2989 1114 1113 1115 1118
2990 1112 1113 1115 1114
2991 1149 1153 1147 1150
2992 1139 1142 1138 1141
2993 1133 1121 1137 1123
2994 1105 1185 1136 1180
2995 1180 1145 1136 1105
2996 1189 1177 1182 1175
2997 1105 1145 1136 1146
2998 1190 1179 1181 1177
2999 1131 1130 1137 1133
3000 1202 1194 1182 1189
3001 1155 1154 1151 1148
3002 1109 1146 1108 1145
3003 1202 1199 1149 1194
3004 1141 1144 1143 1146
3005 1108 1146 1143 1144
3006 1121 1120 1135 1123
3007 1116 1112 1108 1146
3008 1115 1112 1108 1116
3009 1120 1192 1181 1135
3010 1134 1144 1140 1141
3011 1137 1121 1135 1123
3012 1141 1144 1140 1143
3013 1153 1151 1147 1150
3014 1202 1189 1182 1175
3015 1147 1153 1184 1148
3016 1136 1145 1134 1141
3017 1183 1179 1181 1136
3018 1137 1141 1135 1134
3019 1183 1180 1178 1177
3020 1140 1141 1137 1134
3021 1137 1139 1138 1140
3022 1176 1172 1184 1187
3023 1120 1192 1135 1123
3024 1136 1179 1134 1145
3025 1134 1179 1135 1120
3026 1180 1179 1183 1136
3027 1176 1187 1184 1175
3028 1183 1177 1181 1179
3029 1121 1129 1137 1140
3030 1121 1133 1137 1129
3031 1139 1129 1137 1130
3032 1133 1130 1137 1129
3033 1137 1130 1138 1139
3034 1184 1187 1182 1175
3035 689 687 692 693
3036 1135 1179 1181 1120
3037 1153 1187 1184 1172
3038 1158 1160 1157 1156
3039 778 770 867 769
3040 649 652 648 651
3041 647 659 665 660
3042 1183 1185 1178 1180
3043 1185 1186 1178 1180
3044 1149 1153 1182 1147
3045 1149 1202 1182 1187
3046 1184 1177 1182 1181
3047 1190 1192 1181 1120
3048 1120 1179 1181 1190
3049 893 898 895 902
3050 1154 1152 1184 1148
3051 1158 1173 1157 715
3052 770 772 778 780
3053 1154 1153 1184 1172
3054 1148 1153 1184 1154
3055 1167 1173 1157 1158
3056 737 729 738 730
3057 1164 1167 1165 1170
3058 664 683 675 676
3059 1167 1172 1166 1163
3060 1170 1078 1157 1080
3061 624 619 620 677
3062 1157 1080 700 1170
3063 1184 1172 1166 1154
3064 872 769 871 873
3065 641 615 620 616
3066 759 684 1174 756
3067 715 1160 1157 1158
3068 870 879 874 858
3069 866 900 891 898
3070 916 906 904 913
3071 751 881 754 753
3072 861 865 866 905
3073 1154 1152 1166 1184
3074 1157 1167 1165 1173
3075 1163 1173 1167 1172
3076 622 618 620 623
3077 1176 1161 1166 1172
3078 1162 1176 1166 1178
3079 1188 664 1169 670
3080 1157 1170 1165 1167
3081 676 664 1169 1161
3082 1164 1163 1166 1162
3083 1162 1161 1166 1176
3084 505 713 704 503
3085 751 882 754 881
3086 1183 1178 1166 1184
3087 1183 1185 1166 1178
3088 714 702 700 717
3089 877 903 866 905
3090 1081 1085 1080 1087
3091 707 1087 1080 1085
3092 1085 708 1080 707
3093 896 899 892 767
3094 764 700 765 701
3095 718 722 717 720
3096 710 722 717 718
3097 710 708 717 722
3098 1163 1173 1165 1167
3099 778 770 793 867
3100 1168 1167 1170 1078
3101 1164 1167 1170 1168
3102 1168 1117 1170 1110
3103 1168 1110 1170 1164
3104 876 856 857 853
3105 1157 717 700 1080
3106 763 753 754 881
3107 717 702 700 710
3108 717 710 700 708
3109 705 708 700 710
3110 707 708 700 705
3111 1080 708 700 707
3112 903 913 899 906
3113 887 885 886 883
3114 888 884 892 887
3115 858 854 857 862
3116 779 780 778 772
3117 827 826 832 835
3118 825 852 832 827
3119 779 772 778 769
3120 770 784 793 867
3121 699 734 691 706
3122 784 852 793 867
3123 902 900 898 894
3124 676 683 675 680
3125 853 877 869 856
3126 874 875 858 879
3127 854 875 858 874
3128 844 779 880 771
3129 876 874 854 857
3130 841 842 858 875
3131 859 852 858 860
3132 879 875 858 842
3133 854 875 862 858
3134 841 875 858 862
3135 879 860 858 852
3136 851 782 844 781
3137 853 855 857 854
3138 853 859 857 855
3139 858 859 857 852
3140 876 865 857 856
3141 859 856 857 865
3142 861 859 857 865
3143 865 852 857 861
3144 825 861 857 852
3145 859 861 857 825
3146 825 852 857 859
3147 897 898 891 899
3148 828 825 832 827
3149 834 827 832 835
3150 834 828 832 827
3151 882 884 883 885
3152 835 826 832 784
3153 869 870 868 901
3154 784 826 832 852
3155 870 873 879 868
3156 872 879 871 858
3157 858 857 871 872
3158 900 893 891 898
3159 866 877 856 869
3160 905 903 866 906
3161 857 852 871 872
3162 857 865 871 852
3163 876 865 871 857
3164 878 879 867 852
3165 880 879 867 878
3166 858 879 867 872
3167 858 852 867 879
3168 857 858 867 872
3169 857 852 867 858
3170 872 852 867 857
3171 898 894 900 893
3172 899 767 910 892
3173 753 768 910 887
3174 913 922 918 920
3175 866 903 897 906
3176 710 705 703 700
3177 867 894 900 872
3178 898 903 900 901
3179 871 770 769 872
3180 872 894 900 871
3181 872 784 770 867
3182 85 107 100 105
3183 871 894 895 872
3184 901 866 868 869
3185 871 894 900 868
3186 893 894 895 898
3187 868 894 900 902
3188 900 902 898 901
3189 868 902 900 901
3190 889 894 895 893
3191 902 871 894 895
3192 905 865 866 856
3193 825 861 866 905
3194 825 852 866 861
3195 876 870 866 869
3196 853 876 866 869
3197 867 852 866 900
3198 867 872 866 852
3199 900 872 866 867
3200 868 871 866 900
3201 871 870 868 866
3202 876 853 866 856
3203 868 869 866 870
3204 729 738 740 307
3205 869 856 866 853
3206 885 882 886 883
3207 906 903 897 899
3208 866 898 897 903
3209 899 903 897 898
3210 913 897 904 896
3211 763 881 885 887
3212 761 763 762 750
3213 685 628 627 625
3214 891 884 892 888
3215 767 768 762 734
3216 881 752 753 751
3217 885 763 754 881
3218 753 768 887 763
3219 763 881 887 753
3220 883 887 888 886
3221 753 752 754 751
3222 700 1165 765 714
3223 1211 1174 714 765
3224 702 710 703 700
3225 887 881 884 753
3226 882 884 885 881
3227 764 1165 765 700
3228 766 701 703 734
3229 733 761 728 760
3230 622 628 627 626
3231 891 899 892 897
3232 761 734 762 768
3233 763 752 754 753
3234 740 733 729 728
3235 757 628 685 625
3236 703 706 691 734
3237 881 884 883 882
3238 885 884 883 887
3239 753 910 892 887
3240 887 885 888 886
3241 649 647 651 645
3242 658 659 665 657
3243 900 894 890 889
3244 890 889 892 893
3245 886 883 890 891
3246 888 886 890 891
3247 897 884 892 891
3248 891 883 888 886
3249 891 884 888 883
3250 767 763 762 768
3251 900 893 890 891
3252 900 889 890 893
3253 888 893 892 889
3254 623 628 622 621
3255 639 669 670 631
3256 676 683 680 681
3257 1213 1211 765 1205
3258 629 637 639 669
3259 748 755 680 754
3260 755 681 680 684
3261 910 919 899 912
3262 756 1163 1174 1165
3263 683 684 680 681
3264 683 682 680 684
3265 754 755 680 684
3266 754 684 680 682
3267 674 680 678 679
3268 678 683 677 682
3269 757 625 685 684
3270 748 751 679 747
3271 621 618 622 623
3272 754 748 679 680
3273 754 682 679 748
3274 680 682 679 754
3275 760 763 750 754
3276 679 751 744 747
3277 1174 1165 765 756
3278 617 618 621 623
3279 652 649 654 653
3280 635 632 638 630
3281 679 751 742 744
3282 638 630 639 633
3283 644 650 645 646
3284 1163 1161 1169 1172
3285 647 657 665 659
3286 674 652 673 671
3287 643 657 647 650
3288 658 669 665 661
3289 649 651 648 646
3290 640 633 641 616
3291 630 632 638 634
3292 646 651 645 649
3293 643 650 647 645
3294 678 679 742 673
3295 651 660 653 671
3296 658 669 631 665
3297 746 752 750 745
3298 631 665 670 615
3299 648 649 654 652
3300 658 629 631 669
3301 652 651 653 671
3302 652 649 653 651
3303 638 633 641 640
3304 651 659 647 660
3305 651 650 647 659
3306 645 650 647 651
3307 660 659 665 662
3308 661 659 665 658
3309 662 659 665 661
3310 648 652 654 656
3311 1188 664 670 663
3312 684 759 757 758
3313 633 631 639 641
3314 1173 1171 1174 1209
3315 633 635 640 638
3316 615 683 677 666
3317 664 683 670 672
3318 629 669 639 631
3319 662 672 666 671
3320 660 671 666 653
3321 660 647 666 665
3322 660 653 666 647
3323 660 662 666 671
3324 665 662 666 660
3325 642 635 640 633
3326 639 631 670 641
3327 623 625 622 628
3328 616 631 641 615
3329 633 631 641 616
3330 641 631 670 615
3331 629 631 639 633
3332 629 630 639 637
3333 633 630 639 629
3334 630 634 639 637
3335 638 634 639 630
3336 662 664 670 672
3337 618 616 619 617
3338 1174 1211 714 1209
3339 761 768 762 763
3340 1213 1205 701 709
3341 673 744 742 654
3342 766 734 691 760
3343 1174 684 1169 681
3344 678 666 677 683
3345 666 672 670 683
3346 618 616 617 642
3347 679 744 742 673
3348 671 653 678 666
3349 672 683 678 675
3350 666 683 678 672
3351 671 675 678 674
3352 683 680 678 675
3353 683 682 678 680
3354 672 671 678 666
3355 672 675 678 671
3356 679 680 678 682
3357 680 674 678 675
3358 622 625 627 628
3359 678 679 673 674
3360 671 653 673 678
3361 678 674 673 671
3362 744 656 673 679
3363 654 656 673 744
3364 679 656 673 674
3365 654 652 673 656
3366 653 652 673 654
3367 671 652 673 653
3368 652 674 673 656
3369 741 744 743 654
3370 748 751 742 679
3371 623 625 757 624
3372 679 682 742 748
3373 742 744 741 654
3374 751 747 746 742
3375 677 683 624 682
3376 684 682 624 683
3377 625 684 624 683
3378 747 751 746 752
3379 747 752 746 745
3380 1209 1171 1174 1205
3381 1163 1173 1169 1174
3382 765 1213 702 1211
3383 1163 1172 1169 1173
3384 746 745 741 747
3385 747 742 741 746
3386 742 747 741 751
3387 744 751 741 747
3388 742 751 741 744
3389 654 656 743 655
3390 654 744 743 656
3391 747 744 743 741
3392 741 745 743 747
3393 669 1219 1188 663
3394 1165 1173 1174 714
3395 1174 1173 1169 1171
3396 750 767 753 763
3397 664 663 1188 1176
3398 1213 765 702 701
3399 688 686 687 685
3400 703 734 691 766
3401 681 676 1169 1163
3402 681 684 1169 683
3403 756 684 1174 681
3404 681 1163 1169 1174
3405 1213 1205 765 701
3406 1175 1176 1188 663
3407 1175 663 1188 1219
3408 1174 1205 765 1211
3409 1205 1171 1188 1204
3410 734 768 701 764
3411 738 731 730 735
3412 733 761 729 728
3413 1172 1161 1169 1176
3414 749 752 750 746
3415 763 752 750 754
3416 1175 1187 1188 1176
3417 1204 1171 1188 1187
3418 1203 1188 1202 1204
3419 1205 1203 1188 1219
3420 1204 1203 1188 1205
3421 1175 1202 1188 1187
3422 1219 1202 1188 1175
3423 1204 1187 1188 1202
3424 1188 1203 1202 1219
3425 1045 1041 1048 1038
3426 757 759 685 686
3427 755 763 759 754
3428 754 684 759 755
3429 758 624 757 684
3430 755 756 759 763
3431 755 684 759 756
3432 760 759 757 686
3433 759 686 688 685
3434 623 628 757 625
3435 365 736 697 366
3436 704 706 697 691
3437 756 763 765 759
3438 1174 714 765 1165
3439 1174 756 765 759
3440 683 676 1169 681
3441 1188 1205 1169 1171
3442 762 750 727 761
3443 764 768 701 763
3444 750 749 727 761
3445 622 628 626 621
3446 686 628 685 757
3447 748 682 758 754
3448 754 751 758 748
3449 740 735 729 733
3450 684 682 758 624
3451 728 736 365 739
3452 754 684 758 759
3453 754 682 758 684
3454 760 754 758 763
3455 759 763 758 754
3456 760 763 758 759
3457 748 751 749 742
3458 758 751 749 748
3459 758 748 749 682
3460 742 682 749 748
3461 762 745 746 750
3462 685 688 689 687
3463 361 335 373 363
3464 753 752 750 763
3465 685 628 687 627
3466 701 734 766 768
3467 915 735 740 732
3468 709 702 703 701
3469 760 763 766 734
3470 759 760 766 686
3471 759 763 766 760
3472 763 768 766 734
3473 701 768 766 763
3474 740 739 729 307
3475 357 352 356 355
3476 765 763 766 759
3477 701 763 766 765
3478 687 627 689 685
3479 733 727 729 761
3480 627 687 690 626
3481 689 687 690 627
3482 728 739 729 740
3483 753 892 884 887
3484 746 749 727 750
3485 761 763 750 760
3486 749 761 750 758
3487 760 754 750 758
3488 758 761 750 760
3489 749 751 750 752
3490 758 751 750 749
3491 754 751 750 758
3492 754 752 750 751
3493 732 913 915 914
3494 899 915 732 913
3495 760 734 733 761
3496 753 768 767 910
3497 763 768 767 753
3498 899 915 913 919
3499 899 906 904 897
3500 913 916 911 904
3501 799 804 809 801
3502 897 905 906 904
3503 369 366 371 310
3504 906 920 913 921
3505 918 921 913 920
3506 906 908 916 904
3507 908 906 916 909
3508 913 916 914 911
3509 871 870 866 876
3510 312 737 309 308
3511 703 704 691 706
3512 915 767 899 732
3513 696 686 695 692
3514 690 689 693 687
3515 733 735 730 731
3516 733 734 736 735
3517 760 734 736 733
3518 363 375 362 503
3519 764 705 703 706
3520 704 705 703 710
3521 701 700 703 764
3522 687 693 695 692
3523 354 351 358 352
3524 360 353 354 338
3525 507 713 503 1071
3526 362 375 371 372
3527 738 737 740 307
3528 915 768 732 734
3529 899 919 913 912
3530 913 922 920 919
3531 732 736 915 734
3532 692 686 695 687
3533 922 913 918 915
3534 919 910 736 912
3535 917 913 921 916
3536 732 913 911 767
3537 910 736 912 734
3538 896 899 767 913
3539 733 735 732 734
3540 913 732 911 914
3541 915 736 922 919
3542 310 315 371 369
3543 734 735 732 736
3544 727 731 733 730
3545 734 762 732 733
3546 734 767 732 762
3547 729 733 730 727
3548 736 735 740 733
3549 313 312 317 318
3550 318 311 314 312
3551 320 321 329 330
3552 316 320 329 318
3553 325 332 329 321
3554 736 699 366 739
3555 691 686 692 688
3556 729 739 365 307
3557 764 700 703 705
3558 367 706 704 505
3559 696 364 697 698
3560 692 691 697 696
3561 505 713 503 507
3562 704 709 703 1205
3563 360 353 358 354
3564 507 1071 503 506
3565 709 710 703 702
3566 689 688 692 687
3567 350 348 352 351
3568 511 372 503 367
3569 511 367 503 505
3570 505 507 503 511
3571 701 1205 703 709
3572 704 709 710 703
3573 507 506 503 518
3574 511 375 503 372
3575 507 518 503 511
3576 503 367 362 697
3577 511 518 503 375
3578 350 696 698 364
3579 760 691 696 728
3580 760 686 696 691
3581 365 364 697 728
3582 530 345 504 518
3583 695 693 698 692
3584 691 734 728 760
3585 736 734 728 691
3586 736 760 728 734
3587 733 736 728 740
3588 486 483 504 478
3589 692 691 696 686
3590 730 308 731 738
3591 738 735 730 740
3592 729 737 738 307
3593 729 738 730 740
3594 695 694 348 693
3595 346 345 335 478
3596 349 694 348 695
3597 478 334 335 346
3598 334 343 335 344
3599 695 350 348 349
3600 350 695 348 698
3601 698 695 348 693
3602 337 343 335 334
3603 351 350 356 352
3604 350 695 698 696
3605 692 696 698 695
3606 343 344 361 335
3607 334 347 335 346
3608 503 375 362 372
3609 354 342 357 360
3610 341 340 336 337
3611 375 345 504 363
3612 483 1205 504 478
3613 363 345 376 375
3614 518 345 504 375
3615 335 363 504 345
3616 335 345 504 478
3617 483 503 506 504
3618 503 483 506 1071
3619 704 367 697 706
3620 366 699 697 367
3621 373 347 376 335
3622 324 333 373 344
3623 728 736 697 365
3624 728 691 697 736
3625 736 699 697 366
3626 691 699 697 736
3627 699 706 697 367
3628 691 706 697 699
3629 506 486 504 530
3630 697 364 362 698
3631 362 359 368 370
3632 354 358 357 352
3633 320 325 329 321
3634 697 367 362 366
3635 363 374 362 375
3636 318 317 329 316
3637 321 333 329 330
3638 697 365 362 364
3639 366 365 362 697
3640 351 352 356 358
3641 363 362 370 359
3642 360 338 336 353
3643 360 340 336 338
3644 353 361 336 360
3645 360 361 336 340
3646 361 335 336 343
3647 337 343 336 335
3648 363 335 336 361
3649 361 353 336 363
3650 340 343 336 337
3651 361 343 336 340
3652 310 311 309 314
3653 352 350 356 355
3654 353 351 358 354
3655 352 350 355 349
3656 316 311 318 312
3657 327 316 329 317
3658 370 374 369 362
3659 362 364 368 351
3660 362 374 371 375
3661 317 312 316 318
3662 358 361 359 353
3663 363 353 359 361
3664 351 353 359 362
3665 358 353 359 351
3666 362 353 359 363
3667 363 374 370 362
3668 324 326 321 332
3669 351 364 356 350
3670 357 358 356 352
3671 368 364 356 351
3672 351 358 356 359
3673 362 365 368 364
3674 368 362 369 365
3675 366 365 369 362
3676 316 325 329 320
3677 362 367 371 366
3678 312 307 309 737
3679 325 331 327 332
3680 335 347 376 345
3681 324 332 321 333
3682 325 332 321 326
3683 373 335 376 363
3684 313 318 314 312
3685 370 359 373 363
3686 361 363 373 359
3687 347 344 373 333
3688 740 737 309 307
3689 335 345 376 363
3690 335 344 373 347
3691 361 344 373 335
3692 375 374 376 363
3693 330 333 376 373
3694 370 363 376 374
3695 373 370 376 330
3696 373 333 376 347
3697 321 333 330 373
3698 373 370 330 321
3699 907 916 921 906
3700 255 251 258 254
3701 330 320 319 329
3702 321 370 330 320
3703 296 281 300 280
3704 365 739 310 307
3705 844 779 771 782
3706 740 307 310 739
3707 914 913 915 918
3708 739 738 310 740
3709 312 308 309 314
3710 366 365 310 369
3711 327 325 329 316
3712 369 365 310 307
3713 806 797 828 809
3714 280 282 296 281
3715 365 366 310 736
3716 739 736 310 366
3717 365 736 310 739
3718 311 315 310 369
3719 369 307 310 311
3720 311 318 319 320
3721 311 315 319 318
3722 376 374 319 370
3723 376 370 319 330
3724 369 311 319 320
3725 369 315 319 311
3726 320 370 319 369
3727 370 374 319 369
3728 369 374 319 371
3729 371 315 319 369
3730 767 892 896 753
3731 916 907 921 917
3732 310 738 309 740
3733 312 311 309 307
3734 314 311 309 312
3735 730 308 738 737
3736 913 897 899 904
3737 989 990 988 984
3738 282 281 287 301
3739 108 107 109 105
3740 149 119 146 147
3741 896 892 897 884
3742 847 862 841 843
3743 87 302 293 97
3744 802 805 803 804
3745 907 916 909 917
3746 977 974 992 968
3747 242 234 225 289
3748 831 834 828 832
3749 879 870 874 873
3750 1000 996 994 997
3751 1000 997 994 995
3752 296 298 294 299
3753 731 727 733 762
3754 1152 1159 1154 1156
3755 936 930 933 929
3756 936 929 933 982
3757 915 913 919 922
3758 902 871 868 894
3759 783 795 780 777
3760 244 235 228 234
3761 998 1017 1016 1011
3762 286 224 232 289
3763 899 896 897 913
3764 828 833 831 829
3765 284 282 283 281
3766 897 905 866 906
3767 864 849 843 846
3768 801 864 798 797
3769 904 913 896 911
3770 293 306 298 302
3771 94 93 96 87
3772 910 919 736 915
3773 510 514 508 516
3774 119 68 139 132
3775 1045 1041 1040 1048
3776 1045 1048 1040 1047
3777 864 843 801 798
3778 849 804 799 801
3779 864 800 849 846
