5000
0 2493 1273 1862
1 1273 1973 1862
2 2040 321 2169
3 320 321 2169
4 2054 1077 1031
5 1065 1077 1031
6 212 1900 1750
7 1769 1549 1422
8 1414 1538 445
9 407 1695 729
10 1695 1694 729
11 785 1744 1762
12 785 1744 826
13 40 745 2371
14 2201 747 233
15 2201 2386 233
16 429 428 1407
17 428 1407 1979
18 2395 1384 286
19 1467 1731 1465
20 1467 1465 1466
21 16 1103 2276
22 1965 308 1162
23 1853 308 1162
24 89 501 506
25 89 501 1125
26 1914 721 463
27 1914 463 1427
28 2371 40 2386
29 952 1616 380
30 952 1616 382
31 1805 2119 1608
32 941 1807 2045
33 375 376 2499
34 977 376 2499
35 274 1974 767
36 1922 2105 1768
37 1922 816 1768
38 2064 273 1139
39 2026 824 787
40 1957 2060 1092
41 225 1237 676
42 225 1237 1242
43 2239 1787 119
44 2111 1925 781
45 937 313 1547
46 1658 1663 49
47 1658 1663 2223
48 984 959 1611
49 1993 129 547
50 1993 548 547
51 447 2298 815
52 652 188 176
53 1679 1854 2133
54 110 1854 2133
55 179 195 1630
56 179 2331 1630
57 539 1722 540
58 1722 880 540
59 986 1607 2
60 986 2048 2
61 2467 2286 1246
62 1255 2286 1246
63 263 1233 1219
64 263 1222 1219
65 2065 1095 2196
66 1734 594 2366
67 1502 594 2366
68 434 2076 13
69 1410 2076 13
70 1775 451 452
71 1530 750 751
72 1530 751 752
73 1999 2363 1049
74 1999 2363 1080
75 1328 1704 1338
76 1328 1704 1323
77 1181 1171 1167
78 1171 25 1167
79 549 866 544
80 2128 2409 1009
81 208 2451 187
82 1795 900 838
83 1760 729 693
84 1196 329 2038
85 1196 329 405
86 1823 127 2215
87 954 1591 12
88 947 1591 12
89 126 1455 541
90 1065 1077 2174
91 323 334 2211
92 334 2452 2211
93 720 722 726
94 722 726 743
95 1080 588 1999
96 1959 1124 1125
97 1124 1664 1125
98 675 2014 212
99 2050 2121 2172
100 303 420 1846
101 1593 2485 922
102 979 1615 2171
103 979 989 2171
104 2227 106 1962
105 106 1962 521
106 85 1208 364
107 85 1208 1434
108 931 980 2121
109 690 732 700
110 1872 452 1421
111 1872 453 1421
112 2396 943 264
113 320 1574 321
114 2043 58 475
115 946 428 429
116 946 429 430
117 1433 1832 1647
118 1433 1832 1076
119 1184 1620 1153
120 1184 1683 1153
121 1318 1306 1322
122 1318 1306 1295
123 2434 1336 307
124 2262 1774 765
125 1774 765 1542
126 929 1941 961
127 1419 2077 771
128 1419 2077 1982
129 1390 208 207
130 821 825 774
131 1661 2221 1127
132 2463 435 437
133 1943 944 1810
134 2049 2304 940
135 2049 2304 910
136 330 1928 1757
137 330 878 1757
138 509 1440 1718
139 1440 1718 1874
140 1095 1873 503
141 158 2318 603
142 2430 2392 1153
143 1615 2121 930
144 980 2121 930
145 934 918 1798
146 918 1798 1941
147 2158 1916 2361
148 2158 2361 1910
149 433 431 432
150 431 1408 432
151 337 338 2062
152 337 338 1134
153 1600 2306 927
154 2306 927 1978
155 1592 913 2460
156 1512 2257 1516
157 2257 1516 735
158 197 156 2495
159 197 156 612
160 250 1912 712
161 54 2421 1660
162 2421 1110 1660
163 216 747 1524
164 690 2154 700
165 1593 2117 369
166 1593 2117 2485
167 2030 2299 796
168 2030 797 796
169 2267 991 755
170 2387 696 2347
171 2387 462 2347
172 116 114 1189
173 113 1679 1175
174 113 1175 109
175 1902 2155 1517
176 2155 10 1517
177 680 10 2155
178 969 923 974
179 2056 2055 2174
180 487 486 2501
181 487 486 886
182 1841 1129 271
183 2296 812 1763
184 947 820 9
185 820 9 2268
186 1266 2422 1265
187 772 1384 286
188 772 1384 295
189 12 954 7
190 890 1792 1928
191 1792 2352 1928
192 1227 357 1240
193 1227 1240 907
194 1808 2123 1809
195 2123 932 1809
196 1446 1876 517
197 1876 517 519
198 360 1584 1792
199 1592 2460 1605
200 1608 2460 1605
201 2020 1915 2322
202 2492 420 110
203 420 110 2133
204 1314 2339 1296
205 276 794 792
206 276 20 792
207 453 1872 27
208 1872 27 2161
209 50 467 59
210 942 1606 375
211 2255 1513 1526
212 2255 1525 1526
213 1539 776 1474
214 2280 111 1145
215 2280 111 1677
216 1963 1251 2431
217 1818 529 1083
218 1818 1083 1645
219 1169 1170 2380
220 1186 1671 1166
221 1186 1166 1179
222 2046 1602 2306
223 1602 921 2306
224 1730 582 580
225 1730 582 579
226 1916 2477 2361
227 1916 2477 2101
228 213 680 10
229 233 2386 705
230 710 1509 218
231 1689 96 102
232 1689 96 1173
233 434 968 2076
234 1878 523 1448
235 83 2130 1022
236 83 2130 82
237 1347 1541 2432
238 1541 772 2432
239 233 691 2401
240 2026 775 787
241 2026 775 304
242 2170 311 1942
243 265 1331 258
244 1753 721 2194
245 2326 1757 2352
246 770 2029 1923
247 770 1923 2350
248 1332 1351 2233
249 1359 1351 2233
250 952 988 370
251 952 988 966
252 1947 2045 228
253 83 82 2467
254 675 715 212
255 804 2299 277
256 1920 2109 780
257 1458 1738 138
258 325 269 892
259 842 269 892
260 927 6 956
261 927 6 424
262 935 972 1603
263 1331 258 1361
264 80 1308 496
265 1308 496 1715
266 679 716 226
267 716 226 739
268 617 616 664
269 1737 616 664
270 477 474 59
271 1637 1636 393
272 1637 1636 1641
273 1364 1361 2233
274 1108 1106 1109
275 1559 888 1930
276 1559 888 2263
277 2355 1780 2265
278 1780 2265 884
279 292 1402 281
280 1359 1368 2233
281 752 695 1530
282 1114 1138 271
283 2371 745 45
284 745 462 45
285 1288 2381 285
286 87 505 504
287 87 504 1436
288 752 707 701
289 752 1506 701
290 910 991 2012
291 910 2012 2304
292 2232 1176 1158
293 2103 1916 2158
294 2103 1916 756
295 2259 2079 1528
296 2180 1626 2313
297 2180 1074 2313
298 1424 461 45
299 462 461 45
300 908 1588 2042
301 908 1588 352
302 40 460 459
303 2043 58 983
304 1868 1355 381
305 1352 1355 381
306 227 1512 1913
307 1512 1913 1516
308 1448 1878 1877
309 716 738 739
310 1855 1170 1169
311 1855 1164 1169
312 1944 958 949
313 985 958 949
314 2015 724 735
315 43 463 721
316 1955 1654 2220
317 1955 2220 1104
318 1664 1112 2219
319 1844 1112 2219
320 2022 1507 2401
321 2022 1507 1519
322 1662 2274 1840
323 1313 1301 2468
324 2234 192 1378
325 2168 1937 328
326 1299 1281 236
327 1299 231 236
328 697 229 1752
329 229 230 1752
330 1694 2185 405
331 1330 1313 1301
332 1330 1313 1339
333 2059 2078 1141
334 2078 1141 1961
335 1479 612 197
336 1479 612 631
337 828 839 876
338 839 876 840
339 551 134 1827
340 134 1827 992
341 2360 1551 778
342 2360 1551 444
343 48 469 468
344 242 2385 1518
345 323 2211 2039
346 2211 2452 2039
347 1901 680 678
348 1901 680 2155
349 453 1983 454
350 2339 1158 2232
351 2339 1158 1675
352 1281 1272 251
353 1281 1203 251
354 257 683 246
355 1266 1279 1295
356 1012 1625 2449
357 1012 2449 1037
358 1667 1123 337
359 52 1760 470
360 55 2478 753
361 55 2478 1514
362 759 240 215
363 759 240 742
364 1264 249 1263
365 249 1263 256
366 1824 2183 86
367 1055 2183 86
368 257 1861 246
369 257 1861 2412
370 2020 682 748
371 2020 682 2322
372 1380 1362 1379
373 1362 1370 1379
374 1859 407 1214
375 975 964 2305
376 1438 1842 1843
377 1438 1842 507
378 1447 101 1962
379 1447 101 1689
380 1960 1654 1109
381 2034 1927 857
382 2072 1858 1116
383 1299 1272 1281
384 1215 1116 1858
385 1096 2264 2132
386 1096 2264 1101
387 1758 2100 214
388 1758 713 214
389 2379 1660 1665
390 832 1781 2209
391 705 460 459
392 705 2386 459
393 1784 1228 856
394 1211 1228 856
395 1424 2156 42
396 2041 1574 1569
397 31 455 1135
398 1654 455 1135
399 679 458 716
400 689 1426 1914
401 1478 155 2247
402 155 2247 619
403 1267 410 1856
404 1267 2067 1856
405 703 2258 712
406 703 2258 1511
407 1501 95 2241
408 689 2466 2254
409 689 2466 468
410 463 1984 2079
411 866 132 2487
412 132 2487 130
413 360 1929 1584
414 1784 1212 1228
415 1784 1212 365
416 742 2018 1527
417 1667 1123 1138
418 1571 1585 871
419 1571 827 871
420 2259 2141 465
421 641 2251 1349
422 1589 2354 887
423 1589 2475 887
424 850 876 828
425 850 1793 828
426 1534 21 2472
427 1534 2472 799
428 1938 2457 883
429 255 1298 2482
430 215 2021 60
431 2021 60 725
432 1352 381 1346
433 1352 374 1346
434 1302 1298 1317
435 1302 1298 256
436 2216 1055 2130
437 1213 1206 1230
438 2068 1153 1685
439 2068 1153 2392
440 1952 346 1087
441 883 1938 887
442 1938 889 887
443 320 833 2169
444 1375 1355 1368
445 1375 1369 1368
446 1830 2377 1031
447 1725 1037 2449
448 1725 1037 1952
449 1665 1108 1106
450 1665 1108 57
451 597 1475 610
452 597 653 610
453 1125 501 1959
454 1959 2224 502
455 1959 2224 1124
456 1043 2417 1061
457 1637 2417 1061
458 1820 1821 1051
459 1272 237 241
460 2441 2187 53
461 2352 1928 1757
462 1627 2179 1001
463 1627 1001 2378
464 883 2354 887
465 883 2354 330
466 350 1648 1099
467 1786 859 535
468 2478 723 693
469 2478 723 727
470 1791 2035 1564
471 1791 830 1564
472 323 885 1561
473 84 2312 1019
474 637 1733 663
475 1707 281 1399
476 558 556 2398
477 157 480 177
478 1596 922 912
479 922 912 1593
480 1033 998 1025
481 1334 1345 1344
482 1298 2482 1317
483 1502 594 662
484 1502 662 1737
485 1898 598 2291
486 2001 2291 2364
487 1405 276 794
488 1405 794 1543
489 966 939 967
490 225 676 741
491 382 963 1700
492 382 1700 1616
493 1557 799 1765
494 1557 799 1534
495 1441 1644 510
496 1561 333 323
497 2039 333 323
498 1344 1325 1867
499 646 2091 2343
500 2091 2343 2384
501 2472 1768 763
502 505 503 89
503 1095 503 89
504 103 1161 1152
505 1329 1324 186
506 2261 777 783
507 2160 2403 2498
508 2403 2498 2025
509 1163 1173 2188
510 819 982 2327
511 819 2327 1547
512 2395 1362 1380
513 1754 1750 681
514 1745 651 1504
515 1240 907 1247
516 2065 1664 2196
517 2065 1664 1112
518 2041 320 1574
519 2041 320 243
520 1706 1389 1376
521 2285 1716 1432
522 1716 493 1432
523 1280 2237 97
524 1769 2296 2348
525 2296 1767 2348
526 2133 420 1690
527 641 2241 210
528 1120 2219 1110
529 1177 2137 1194
530 1177 2137 1251
531 1236 1249 1228
532 885 833 243
533 833 243 320
534 1266 1265 1279
535 1265 1279 1258
536 2118 980 913
537 2118 2460 913
538 590 2476 562
539 590 140 562
540 1182 1851 377
541 1851 377 2229
542 998 388 2331
543 178 672 2152
544 1377 1382 201
545 1834 150 578
546 702 1915 2322
547 2336 1860 1861
548 2326 879 872
549 905 129 364
550 905 904 364
551 1216 1226 1131
552 1837 2379 54
553 1660 2379 54
554 68 607 484
555 68 607 1890
556 2199 1747 636
557 2199 1747 2344
558 132 866 126
559 2467 2131 1246
560 1072 2312 1032
561 1415 1414 2298
562 1414 2298 784
563 548 2414 547
564 2464 1877 114
565 1877 114 1849
566 1465 153 586
567 1951 1647 1832
568 1176 1854 419
569 1854 419 1678
570 2402 1865 1314
571 518 1280 1445
572 308 1164 303
573 308 1164 1169
574 2299 285 2381
575 2299 2381 2030
576 2431 1161 1691
577 1161 1691 2333
578 2452 2169 334
579 833 2169 334
580 2225 2280 1677
581 1164 1855 2281
582 1164 2281 1159
583 108 2225 1192
584 511 1501 1989
585 1770 2162 808
586 1770 808 175
587 1470 602 2245
588 602 2245 597
589 2424 2295 699
590 2424 699 719
591 1053 577 576
592 662 1732 1745
593 1598 911 930
594 911 930 1943
595 659 568 567
596 1151 1688 2469
597 451 1421 452
598 1149 1676 418
599 1676 418 1146
600 453 1983 1421
601 1982 1983 1421
602 1280 1441 519
603 1441 519 1644
604 1215 387 1858
605 1412 1556 2104
606 1556 1413 2104
607 177 607 1890
608 177 1890 1895
609 777 1771 2163
610 777 20 2163
611 36 1840 2274
612 458 716 738
613 1045 399 398
614 1045 398 2182
615 1133 1100 1134
616 1133 1663 1134
617 325 355 849
618 884 2039 333
619 884 2039 1780
620 885 833 334
621 885 323 334
622 1985 531 1572
623 34 834 30
624 327 834 30
625 2040 2039 2452
626 2040 2169 2452
627 1216 1131 2187
628 1216 1207 2187
629 1781 2041 2209
630 2041 2209 1569
631 1517 2014 1902
632 1114 749 273
633 87 1436 1873
634 87 1873 503
635 2185 1097 405
636 1097 1196 405
637 1583 243 1781
638 243 1781 2041
639 364 85 904
640 1583 243 885
641 1583 1561 885
642 378 972 953
643 972 953 935
644 1137 16 2390
645 1137 1121 2390
646 1780 2355 321
647 909 1829 2330
648 1780 2039 2040
649 1780 2040 321
650 2054 1036 1031
651 403 404 1650
652 722 2295 2424
653 884 333 332
654 333 332 2113
655 1096 1099 1648
656 2279 2220 1109
657 1654 2220 1109
658 1790 1791 1570
659 1791 1930 1570
660 1114 1138 2064
661 1138 1123 2064
662 1791 888 830
663 875 359 2264
664 1438 1095 2065
665 2065 1438 1843
666 1024 996 1823
667 544 126 1435
668 875 2264 1111
669 2481 1706 302
670 1706 1376 302
671 2219 2276 1844
672 1844 438 2276
673 438 2276 16
674 1901 678 675
675 1003 1817 1030
676 1003 2175 1030
677 443 2027 21
678 443 2027 444
679 438 2441 1119
680 1103 2421 54
681 1103 1652 54
682 1111 506 504
683 526 2359 528
684 1439 2082 1091
685 2082 507 1091
686 1094 1095 1873
687 1094 1095 1438
688 94 1439 93
689 1842 2410 1843
690 1125 1095 2196
691 1125 1095 89
692 505 87 503
693 376 1802 375
694 1438 1437 507
695 1437 507 2082
696 1972 702 1861
697 1972 702 741
698 2047 371 17
699 371 17 990
700 2065 1112 1843
701 1112 1093 1843
702 1112 1093 1844
703 438 1093 1844
704 1785 844 857
705 1843 2410 1093
706 2410 1093 1136
707 1440 509 1091
708 1439 1091 1440
709 1440 93 1874
710 1440 93 1439
711 115 1193 1449
712 115 1449 2464
713 990 962 371
714 2278 2236 1718
715 1137 53 1838
716 1255 2286 1243
717 2047 1239 371
718 2047 1239 2212
719 1661 2277 1113
720 1196 1097 1113
721 1196 2277 1113
722 2462 1437 2082
723 1760 407 2292
724 1760 407 729
725 2462 1094 1437
726 1094 1438 1437
727 1091 509 507
728 509 507 1842
729 213 732 10
730 369 2120 1596
731 369 2120 2117
732 1730 2363 583
733 1730 580 583
734 2202 1423 717
735 2120 961 1596
736 961 1596 922
737 1902 2014 675
738 1128 2186 1694
739 1128 1694 2185
740 1664 1124 2219
741 846 872 2326
742 846 872 2037
743 2390 1103 1652
744 675 678 715
745 678 715 213
746 1901 675 1751
747 1902 675 1751
748 1982 1421 451
749 1901 1751 2155
750 1902 1751 2155
751 678 680 213
752 1607 1594 2
753 1941 929 1803
754 929 1803 378
755 212 1900 715
756 7 429 430
757 2120 1601 2117
758 1810 1943 915
759 1682 1877 522
760 1682 1877 112
761 1697 529 1818
762 1697 529 387
763 1409 14 2076
764 1409 2076 968
765 2405 380 1616
766 2405 380 976
767 1596 912 369
768 1593 912 369
769 1906 687 2019
770 1906 2019 732
771 2307 943 1948
772 943 1948 1944
773 1168 1172 418
774 1978 3 425
775 3 2266 425
776 1183 1155 1674
777 2464 114 116
778 820 1801 947
779 1801 933 947
780 1603 972 929
781 928 0 979
782 928 979 971
783 1601 2120 935
784 2120 1603 935
785 1597 1803 942
786 2117 918 934
787 2117 934 1601
788 373 2499 934
789 2499 1798 934
790 2171 2 989
791 2 1594 989
792 934 373 1601
793 1601 935 1612
794 1601 373 1612
795 961 1941 2485
796 918 1941 2485
797 1612 373 977
798 2499 373 977
799 929 378 972
800 922 961 2485
801 929 961 1603
802 2485 2117 918
803 2120 961 1603
804 942 1803 368
805 1803 368 915
806 926 423 2118
807 919 1978 2306
808 919 1978 425
809 1803 1597 1941
810 1185 2430 2314
811 1185 2314 1969
812 1184 2380 305
813 1184 2380 1680
814 916 957 956
815 957 956 1804
816 1597 375 1798
817 375 1798 2499
818 1803 915 378
819 915 953 378
820 1597 942 375
821 1943 944 930
822 935 1612 953
823 1597 1798 1941
824 953 970 18
825 953 18 1810
826 1869 423 931
827 945 423 1869
828 2118 423 931
829 368 915 1943
830 953 1612 970
831 1599 977 1612
832 1599 970 1612
833 953 1810 915
834 773 671 782
835 773 293 782
836 942 368 911
837 942 911 1606
838 1553 1544 951
839 1598 913 980
840 1598 930 980
841 368 1943 911
842 970 18 1599
843 1670 1686 1681
844 1670 2228 1681
845 1940 1799 921
846 1940 1799 1800
847 945 919 2046
848 945 919 1869
849 944 930 971
850 1911 1754 750
851 1754 1530 750
852 1517 10 1906
853 10 732 1906
854 1602 921 1799
855 944 928 971
856 986 2048 2396
857 690 1900 2154
858 5 955 426
859 1614 1618 978
860 1614 924 978
861 930 971 1615
862 971 1615 979
863 960 5 955
864 931 980 2118
865 2172 2171 2048
866 2171 2048 2
867 1870 2140 23
868 2121 931 1595
869 931 1869 1595
870 690 213 732
871 690 213 715
872 38 2203 717
873 2203 2202 717
874 2121 1615 2172
875 1615 2172 2171
876 2050 2396 2172
877 2396 2048 2172
878 2099 56 476
879 56 2293 476
880 425 2266 1595
881 1956 1118 1117
882 986 2396 264
883 1802 375 1605
884 375 1605 1606
885 2306 919 2046
886 426 914 5
887 425 1595 919
888 3 424 1613
889 2050 2266 2121
890 1595 2266 2121
891 2266 3 1613
892 2266 1531 1613
893 414 1162 1675
894 420 312 303
895 468 50 2466
896 2396 2050 943
897 2050 1531 943
898 2266 2050 1531
899 911 1606 1598
900 1606 1592 1598
901 1605 1606 1592
902 1599 977 2044
903 977 2044 376
904 2069 1846 413
905 1846 413 2070
906 1805 1802 376
907 1805 2044 376
908 1800 951 1940
909 978 2044 1618
910 1805 2044 1618
911 1537 288 778
912 0 979 989
913 0 1614 989
914 103 1152 2189
915 1608 1802 1605
916 1608 1802 1805
917 446 1416 22
918 2360 444 442
919 444 2027 442
920 769 166 174
921 1799 1800 925
922 1800 925 301
923 1557 2324 1772
924 174 1919 2261
925 174 1919 166
926 1800 301 1594
927 1598 913 1592
928 1969 1849 112
929 1969 112 1185
930 928 1810 944
931 1685 1965 414
932 1685 1965 1683
933 978 924 1599
934 18 924 1599
935 1614 0 924
936 0 924 928
937 928 18 924
938 928 18 1810
939 638 601 141
940 638 601 1892
941 784 2029 2298
942 784 2029 1923
943 1599 2044 978
944 822 282 781
945 822 781 1420
946 780 818 779
947 1159 2070 1846
948 2118 2460 926
949 312 2492 420
950 921 2306 1600
951 921 1600 1940
952 773 805 293
953 805 293 2112
954 1190 1166 1680
955 1190 2380 1680
956 1869 919 1595
957 315 1977 211
958 1594 989 301
959 301 1618 925
960 301 1618 1614
961 925 1805 1618
962 2460 926 2119
963 314 1807 2170
964 314 1807 941
965 1800 951 1594
966 1607 951 1594
967 1608 2119 2460
968 1200 1584 1197
969 1200 1584 1206
970 2270 1804 306
971 2270 306 1617
972 1614 989 301
973 2046 945 926
974 2046 2119 926
975 1602 2119 2046
976 1602 2119 1799
977 423 926 945
978 951 1544 1607
979 986 1544 1607
980 651 190 1479
981 2493 1644 1273
982 424 6 1613
983 306 1804 2123
984 1804 2123 957
985 927 1600 956
986 1600 1804 2270
987 1600 1804 956
988 424 3 1978
989 424 927 1978
990 15 440 990
991 1422 454 28
992 950 2052 1948
993 2052 1948 2307
994 1763 818 823
995 818 823 814
996 957 2123 1808
997 957 1 1808
998 1808 946 1
999 946 955 1
1000 1809 297 12
1001 1809 1808 430
1002 946 1808 430
1003 1235 1248 2051
1004 2443 1809 297
1005 47 746 46
1006 1649 404 1658
1007 335 404 1658
1008 1813 969 923
1009 2052 987 755
1010 2014 1517 687
1011 1517 1906 687
1012 1407 7 1811
1013 1407 1979 1811
1014 426 955 427
1015 1 955 427
1016 933 947 1591
1017 933 1591 11
1018 1812 1806 920
1019 1222 261 1225
1020 1222 261 263
1021 2235 432 1408
1022 2235 1591 1408
1023 1685 1683 1153
1024 2235 11 1591
1025 2235 11 432
1026 221 910 991
1027 221 984 991
1028 948 9 297
1029 948 316 297
1030 1407 7 429
1031 430 1809 12
1032 430 7 12
1033 2019 713 214
1034 2315 1166 1190
1035 1811 431 954
1036 1811 431 1611
1037 1811 954 7
1038 2463 14 1410
1039 2463 2454 1410
1040 947 12 9
1041 433 432 11
1042 1408 431 954
1043 1408 1591 954
1044 2430 2392 2314
1045 113 523 1449
1046 1878 523 1449
1047 1185 1620 2430
1048 1153 1620 2430
1049 1179 1184 1680
1050 106 2319 2227
1051 933 13 11
1052 13 434 11
1053 1166 2315 1671
1054 2315 2227 1671
1055 1675 1853 1158
1056 1865 790 2402
1057 1179 1185 1186
1058 1179 1185 1620
1059 522 1448 1877
1060 996 1039 1988
1061 1671 1682 2227
1062 1682 2227 2319
1063 1974 274 2024
1064 101 1962 2238
1065 1682 1186 112
1066 1321 274 767
1067 522 523 1448
1068 790 1769 1549
1069 1158 110 2492
1070 1182 2315 1190
1071 1182 377 1190
1072 92 116 2134
1073 1855 1148 2281
1074 1855 1148 2229
1075 1166 1680 1179
1076 74 1462 78
1077 1462 78 143
1078 495 75 1430
1079 495 494 1430
1080 1186 1671 1682
1081 1191 2444 2135
1082 781 1925 449
1083 1189 409 1847
1084 409 1847 1165
1085 2380 305 1169
1086 1170 2229 1855
1087 1170 2229 377
1088 1920 286 294
1089 420 1846 2069
1090 420 2069 1690
1091 2140 1418 449
1092 1148 1171 2229
1093 1174 1690 1447
1094 2229 1171 1851
1095 1545 1542 765
1096 512 2145 511
1097 2145 1989 511
1098 1549 1422 27
1099 1549 27 2161
1100 528 525 524
1101 528 2359 524
1102 2349 1293 290
1103 113 1678 1193
1104 113 1449 1193
1105 2077 1982 1983
1106 100 1644 510
1107 764 2402 1296
1108 2402 1314 1296
1109 2392 2068 372
1110 2392 372 1848
1111 2073 1209 2072
1112 2073 1858 2072
1113 414 1856 1685
1114 2454 440 15
1115 2454 440 437
1116 764 415 1296
1117 764 415 1293
1118 2051 1267 2067
1119 2051 1248 2067
1120 1239 371 2051
1121 371 1604 2051
1122 1189 1847 92
1123 1549 2402 790
1124 2066 408 92
1125 514 95 1501
1126 514 95 98
1127 512 1990 1442
1128 97 1990 1442
1129 1647 2131 1015
1130 1549 764 2402
1131 1549 764 2300
1132 303 312 308
1133 1076 1997 2494
1134 1675 1162 1853
1135 13 1939 933
1136 1801 1939 933
1137 109 522 523
1138 109 523 113
1139 112 1185 1186
1140 1158 2492 1853
1141 780 2109 1540
1142 1877 1849 112
1143 1158 110 1176
1144 936 15 1801
1145 2006 1350 1349
1146 2006 1350 591
1147 110 1854 1176
1148 1877 2464 1878
1149 419 1176 2232
1150 2238 2227 1962
1151 2238 2227 2315
1152 522 1682 2319
1153 113 1679 1854
1154 305 1965 1683
1155 305 1683 1184
1156 1620 1179 1184
1157 1853 312 308
1158 2492 312 1853
1159 2392 2314 1848
1160 2314 409 1848
1161 1156 1669 1165
1162 1847 1669 1165
1163 436 1411 2433
1164 1806 1411 2433
1165 920 975 964
1166 1619 2124 1698
1167 1619 2124 964
1168 1267 1701 1604
1169 2067 2068 372
1170 414 1675 410
1171 1675 410 2339
1172 1669 408 1847
1173 92 408 1847
1174 1668 1131 1136
1175 1678 1193 1720
1176 2339 415 1296
1177 1848 1165 1156
1178 1848 372 1156
1179 1188 2335 1132
1180 1248 372 2067
1181 1248 372 1156
1182 285 1288 1309
1183 285 1974 1309
1184 938 917 1773
1185 409 1189 417
1186 410 1856 414
1187 2335 1814 1226
1188 2335 1814 1235
1189 1189 417 114
1190 1267 1604 2051
1191 1773 2491 1609
1192 872 353 1581
1193 872 353 2116
1194 1718 1874 1717
1195 1718 1717 2278
1196 1238 1619 2455
1197 2412 1860 2455
1198 1848 409 1165
1199 1279 1300 422
1200 1279 1700 422
1201 939 967 2192
1202 975 920 1806
1203 114 1849 417
1204 1849 417 1969
1205 99 1674 2136
1206 962 1604 1270
1207 962 1604 371
1208 1083 1046 1645
1209 2047 1806 2212
1210 1806 2212 975
1211 93 508 94
1212 2335 1668 1226
1213 1668 1131 1226
1214 1861 246 702
1215 960 946 955
1216 415 1701 1267
1217 409 2314 1969
1218 409 417 1969
1219 415 1293 2349
1220 2030 2349 290
1221 2030 2349 2381
1222 937 819 1547
1223 1224 1188 1669
1224 1224 408 1669
1225 734 686 2021
1226 1216 1229 2356
1227 1188 2074 2335
1228 2074 2335 1235
1229 313 936 1547
1230 2047 2433 17
1231 1669 1156 2074
1232 1156 2074 1248
1233 2074 1188 1669
1234 2441 1131 2187
1235 2441 1131 1136
1236 973 820 2268
1237 1492 603 172
1238 941 940 1947
1239 940 1947 2304
1240 2051 1235 1239
1241 1235 1814 1239
1242 2478 727 1514
1243 727 217 1514
1244 975 2356 2212
1245 975 2356 2305
1246 1958 1090 1659
1247 1697 1818 389
1248 1818 389 1023
1249 1224 1220 91
1250 1224 1220 1132
1251 1859 1229 1619
1252 1859 1229 1214
1253 1132 1224 1188
1254 1838 1207 2186
1255 1838 1207 53
1256 2278 1717 508
1257 91 1220 2278
1258 91 2278 1215
1259 362 1210 1208
1260 362 1208 1217
1261 1132 2410 2236
1262 1132 2410 1668
1263 510 2382 1441
1264 508 1717 93
1265 1874 1717 93
1266 2066 2393 421
1267 2066 2393 408
1268 1220 2236 2278
1269 1132 1668 2335
1270 1220 2236 1132
1271 509 2236 1718
1272 509 2236 1842
1273 2410 2236 1842
1274 1207 2186 1695
1275 2186 1694 1695
1276 2145 1989 2146
1277 14 2076 1410
1278 13 1410 1939
1279 1939 1410 2454
1280 968 1409 435
1281 2454 2463 437
1282 2433 1709 436
1283 2433 1709 17
1284 1955 1654 1133
1285 1812 1411 439
1286 436 1411 439
1287 2047 1806 2433
1288 965 939 2192
1289 965 939 58
1290 2454 15 1939
1291 1801 15 1939
1292 435 2463 1409
1293 14 2463 1409
1294 990 936 15
1295 990 936 313
1296 2295 720 722
1297 990 440 17
1298 427 6 426
1299 6 426 914
1300 440 17 1709
1301 1133 1955 1663
1302 440 1709 441
1303 1709 436 441
1304 1522 1911 2154
1305 1754 1911 2154
1306 2194 2159 714
1307 440 441 437
1308 939 58 740
1309 58 740 983
1310 438 1136 2441
1311 438 1136 1093
1312 436 441 439
1313 441 439 437
1314 437 439 1708
1315 1708 1812 439
1316 435 437 1708
1317 435 2043 1708
1318 262 1237 1264
1319 262 1237 1245
1320 687 2014 1749
1321 916 957 1
1322 916 427 1
1323 916 6 427
1324 2052 2307 5
1325 690 715 1900
1326 1956 404 1649
1327 700 732 4
1328 732 4 2019
1329 2154 1900 1754
1330 1900 1750 1754
1331 757 2203 713
1332 681 1754 1530
1333 681 1530 1905
1334 681 2100 1750
1335 2154 700 1522
1336 700 1522 4
1337 4 2019 1899
1338 2100 681 1905
1339 2100 1905 1758
1340 2370 223 1908
1341 223 1908 218
1342 1522 4 706
1343 4 706 1899
1344 2019 713 757
1345 2019 757 1899
1346 740 2122 221
1347 740 959 221
1348 1036 1064 1819
1349 1908 218 1509
1350 2122 1610 221
1351 717 38 695
1352 752 707 695
1353 1946 433 959
1354 1946 959 740
1355 1911 1522 223
1356 1522 223 706
1357 960 946 428
1358 1509 736 1908
1359 238 736 1908
1360 706 1899 1523
1361 1899 1523 757
1362 223 218 706
1363 218 1523 706
1364 1761 757 2203
1365 1761 757 1523
1366 751 1506 704
1367 736 704 238
1368 751 704 238
1369 750 2370 1911
1370 1911 2370 223
1371 920 266 964
1372 2124 266 964
1373 1758 2203 38
1374 1758 1905 38
1375 767 1548 1321
1376 1758 2203 713
1377 1908 238 2370
1378 750 238 2370
1379 40 2386 459
1380 461 1759 1424
1381 1759 42 1424
1382 2016 2153 37
1383 1423 2153 37
1384 751 750 238
1385 1530 695 1905
1386 38 1905 695
1387 698 2202 224
1388 1912 1507 712
1389 828 122 537
1390 828 1793 537
1391 710 1509 220
1392 1509 736 220
1393 2202 2203 1761
1394 2202 698 1761
1395 820 1547 973
1396 820 1547 936
1397 2016 695 707
1398 2016 695 717
1399 704 744 1506
1400 752 751 1506
1401 2406 8 1552
1402 2406 1552 309
1403 1238 1619 1698
1404 1238 1698 2405
1405 1761 1523 698
1406 1523 710 698
1407 218 710 1523
1408 1337 1335 1346
1409 1335 1346 2481
1410 710 698 224
1411 319 932 2443
1412 1809 932 2443
1413 2257 1510 1513
1414 2016 707 2022
1415 707 2022 701
1416 936 1801 820
1417 2201 1524 747
1418 37 2016 717
1419 37 717 1423
1420 327 836 895
1421 836 326 895
1422 2052 987 5
1423 960 987 5
1424 710 220 1510
1425 710 224 1510
1426 2013 2015 224
1427 2015 224 1510
1428 1423 224 2202
1429 941 2045 1947
1430 735 2257 1510
1431 735 1510 2015
1432 1920 772 286
1433 1423 2013 2153
1434 380 967 952
1435 380 967 2192
1436 724 1710 2015
1437 960 428 1979
1438 960 987 1979
1439 1510 220 1513
1440 220 1526 1513
1441 744 704 1526
1442 736 220 1526
1443 736 1526 704
1444 1511 227 2255
1445 227 1512 2255
1446 2013 1710 2153
1447 2013 224 1423
1448 1337 1322 1335
1449 1337 1322 1318
1450 914 2307 5
1451 2052 950 2012
1452 950 2012 228
1453 264 986 958
1454 986 958 1544
1455 1295 1289 255
1456 2434 1336 1362
1457 2395 1336 1362
1458 266 920 475
1459 920 475 1812
1460 1708 1812 2043
1461 1812 475 2043
1462 720 1914 2254
1463 1914 2254 689
1464 1237 1233 676
1465 1972 1252 741
1466 1252 741 225
1467 1616 1700 2405
1468 2156 1424 2371
1469 45 1424 2371
1470 1137 1119 16
1471 2073 2184 1858
1472 374 1317 2482
1473 1663 1955 49
1474 1955 49 1098
1475 1946 968 983
1476 1946 740 983
1477 1120 1110 2497
1478 1110 2497 1106
1479 337 2062 1667
1480 1129 1841 1102
1481 2470 314 2170
1482 473 2412 2455
1483 473 694 2455
1484 1548 787 2165
1485 982 379 2491
1486 2031 819 917
1487 316 2443 319
1488 316 2470 319
1489 2049 1610 910
1490 1610 910 221
1491 966 939 2122
1492 939 2122 740
1493 2269 1945 309
1494 2269 2406 309
1495 382 963 1609
1496 1813 982 379
1497 1813 982 2327
1498 41 43 462
1499 2347 43 462
1500 433 968 11
1501 434 968 11
1502 415 2349 1701
1503 2031 962 803
1504 2031 803 917
1505 702 2322 741
1506 2322 682 741
1507 1258 1700 1279
1508 1348 1350 1365
1509 1501 210 1989
1510 2006 629 591
1511 1974 2024 278
1512 1974 278 1309
1513 1666 2221 1127
1514 1291 1287 1276
1515 976 1698 2124
1516 976 1698 2405
1517 2099 50 2466
1518 1265 1252 225
1519 474 756 2103
1520 474 756 59
1521 1336 294 2024
1522 1336 1320 2024
1523 676 682 741
1524 898 356 1795
1525 1295 255 1318
1526 767 798 1548
1527 1295 1266 1289
1528 1266 2422 1289
1529 1265 1242 225
1530 1265 1242 2422
1531 2181 401 386
1532 2181 386 1018
1533 237 252 1256
1534 237 1256 1276
1535 1352 1330 374
1536 1324 186 1319
1537 728 692 259
1538 728 761 259
1539 2287 1431 500
1540 1431 500 2320
1541 1214 1695 407
1542 1126 405 1694
1543 2282 862 1884
1544 1215 508 1116
1545 1215 508 2278
1546 1126 1694 1198
1547 729 1694 1198
1548 91 2393 1215
1549 433 1946 968
1550 1229 964 1619
1551 1229 964 2305
1552 1022 1217 83
1553 1252 2336 1972
1554 1295 1300 1306
1555 1295 1300 1279
1556 2336 1861 1972
1557 2212 1239 1814
1558 1814 2356 2212
1559 1873 1094 1436
1560 1094 1659 1436
1561 2132 36 2274
1562 729 693 1198
1563 2491 1609 379
1564 981 1609 379
1565 2305 2356 1229
1566 473 694 472
1567 2222 406 1838
1568 2455 1619 1859
1569 2336 1860 1238
1570 2455 1860 1238
1571 2138 217 2230
1572 2018 217 2230
1573 1861 2412 1860
1574 2037 2116 872
1575 2037 2116 1579
1576 952 382 370
1577 382 981 370
1578 382 981 1609
1579 1773 982 2491
1580 803 1701 1285
1581 803 1701 1270
1582 815 1542 283
1583 815 1542 1545
1584 2052 2012 755
1585 1321 787 811
1586 1321 787 1548
1587 1285 1288 938
1588 422 1288 938
1589 1535 1347 2436
1590 2031 313 937
1591 2031 819 937
1592 962 990 313
1593 962 2031 313
1594 938 917 1285
1595 917 1285 803
1596 779 1920 772
1597 1700 422 963
1598 422 938 963
1599 1207 1229 1216
1600 1871 1419 1420
1601 1270 803 962
1602 1604 1270 1701
1603 296 804 277
1604 590 567 2471
1605 590 567 608
1606 27 1422 454
1607 27 454 453
1608 1400 1389 317
1609 1400 287 317
1610 2161 452 1872
1611 183 160 1500
1612 160 2098 1500
1613 1169 1965 305
1614 1169 1965 308
1615 1721 525 1450
1616 1721 1450 116
1617 1430 2338 2139
1618 1432 2338 2139
1619 1214 1229 1207
1620 1216 2356 1814
1621 1865 1326 1535
1622 1865 1314 1326
1623 1314 1326 1310
1624 1535 1865 2348
1625 1535 1347 2348
1626 780 818 814
1627 780 1540 814
1628 1767 779 1541
1629 779 772 1541
1630 793 282 1981
1631 286 294 2395
1632 294 1336 2395
1633 603 591 629
1634 603 591 158
1635 290 1293 2300
1636 1293 2300 764
1637 1285 1701 2381
1638 1285 2381 1288
1639 817 304 810
1640 772 2432 295
1641 2432 295 1365
1642 1940 1617 2270
1643 294 274 2024
1644 300 296 804
1645 300 804 821
1646 2232 2317 419
1647 2381 1701 2349
1648 1326 1535 2436
1649 1288 1300 422
1650 1288 1300 1309
1651 938 1609 1773
1652 938 1609 963
1653 2038 329 353
1654 2186 1838 406
1655 1446 517 1875
1656 1876 519 518
1657 2405 1258 1700
1658 1196 1116 2277
1659 277 767 1974
1660 285 277 1974
1661 285 277 2299
1662 797 290 2323
1663 797 290 2030
1664 1945 309 923
1665 2109 811 766
1666 2109 766 1540
1667 1764 22 2437
1668 795 22 2437
1669 274 2374 1321
1670 294 2374 274
1671 454 2077 1983
1672 454 2077 28
1673 796 821 804
1674 796 821 774
1675 804 796 2299
1676 2323 1775 797
1677 2323 1775 452
1678 774 796 797
1679 774 797 1775
1680 774 1775 825
1681 824 2350 770
1682 2436 1348 1347
1683 290 2323 2300
1684 1767 812 2296
1685 1767 2348 1347
1686 1767 1347 1541
1687 278 1306 1322
1688 278 1320 1322
1689 2006 668 629
1690 2006 668 645
1691 1549 2161 2300
1692 2323 2161 2300
1693 2161 2323 452
1694 1920 780 779
1695 1769 1865 2348
1696 1769 1865 790
1697 28 1769 2296
1698 28 1769 1422
1699 303 1159 1846
1700 303 1159 1164
1701 811 1321 2374
1702 811 2109 2374
1703 696 1753 2347
1704 1400 1707 292
1705 1707 292 281
1706 2340 2198 2096
1707 2340 2198 173
1708 1920 2374 2109
1709 284 2160 1776
1710 1763 812 818
1711 2193 510 2382
1712 2374 1920 294
1713 1336 307 1320
1714 1910 219 234
1715 219 730 234
1716 2026 2025 1921
1717 2198 628 1491
1718 805 1766 2025
1719 805 2498 2025
1720 1387 1395 1384
1721 1686 2071 1187
1722 2350 1558 1921
1723 2350 1558 1923
1724 1399 1395 1398
1725 192 1378 204
1726 1774 2262 798
1727 2165 2262 798
1728 810 775 304
1729 1704 1323 1333
1730 1329 1323 1333
1731 295 1384 1395
1732 295 1393 1395
1733 1335 1320 307
1734 1335 1320 1322
1735 775 766 1540
1736 278 2024 1320
1737 1309 1300 1306
1738 1309 278 1306
1739 1380 1384 2395
1740 1002 1639 390
1741 2195 2447 2413
1742 1573 1579 862
1743 1573 1579 2116
1744 1702 2195 2095
1745 2362 2195 2095
1746 2289 63 64
1747 2289 63 165
1748 2157 216 2017
1749 2157 216 1524
1750 973 2268 8
1751 973 1552 8
1752 221 959 984
1753 297 9 12
1754 314 2470 2269
1755 316 2470 2269
1756 2269 1945 314
1757 2434 1370 1362
1758 1611 431 433
1759 1611 959 433
1760 316 297 2443
1761 991 984 2267
1762 1611 1979 1811
1763 9 2268 948
1764 2268 948 8
1765 1600 1940 2270
1766 8 948 316
1767 8 2406 316
1768 316 2406 2269
1769 1552 973 2327
1770 1552 2327 1813
1771 973 1547 2327
1772 1813 309 1552
1773 1813 309 923
1774 319 2170 1942
1775 319 1942 932
1776 1544 985 958
1777 1544 985 1553
1778 991 755 2012
1779 2304 228 1947
1780 2304 228 2012
1781 755 987 2267
1782 987 1979 2267
1783 1807 985 1553
1784 255 2482 1318
1785 2482 1337 1318
1786 319 2470 2170
1787 233 2401 747
1788 1507 2401 747
1789 2189 2191 416
1790 856 908 1796
1791 856 908 343
1792 932 2123 306
1793 932 1942 306
1794 1774 296 300
1795 1774 296 798
1796 449 448 1980
1797 381 1706 2481
1798 381 1346 2481
1799 985 2045 949
1800 985 2045 1807
1801 1540 817 814
1802 1540 817 810
1803 283 2028 1870
1804 283 1870 815
1805 775 810 1540
1806 2206 1539 768
1807 2206 768 813
1808 1775 451 1417
1809 2077 771 28
1810 1548 798 2165
1811 1534 1772 21
1812 443 1772 21
1813 625 1741 2005
1814 625 1741 627
1815 447 2298 1415
1816 1553 311 1807
1817 784 2324 1923
1818 1558 2324 1923
1819 1167 1692 1970
1820 1015 1021 82
1821 1021 82 86
1822 801 1558 1921
1823 801 1766 1921
1824 2025 1921 1766
1825 778 288 2360
1826 1617 951 1940
1827 1531 1613 914
1828 822 1981 823
1829 2307 943 1531
1830 138 1428 635
1831 2481 1335 299
1832 2307 1531 914
1833 2108 174 1536
1834 1414 1415 445
1835 1415 445 1416
1836 793 1981 1776
1837 2284 1981 1776
1838 800 813 768
1839 800 813 1551
1840 2206 284 1539
1841 776 284 1539
1842 1555 291 293
1843 914 1613 6
1844 776 1474 2498
1845 1418 1420 1871
1846 1418 2373 1871
1847 817 2403 2284
1848 817 2403 304
1849 2028 2140 1870
1850 795 284 2206
1851 1222 1225 232
1852 1201 1225 232
1853 1768 2027 2105
1854 442 2027 2105
1855 2160 1776 2284
1856 2160 2284 2403
1857 449 2140 448
1858 2140 23 448
1859 607 66 480
1860 607 177 480
1861 2160 776 284
1862 2160 776 2498
1863 2472 799 763
1864 799 291 763
1865 1542 825 821
1866 450 283 2028
1867 1982 1419 26
1868 1871 2373 450
1869 26 1982 451
1870 26 1417 451
1871 311 951 1617
1872 311 951 1553
1873 823 1763 822
1874 1763 771 822
1875 2262 824 770
1876 2262 765 770
1877 817 814 2284
1878 814 1981 2284
1879 823 814 1981
1880 822 1981 282
1881 284 1776 793
1882 284 2111 793
1883 2281 1148 1144
1884 1417 825 1775
1885 26 1417 450
1886 825 450 283
1887 825 283 1542
1888 26 450 1871
1889 26 1419 1871
1890 1420 771 822
1891 1420 771 1419
1892 1418 1420 449
1893 1420 449 781
1894 825 450 1417
1895 2028 450 2373
1896 2028 2373 1418
1897 1542 821 300
1898 1542 1774 300
1899 1418 2028 2140
1900 795 813 2437
1901 795 813 2206
1902 1539 1474 768
1903 2029 770 1545
1904 2165 787 824
1905 2165 824 2262
1906 2437 1764 1917
1907 1764 1538 1917
1908 765 770 1545
1909 815 1870 447
1910 1870 447 23
1911 1178 413 1672
1912 1178 1672 1163
1913 445 1416 446
1914 446 22 1764
1915 23 448 447
1916 448 447 1980
1917 447 1416 1415
1918 447 1416 1980
1919 22 1980 24
1920 22 1980 1416
1921 815 2298 1545
1922 2029 2298 1545
1923 2411 1150 1160
1924 1379 1386 1380
1925 1386 289 1380
1926 282 793 2111
1927 282 2111 781
1928 1764 1538 446
1929 445 1538 446
1930 24 449 1925
1931 24 449 1980
1932 2437 1551 1917
1933 2437 1551 813
1934 809 2260 280
1935 809 280 762
1936 1851 1181 412
1937 2111 795 284
1938 1925 795 22
1939 1925 795 2111
1940 24 22 1925
1941 2207 298 291
1942 2207 291 763
1943 2110 785 826
1944 1948 950 1944
1945 950 949 1944
1946 1924 288 1532
1947 1558 2324 1557
1948 1558 1557 801
1949 2260 162 792
1950 2260 792 280
1951 1762 175 807
1952 175 807 808
1953 1533 1412 2105
1954 1922 1412 2105
1955 1766 801 2112
1956 1766 2112 805
1957 2431 412 1161
1958 2431 412 1963
1959 1687 1194 279
1960 569 144 1461
1961 569 1461 2002
1962 291 1555 799
1963 1924 19 802
1964 1924 1532 802
1965 2106 1917 1538
1966 2106 443 1538
1967 2106 1551 1917
1968 2188 1163 2228
1969 1525 703 39
1970 703 39 1519
1971 196 2005 1741
1972 196 2005 673
1973 444 2106 443
1974 444 1551 2106
1975 298 782 293
1976 298 293 291
1977 1355 1339 1352
1978 1330 1339 1352
1979 800 670 768
1980 778 1551 800
1981 1735 2446 2342
1982 2015 1710 2013
1983 264 943 1944
1984 264 958 1944
1985 1376 1386 1389
1986 1386 1389 1400
1987 1768 2027 21
1988 1768 2472 21
1989 1557 801 1765
1990 801 2112 1765
1991 1765 799 1555
1992 1355 1359 1368
1993 1397 1401 1396
1994 1397 1382 1396
1995 307 2434 299
1996 307 299 1335
1997 950 949 228
1998 2045 949 228
1999 1387 1707 289
2000 1387 1707 1399
2001 194 807 1546
2002 1898 1493 2001
2003 1898 2291 2001
2004 671 1474 773
2005 1364 1361 1354
2006 1364 1374 1354
2007 1414 1772 784
2008 2324 1772 784
2009 1538 1414 443
2010 1414 1772 443
2011 1765 293 2112
2012 1555 293 1765
2013 1534 1772 1557
2014 956 916 6
2015 1388 1383 185
2016 192 1358 2234
2017 381 1868 1706
2018 1868 1389 1706
2019 1400 289 1707
2020 1400 289 1386
2021 652 1736 622
2022 652 622 1889
2023 624 673 1736
2024 624 622 1736
2025 374 1330 1317
2026 1290 184 1312
2027 1290 184 1278
2028 2481 299 302
2029 1379 1386 1376
2030 1379 1376 302
2031 1369 1368 1364
2032 1369 1392 1364
2033 2331 1033 1630
2034 2331 1033 998
2035 302 1379 1370
2036 302 299 1370
2037 206 674 1867
2038 206 1344 1867
2039 596 626 1500
2040 1399 1395 1387
2041 816 1405 826
2042 816 1405 1922
2043 2498 773 1474
2044 2498 773 805
2045 198 1390 1388
2046 1383 1390 1388
2047 1315 2075 1282
2048 160 639 169
2049 639 667 169
2050 703 712 1519
2051 1507 712 1519
2052 2017 1912 216
2053 1977 2234 1378
2054 1332 2233 1361
2055 1402 1401 292
2056 1402 1401 198
2057 265 1340 1343
2058 265 258 1343
2059 1401 287 292
2060 1400 287 292
2061 1361 1331 1332
2062 366 1130 2061
2063 1130 2061 1118
2064 1864 1331 231
2065 2017 250 1912
2066 1312 181 184
2067 1369 1392 1391
2068 1392 1394 1391
2069 2075 1305 1286
2070 2316 1305 1286
2071 1975 1344 1345
2072 315 1392 1394
2073 315 1392 1977
2074 1868 1389 1391
2075 1389 1391 317
2076 828 839 122
2077 287 1394 317
2078 1391 1394 317
2079 632 1494 1496
2080 2364 178 2152
2081 2364 178 2291
2082 1257 1247 1254
2083 1257 1247 907
2084 1503 1866 1976
2085 1866 1976 1340
2086 1375 1369 1391
2087 1868 1375 1391
2088 1354 1343 258
2089 1354 1343 1358
2090 1866 1340 265
2091 1931 340 894
2092 1089 1249 1244
2093 1236 1249 1244
2094 192 204 1341
2095 1345 204 1341
2096 1374 2234 1358
2097 1374 1358 1354
2098 1281 1282 236
2099 1332 1331 231
2100 889 887 891
2101 887 891 2475
2102 1358 1343 1340
2103 1358 1340 1976
2104 1361 258 1354
2105 1976 1341 192
2106 1976 192 1358
2107 1976 1503 1341
2108 367 361 1259
2109 361 1259 1253
2110 1374 2234 1977
2111 1368 2233 1364
2112 1374 1977 1392
2113 1392 1364 1374
2114 1286 2316 1292
2115 1286 1292 1275
2116 383 1816 2174
2117 1339 1313 1351
2118 1313 2468 1351
2119 1351 2468 1332
2120 685 2346 2023
2121 685 2023 2204
2122 1866 1315 265
2123 2017 250 709
2124 250 709 1907
2125 468 469 689
2126 2085 2388 2210
2127 2085 2388 549
2128 1864 265 1315
2129 1864 265 1331
2130 1302 1317 1301
2131 1330 1317 1301
2132 345 1933 867
2133 345 1933 1793
2134 2468 1287 1301
2135 1575 322 903
2136 902 322 903
2137 251 252 1272
2138 237 252 1272
2139 226 679 2387
2140 679 2294 2387
2141 360 351 1929
2142 1724 866 549
2143 241 1272 1299
2144 1299 2468 231
2145 1299 2468 241
2146 892 864 2036
2147 892 1565 2036
2148 1203 1274 1282
2149 2357 997 1820
2150 2357 1821 1820
2151 2075 1866 1305
2152 1866 1305 1307
2153 236 1864 231
2154 1085 2181 401
2155 1315 1864 236
2156 1315 1282 236
2157 1590 835 2167
2158 697 229 2346
2159 697 2346 685
2160 1281 1282 1203
2161 2075 1274 1282
2162 2153 2016 691
2163 1286 1275 1274
2164 2201 2156 2386
2165 2371 2156 2386
2166 2075 1866 1315
2167 1866 1503 1307
2168 1264 1242 249
2169 1264 1242 1237
2170 1298 256 1289
2171 249 256 1289
2172 1286 1274 2075
2173 2062 366 2061
2174 2062 366 338
2175 1289 1298 255
2176 1289 249 2422
2177 1242 249 2422
2178 1234 270 1253
2179 1234 1253 361
2180 1294 1284 1292
2181 184 1269 402
2182 184 402 181
2183 1346 374 1337
2184 2482 374 1337
2185 1010 1055 2216
2186 1975 1344 206
2187 1287 1291 1302
2188 1301 1302 1287
2189 262 1264 1263
2190 1276 1263 262
2191 1276 1256 262
2192 1290 1312 1297
2193 1311 1312 1297
2194 1302 256 1291
2195 256 1263 1291
2196 241 237 1276
2197 241 1276 1287
2198 2442 891 2032
2199 2442 891 260
2200 270 252 1253
2201 270 252 1256
2202 1276 1291 1263
2203 2204 2400 1521
2204 744 39 1506
2205 701 39 1506
2206 1526 744 1525
2207 744 39 1525
2208 679 458 735
2209 679 1516 735
2210 1519 701 39
2211 1519 701 2022
2212 2255 1511 1525
2213 1511 1525 703
2214 250 2258 1907
2215 1518 688 758
2216 1912 216 1507
2217 747 216 1507
2218 247 685 709
2219 685 697 709
2220 2258 712 250
2221 705 460 1505
2222 738 460 1505
2223 233 705 691
2224 705 691 1505
2225 2401 2022 2016
2226 2401 691 2016
2227 2294 696 714
2228 2294 696 2387
2229 2113 332 324
2230 2113 331 324
2231 1578 863 2033
2232 1578 354 2033
2233 457 458 737
2234 457 737 677
2235 1569 2404 2209
2236 677 737 1710
2237 2459 239 1406
2238 724 737 1710
2239 739 745 226
2240 739 745 40
2241 1516 679 2294
2242 1516 2294 1913
2243 229 714 2159
2244 2033 1582 72
2245 2033 1582 858
2246 1753 2194 696
2247 714 2194 696
2248 1960 455 1654
2249 2477 2259 239
2250 2477 2259 465
2251 1518 2023 2346
2252 2035 2404 2209
2253 90 2222 1128
2254 406 2222 1128
2255 2102 2156 42
2256 461 1759 41
2257 226 745 462
2258 226 462 2387
2259 1750 1749 212
2260 2014 1749 212
2261 458 724 737
2262 458 724 735
2263 461 462 41
2264 1505 738 457
2265 738 457 458
2266 2279 1104 2220
2267 2279 1104 29
2268 239 2205 1406
2269 2205 254 1406
2270 2201 2156 2102
2271 2201 1904 2102
2272 726 244 2194
2273 244 2194 733
2274 754 2157 1521
2275 247 2157 1521
2276 754 1524 2157
2277 355 534 829
2278 909 2127 2273
2279 2017 2157 247
2280 2017 709 247
2281 1904 1524 754
2282 1904 1524 2201
2283 247 685 1521
2284 754 1904 2256
2285 227 1907 1511
2286 2258 1907 1511
2287 1752 709 1907
2288 227 1913 1752
2289 227 1752 1907
2290 714 2294 1913
2291 714 230 1913
2292 714 230 229
2293 1752 1913 230
2294 1752 709 697
2295 214 687 1749
2296 214 687 2019
2297 1505 677 691
2298 457 677 1505
2299 1117 44 1130
2300 44 1655 1130
2301 858 1788 2302
2302 2275 1655 44
2303 43 1984 463
2304 1750 2100 1749
2305 2100 1749 214
2306 2275 403 44
2307 403 44 1650
2308 691 677 2153
2309 1710 677 2153
2310 1118 1956 1102
2311 1956 1102 1649
2312 2223 335 1122
2313 2223 335 1658
2314 71 35 2404
2315 35 2404 2035
2316 1404 832 831
2317 266 58 965
2318 266 58 475
2319 49 1098 1105
2320 366 338 1122
2321 338 1122 2223
2322 1122 2275 1655
2323 1122 2275 335
2324 1956 1650 404
2325 1956 1650 1117
2326 403 335 404
2327 403 335 2275
2328 2295 2254 720
2329 1910 234 1903
2330 234 684 1903
2331 1650 44 1117
2332 2230 1223 1222
2333 1223 1222 1219
2334 1130 366 1655
2335 366 1655 1122
2336 1930 1570 32
2337 844 1936 878
2338 2099 473 56
2339 476 59 2099
2340 476 477 2293
2341 476 477 59
2342 48 50 468
2343 48 50 467
2344 48 467 756
2345 473 2466 2099
2346 473 2466 2369
2347 56 473 472
2348 689 465 469
2349 2101 465 469
2350 470 56 472
2351 215 1756 60
2352 1903 1529 1515
2353 1903 1529 254
2354 1837 2488 2063
2355 359 2488 2063
2356 1017 2054 2218
2357 1017 2378 2218
2358 2369 257 2397
2359 257 2397 683
2360 2254 2369 2397
2361 2254 2369 2466
2362 726 244 743
2363 676 682 1508
2364 59 50 2099
2365 2254 2295 2397
2366 2295 699 2397
2367 222 1915 719
2368 1915 699 719
2369 219 692 259
2370 219 692 2011
2371 2397 683 699
2372 683 699 1915
2373 463 1427 1528
2374 1914 1426 1427
2375 2385 708 242
2376 2385 708 1515
2377 1649 49 1102
2378 1649 49 1658
2379 1129 1102 1105
2380 49 1102 1105
2381 1100 337 1134
2382 222 760 1915
2383 683 702 1915
2384 683 702 246
2385 2101 48 469
2386 2101 48 756
2387 1937 2168 882
2388 2168 2208 882
2389 222 1755 760
2390 1755 725 760
2391 232 1201 1197
2392 1201 1197 1200
2393 725 760 748
2394 725 748 60
2395 239 2477 2205
2396 845 874 844
2397 857 874 844
2398 2477 465 2101
2399 2080 1528 2259
2400 465 689 2141
2401 689 2141 1426
2402 1916 2101 756
2403 2361 2205 2477
2404 1427 2080 1426
2405 2080 1426 466
2406 1528 1427 2080
2407 1114 273 2064
2408 466 2080 2141
2409 2080 2141 2259
2410 1590 326 2167
2411 895 326 2167
2412 1426 466 2141
2413 1984 464 2079
2414 46 464 2079
2415 1521 2400 754
2416 2256 2400 754
2417 1130 1118 1117
2418 731 254 1406
2419 731 254 1529
2420 2223 1134 338
2421 1663 1134 2223
2422 1841 1667 2061
2423 2062 1667 2061
2424 2346 733 758
2425 2346 758 1518
2426 2061 1841 1118
2427 1841 1102 1118
2428 1104 1955 1098
2429 1133 1135 1100
2430 1135 1140 1100
2431 34 1572 118
2432 1572 118 531
2433 1098 2060 1957
2434 1123 1140 337
2435 1100 1140 337
2436 2409 2440 1009
2437 2440 1009 2177
2438 1092 271 1957
2439 1092 271 1114
2440 31 1140 1135
2441 2064 1140 1123
2442 1957 1098 1105
2443 1957 1105 1129
2444 1957 271 1129
2445 328 1937 881
2446 551 1825 133
2447 2034 848 1778
2448 2060 1839 1092
2449 1992 536 537
2450 1133 1654 1135
2451 1107 1114 1092
2452 1107 1114 749
2453 272 1107 33
2454 272 33 57
2455 1662 2078 2059
2456 2034 1927 840
2457 1927 839 840
2458 2168 2429 2208
2459 1571 339 1585
2460 1839 1107 33
2461 1839 1653 33
2462 360 1792 890
2463 122 839 1992
2464 122 537 1992
2465 2457 882 2353
2466 2457 882 852
2467 1915 760 2020
2468 760 748 2020
2469 1262 498 499
2470 2435 342 1932
2471 2435 1932 898
2472 2034 857 874
2473 2034 1778 874
2474 1778 2353 874
2475 348 1933 861
2476 1933 861 1452
2477 336 1651 2078
2478 1576 535 1786
2479 1203 1863 1274
2480 1638 2417 1637
2481 840 877 876
2482 577 1887 1464
2483 1284 402 1269
2484 1937 1778 2353
2485 1937 2353 882
2486 1060 2330 1027
2487 2330 1027 1631
2488 1027 1060 1828
2489 1037 2126 1952
2490 2126 346 1952
2491 877 881 848
2492 881 1937 848
2493 385 1829 1060
2494 1829 1060 2330
2495 2475 1783 891
2496 1230 1221 341
2497 1230 2283 341
2498 1937 1778 848
2499 845 883 2457
2500 1107 1092 1839
2501 2442 870 248
2502 69 486 485
2503 486 485 71
2504 532 534 533
2505 869 2325 854
2506 2325 867 854
2507 267 749 1107
2508 267 749 1099
2509 1127 90 1097
2510 330 845 883
2511 1199 2042 896
2512 1199 2375 896
2513 2084 1723 124
2514 2042 1587 1199
2515 891 260 889
2516 1938 260 889
2517 2158 761 2103
2518 2158 761 259
2519 2158 259 219
2520 902 870 1783
2521 2032 870 1783
2522 217 727 2138
2523 727 723 2138
2524 1514 728 217
2525 240 2021 215
2526 1793 1933 850
2527 2435 1575 340
2528 2435 899 340
2529 897 855 853
2530 897 853 1566
2531 682 718 1508
2532 1233 676 1508
2533 1233 1219 1508
2534 718 748 682
2535 718 60 748
2536 718 60 1756
2537 471 470 51
2538 506 501 2144
2539 506 2144 1111
2540 1508 718 1756
2541 1508 1219 1756
2542 2018 1527 2230
2543 1527 2230 1223
2544 215 759 1756
2545 2081 471 474
2546 723 1198 693
2547 2293 51 2081
2548 51 471 2081
2549 2462 2082 1439
2550 2462 1090 1439
2551 2219 1120 1124
2552 2224 1120 1124
2553 2018 2011 742
2554 2018 2011 692
2555 470 2292 472
2556 470 2292 1760
2557 75 1262 1430
2558 1197 1584 2334
2559 1230 1213 1221
2560 1213 1218 1221
2561 55 2103 761
2562 55 2103 474
2563 130 2414 2487
2564 2230 232 1197
2565 2085 873 546
2566 1090 94 1439
2567 1090 94 2277
2568 890 1589 1928
2569 890 1589 2166
2570 1230 1200 1201
2571 1230 1200 1206
2572 904 1797 1696
2573 904 1797 905
2574 1206 1584 1929
2575 1204 358 365
2576 546 2490 1880
2577 1258 2405 1238
2578 1653 57 33
2579 1653 57 1108
2580 2081 477 474
2581 2081 477 2293
2582 1971 1784 365
2583 879 349 1792
2584 1584 1792 349
2585 2334 2138 1126
2586 2334 1195 1126
2587 1103 2276 2421
2588 2489 2490 1880
2589 1197 2230 2138
2590 1197 2334 2138
2591 587 586 1998
2592 728 1514 761
2593 1514 761 55
2594 471 753 55
2595 1211 1696 856
2596 90 2185 1097
2597 90 2185 1128
2598 846 878 2326
2599 878 1757 2326
2600 692 217 728
2601 692 217 2018
2602 1223 742 1527
2603 759 742 1223
2604 474 471 55
2605 36 456 1840
2606 1219 759 1223
2607 1756 759 1219
2608 52 753 471
2609 52 470 471
2610 407 1859 2292
2611 846 1936 878
2612 1792 2352 879
2613 2326 2352 879
2614 1928 2354 1589
2615 330 1928 2354
2616 2488 1666 2391
2617 2488 1666 1657
2618 1840 456 1651
2619 456 1651 1120
2620 16 2390 1103
2621 1119 438 16
2622 1666 2391 2221
2623 1659 504 1958
2624 1659 504 1436
2625 1837 1652 1656
2626 1837 1652 54
2627 1580 836 1559
2628 2078 1961 336
2629 1662 1651 2078
2630 1126 405 329
2631 1258 1252 1238
2632 694 2455 1859
2633 694 2292 1859
2634 502 1142 2144
2635 1127 1097 1113
2636 693 1760 52
2637 1581 1195 329
2638 1581 353 329
2639 723 2138 1126
2640 1195 879 1581
2641 1195 879 349
2642 2038 1573 2116
2643 2038 353 2116
2644 1884 1202 2282
2645 723 1126 1198
2646 1837 57 2379
2647 1837 57 272
2648 272 2063 1837
2649 1661 1115 2221
2650 1661 1115 1958
2651 872 879 1581
2652 359 2391 2488
2653 1986 1255 1243
2654 1986 1255 2139
2655 1349 641 1348
2656 1127 1113 1661
2657 1668 2410 1136
2658 1207 1695 1214
2659 90 1657 2222
2660 90 1657 1666
2661 1127 1666 90
2662 94 508 1116
2663 94 2277 1116
2664 472 2292 694
2665 1119 2441 53
2666 1119 53 1137
2667 1652 1121 1657
2668 1652 1121 2390
2669 2462 1659 1094
2670 2222 1657 1121
2671 693 753 2478
2672 693 753 52
2673 1090 2462 1659
2674 1959 502 2144
2675 504 505 506
2676 505 506 89
2677 501 2144 1959
2678 1652 1657 1656
2679 1657 1656 2488
2680 2196 1125 1664
2681 2221 1115 2391
2682 1142 2264 2132
2683 866 2487 1724
2684 2414 2487 1724
2685 1106 1109 2497
2686 749 350 273
2687 1139 350 273
2688 2279 1108 1653
2689 2279 1108 1109
2690 1777 119 2239
2691 2063 359 1101
2692 359 1101 2264
2693 616 2094 2248
2694 616 2094 2415
2695 2274 1096 2132
2696 336 2497 1960
2697 1109 2497 1960
2698 749 1099 350
2699 272 2063 267
2700 2063 267 1101
2701 1107 267 272
2702 2167 1586 895
2703 2274 1662 2059
2704 2274 1648 1096
2705 2274 1648 2059
2706 2034 877 840
2707 2034 877 848
2708 1653 2060 2279
2709 1653 2060 1839
2710 1110 1660 1106
2711 1660 1106 1665
2712 456 2224 1120
2713 1142 36 2132
2714 1960 1961 455
2715 1665 2379 57
2716 2421 1110 2276
2717 2219 1110 2276
2718 2224 36 456
2719 1819 1064 2125
2720 502 2224 36
2721 502 36 1142
2722 1662 1651 1840
2723 336 1120 2497
2724 336 1120 1651
2725 888 1930 1791
2726 350 1141 1139
2727 1580 1559 2263
2728 1580 72 2263
2729 2059 1648 350
2730 2059 1141 350
2731 336 1960 1961
2732 455 31 1141
2733 31 1141 1139
2734 851 865 1779
2735 851 865 1570
2736 1961 455 1141
2737 2302 1985 1788
2738 1985 1788 1779
2739 2035 1564 2209
2740 69 2351 2501
2741 69 2501 486
2742 886 35 865
2743 35 1790 865
2744 2301 884 332
2745 2301 884 2265
2746 1570 865 1790
2747 1789 1580 326
2748 1580 326 836
2749 487 886 865
2750 888 2115 2263
2751 35 71 886
2752 486 71 886
2753 1791 2035 1790
2754 35 2035 1790
2755 2301 70 332
2756 2113 1404 331
2757 1017 2175 1003
2758 2355 1569 2404
2759 2355 2265 2404
2760 832 1781 1583
2761 832 1404 1583
2762 383 2218 1077
2763 383 2174 1077
2764 831 1404 2115
2765 1404 331 2115
2766 1404 1583 1561
2767 1404 2113 1561
2768 1561 2113 333
2769 2301 485 2265
2770 2404 485 2265
2771 324 2351 1582
2772 324 331 1582
2773 830 888 831
2774 888 831 2115
2775 71 485 2404
2776 324 2351 70
2777 2351 70 69
2778 332 324 70
2779 1582 331 2263
2780 2115 331 2263
2781 485 69 2301
2782 69 70 2301
2783 832 1564 831
2784 832 1564 2209
2785 831 830 1564
2786 1631 2273 121
2787 354 2302 841
2788 2501 858 488
2789 2033 354 858
2790 354 858 2302
2791 1582 72 2263
2792 2204 708 235
2793 2204 708 2023
2794 73 531 1985
2795 488 1788 858
2796 1985 2302 73
2797 841 2302 73
2798 1930 836 1559
2799 1930 836 32
2800 2501 488 487
2801 487 1779 865
2802 341 347 2458
2803 347 1250 2458
2804 72 2033 863
2805 72 1789 863
2806 2501 2351 858
2807 2351 858 1582
2808 1779 487 488
2809 893 843 2325
2810 893 2325 348
2811 1571 834 2456
2812 1571 834 339
2813 1580 1789 72
2814 1577 1777 119
2815 1577 2114 119
2816 344 326 1590
2817 1779 1788 488
2818 1779 851 1572
2819 1779 1572 1985
2820 836 327 32
2821 327 30 32
2822 1572 851 34
2823 851 1794 34
2824 532 860 859
2825 532 859 1777
2826 32 30 1794
2827 32 1570 1794
2828 1570 1794 851
2829 1578 849 354
2830 841 849 354
2831 1590 269 344
2832 1578 269 344
2833 843 855 2325
2834 325 892 864
2835 325 864 829
2836 269 842 1590
2837 842 835 1590
2838 1578 863 344
2839 344 1789 326
2840 344 1789 863
2841 1140 1139 31
2842 1140 1139 2064
2843 827 119 2114
2844 827 2114 871
2845 2239 534 533
2846 34 1794 30
2847 827 1571 2456
2848 827 2456 1562
2849 881 877 1577
2850 877 1786 1577
2851 245 731 711
2852 2459 731 711
2853 1787 118 1562
2854 118 2456 1562
2855 1577 881 2114
2856 881 2114 1563
2857 118 2456 34
2858 834 2456 34
2859 1586 2167 268
2860 2167 835 268
2861 1576 1786 877
2862 2239 533 1777
2863 532 533 1777
2864 1565 842 835
2865 1565 842 892
2866 73 841 530
2867 1585 1563 871
2868 1563 2114 871
2869 1031 1036 1830
2870 530 847 1787
2871 531 530 73
2872 530 841 847
2873 530 1787 531
2874 118 1787 531
2875 1577 1777 1786
2876 1777 1786 859
2877 841 849 355
2878 841 355 847
2879 859 860 535
2880 860 535 1452
2881 876 1576 850
2882 876 1576 877
2883 2461 1567 902
2884 870 1567 902
2885 1933 1452 850
2886 1452 535 850
2887 850 1576 535
2888 1578 849 325
2889 1578 269 325
2890 1452 860 861
2891 534 532 860
2892 325 355 829
2893 893 348 1934
2894 348 1934 861
2895 2239 847 534
2896 847 534 355
2897 534 860 861
2898 534 1934 861
2899 847 1787 2239
2900 893 843 2036
2901 843 853 2036
2902 864 1934 829
2903 534 1934 829
2904 1787 119 1562
2905 827 119 1562
2906 551 133 135
2907 835 268 1782
2908 835 1782 1565
2909 1586 1585 339
2910 2023 1518 242
2911 2023 242 708
2912 893 864 2036
2913 893 864 1934
2914 1586 1560 268
2915 2457 852 1938
2916 852 260 1938
2917 2325 867 348
2918 1933 867 348
2919 222 1755 2200
2920 222 2200 719
2921 2032 1783 891
2922 2475 901 1783
2923 2168 328 2303
2924 2168 2429 2303
2925 857 873 1785
2926 857 873 1927
2927 869 855 897
2928 869 855 2325
2929 394 393 1826
2930 1589 2486 2475
2931 342 1587 903
2932 2442 2208 260
2933 852 2208 260
2934 837 868 1560
2935 868 1560 1566
2936 2486 901 2475
2937 1041 195 1630
2938 1041 195 2176
2939 870 2032 2442
2940 1275 1274 2231
2941 1274 1863 2231
2942 1086 1836 2480
2943 544 2085 546
2944 1009 2128 346
2945 2128 125 346
2946 882 2208 852
2947 235 1529 245
2948 363 2458 1250
2949 363 1268 1250
2950 322 2461 902
2951 854 322 1931
2952 854 322 2461
2953 854 1931 867
2954 345 1931 867
2955 2461 869 1567
2956 2461 869 854
2957 1863 1259 1203
2958 251 1259 1203
2959 731 245 1529
2960 253 742 2011
2961 253 742 240
2962 328 881 1563
2963 328 2303 1563
2964 1567 869 897
2965 1910 2158 219
2966 2429 837 2303
2967 2429 837 868
2968 853 843 855
2969 1566 1782 1560
2970 1782 268 1560
2971 853 1566 1565
2972 1566 1782 1565
2973 853 1565 2036
2974 1520 2400 2256
2975 1520 746 2256
2976 1759 46 1425
2977 720 1914 721
2978 720 726 721
2979 43 2347 721
2980 2347 1753 721
2981 2400 2204 235
2982 2400 235 1520
2983 235 1515 1529
2984 235 1515 708
2985 254 1910 2205
2986 254 1910 1903
2987 726 2194 721
2988 244 2345 743
2989 1984 41 1425
2990 1984 41 43
2991 2200 1755 688
2992 464 1984 1425
2993 464 1425 46
2994 235 1520 245
2995 1520 711 245
2996 270 1241 261
2997 270 1234 261
2998 725 2021 734
2999 725 734 1755
3000 2256 746 1904
3001 2102 746 1904
3002 711 746 1520
3003 2459 746 711
3004 2459 746 47
3005 730 234 684
3006 1909 253 684
3007 253 684 730
3008 1237 1233 1245
3009 1233 263 1245
3010 743 2345 2200
3011 2345 688 2200
3012 743 2424 2200
3013 743 2424 722
3014 463 1528 2079
3015 2346 229 2159
3016 2194 733 2159
3017 733 2159 2346
3018 244 733 2345
3019 733 758 2345
3020 1759 41 1425
3021 2204 685 1521
3022 2011 219 730
3023 2011 730 253
3024 758 2345 688
3025 2459 1406 731
3026 686 2385 1909
3027 734 686 688
3028 734 688 1755
3029 2424 719 2200
3030 1971 365 1204
3031 1910 2205 2361
3032 2459 239 47
3033 2259 239 47
3034 1841 1138 1667
3035 1841 1138 271
3036 1253 251 1259
3037 1253 251 252
3038 1256 1245 262
3039 1256 1245 1241
3040 261 263 1241
3041 1245 263 1241
3042 1909 240 253
3043 386 2480 1074
3044 386 1074 2180
3045 129 905 547
3046 2230 1222 232
3047 1588 838 1932
3048 341 1221 347
3049 1931 894 345
3050 1793 894 345
3051 1909 1515 2385
3052 1247 1240 1232
3053 1218 1240 1232
3054 870 897 248
3055 870 897 1567
3056 1234 261 1225
3057 1234 2283 1225
3058 1271 1269 1278
3059 1269 1278 184
3060 361 341 367
3061 341 2458 367
3062 270 1256 1241
3063 1234 361 2283
3064 361 2283 341
3065 1230 1201 2283
3066 1201 2283 1225
3067 1294 1292 2316
3068 1332 2468 231
3069 241 2468 1287
3070 367 2231 1863
3071 367 1259 1863
3072 1294 402 1284
3073 2129 1641 1636
3074 2042 1796 908
3075 2042 1796 896
3076 2458 2231 363
3077 2458 2231 367
3078 357 1240 1218
3079 544 126 866
3080 1048 1954 576
3081 1793 894 537
3082 536 894 537
3083 1218 347 1232
3084 1218 347 1221
3085 1227 1212 357
3086 358 1212 357
3087 607 484 66
3088 1218 358 357
3089 1213 358 1218
3090 1261 1089 2337
3091 1587 901 1199
3092 901 1199 2486
3093 1568 541 543
3094 1435 546 544
3095 2166 360 890
3096 2489 1453 124
3097 346 2126 1009
3098 2332 2271 1642
3099 392 2271 1642
3100 395 2419 906
3101 2058 2419 906
3102 1879 1722 2084
3103 1722 539 2084
3104 1723 1935 124
3105 1641 125 2129
3106 1341 1975 1345
3107 551 1456 1825
3108 551 1456 1827
3109 2418 346 125
3110 61 2125 2178
3111 53 1207 2187
3112 287 315 1401
3113 125 2129 2418
3114 2177 2126 1009
3115 2440 992 2177
3116 42 746 2102
3117 2243 1497 2244
3118 2243 2244 1483
3119 1006 2448 2240
3120 1012 134 1625
3121 134 1625 135
3122 133 394 1826
3123 133 1825 1826
3124 2180 1018 386
3125 2180 1018 2308
3126 135 551 134
3127 546 1881 1435
3128 545 1881 1435
3129 992 134 1012
3130 992 1012 2177
3131 1827 2240 552
3132 1827 552 1456
3133 549 2085 544
3134 2199 2089 2344
3135 1069 2313 1074
3136 2480 1074 1836
3137 1011 1836 1069
3138 1836 1074 1069
3139 992 2440 1646
3140 1827 2240 992
3141 193 1646 2271
3142 193 1646 1038
3143 974 940 923
3144 1945 940 923
3145 2177 2126 1037
3146 2177 1012 1037
3147 1826 393 1061
3148 1001 2378 2218
3149 1086 401 2480
3150 401 386 2480
3151 1625 135 2309
3152 1631 2272 1057
3153 1631 1057 1027
3154 1641 123 1637
3155 1636 401 1085
3156 1087 1075 1057
3157 1075 1952 1087
3158 1075 1725 1952
3159 2281 1144 1159
3160 1086 2129 1636
3161 1086 401 1636
3162 1086 2418 2129
3163 2418 1836 1086
3164 2418 1836 1635
3165 1635 1057 2272
3166 1829 909 1830
3167 2054 1036 1819
3168 2054 1819 1017
3169 1085 394 393
3170 1085 393 1636
3171 2309 1018 2308
3172 1828 1725 1835
3173 1828 1725 1075
3174 1066 2357 1624
3175 121 2273 2127
3176 1017 2125 2175
3177 1017 2125 1819
3178 1635 1836 1011
3179 1635 2272 1011
3180 1828 1075 1027
3181 1075 1057 1027
3182 2127 909 1830
3183 1629 121 120
3184 2127 121 120
3185 1625 2449 550
3186 1065 2377 1031
3187 2127 1830 2377
3188 2127 2377 120
3189 868 248 2429
3190 1629 120 1068
3191 1569 321 2355
3192 1569 321 1574
3193 1953 1629 2389
3194 1953 2311 2389
3195 909 2330 1631
3196 909 2273 1631
3197 2175 2178 1030
3198 1828 1060 385
3199 1828 993 385
3200 1733 618 640
3201 2055 2056 1622
3202 1817 2056 1622
3203 1068 1622 120
3204 1030 1817 1068
3205 1817 1622 1068
3206 592 161 2253
3207 2199 2149 2009
3208 659 608 163
3209 660 608 163
3210 133 1018 394
3211 1018 2181 394
3212 2175 2125 2178
3213 1036 1829 1064
3214 1036 1829 1830
3215 1069 2313 2389
3216 2313 1623 2389
3217 1623 2311 2389
3218 1040 550 2308
3219 1040 993 62
3220 1629 1953 1068
3221 62 1040 2329
3222 1040 2329 1626
3223 2056 2179 1816
3224 2056 2174 1816
3225 1835 2449 1725
3226 550 2449 1835
3227 550 1040 1835
3228 1625 550 2309
3229 550 2308 2309
3230 1040 1835 993
3231 993 1835 1828
3232 1879 1722 880
3233 2309 135 133
3234 993 385 1064
3235 993 1035 1064
3236 993 62 1035
3237 61 2125 1035
3238 2125 1035 1064
3239 395 1005 2419
3240 130 1797 2425
3241 130 2425 2414
3242 61 2329 62
3243 61 1035 62
3244 1631 121 2272
3245 1011 121 2272
3246 1011 1629 2389
3247 1011 1629 121
3248 61 1623 2311
3249 1064 385 1829
3250 1068 1030 1953
3251 1030 1953 2178
3252 2309 1018 133
3253 394 1085 2181
3254 1953 2178 2311
3255 2178 2311 61
3256 1626 2313 1623
3257 1626 1623 2329
3258 1626 1040 2308
3259 1626 2308 2180
3260 1627 1817 2056
3261 1627 1817 1003
3262 1637 393 1061
3263 123 1641 1051
3264 1058 1066 1624
3265 2093 1481 2142
3266 1880 1568 1881
3267 1822 399 2496
3268 1822 1643 2496
3269 999 1628 2376
3270 999 1628 1822
3271 518 1445 515
3272 1579 2210 2388
3273 1579 2210 2037
3274 1202 364 129
3275 1021 86 1824
3276 1319 1297 1303
3277 1319 186 1303
3278 349 2334 1195
3279 1022 2216 2130
3280 1831 1055 2183
3281 1831 1055 1010
3282 2069 1178 1174
3283 81 1019 1052
3284 2331 906 388
3285 906 388 1044
3286 1054 2310 2474
3287 1111 1958 504
3288 1993 548 1724
3289 548 2414 1724
3290 1431 499 1987
3291 1431 1987 2320
3292 2388 549 1884
3293 1231 1208 1434
3294 1451 1157 2134
3295 1936 2037 846
3296 1936 2037 2210
3297 2388 862 1579
3298 2388 862 1884
3299 1573 2038 1196
3300 1573 862 1196
3301 1010 2216 1063
3302 1010 1988 1063
3303 77 1262 1260
3304 520 2413 79
3305 131 1024 1823
3306 1054 1988 1063
3307 1432 2338 493
3308 1308 1316 1329
3309 1195 1126 329
3310 1252 1265 1258
3311 342 2042 1588
3312 342 2042 1587
3313 1044 2408 388
3314 1257 1254 396
3315 1796 896 1205
3316 351 896 1205
3317 1053 1007 1013
3318 2084 1879 1723
3319 898 1932 838
3320 898 838 1795
3321 541 900 1926
3322 126 1435 1455
3323 1435 1455 545
3324 1236 1228 1227
3325 1212 1228 1227
3326 132 1926 130
3327 1926 130 1797
3328 1971 1929 1204
3329 132 541 1926
3330 132 541 126
3331 1213 358 1204
3332 1971 1929 351
3333 1971 1205 351
3334 1013 151 2358
3335 1797 905 2425
3336 496 1715 492
3337 1715 492 490
3338 1973 79 2139
3339 1973 1255 2139
3340 2414 547 2425
3341 547 905 2425
3342 2337 2287 1260
3343 349 1584 2334
3344 1821 2357 2058
3345 1821 2058 2419
3346 358 365 1212
3347 606 1487 1472
3348 1971 1784 1205
3349 1205 1784 1796
3350 856 1784 1796
3351 352 908 343
3352 896 2375 351
3353 2332 193 2271
3354 343 1926 900
3355 343 900 352
3356 1051 1821 2128
3357 2409 1821 2128
3358 1061 1043 1826
3359 179 1642 392
3360 179 392 395
3361 1589 2486 2166
3362 2486 1199 2166
3363 1927 1454 873
3364 343 1926 1797
3365 1932 342 1588
3366 1199 2166 2375
3367 1879 880 1992
3368 1588 352 838
3369 352 838 900
3370 545 1881 543
3371 1881 543 1568
3372 540 880 1454
3373 1795 356 2489
3374 1632 123 1051
3375 1632 1820 1051
3376 124 356 2489
3377 1880 2489 1568
3378 2489 1568 1795
3379 1454 1927 880
3380 539 1453 2084
3381 1453 124 2084
3382 1992 880 839
3383 1927 880 839
3384 546 1880 1881
3385 1323 490 1316
3386 490 1316 1715
3387 2435 899 898
3388 899 356 898
3389 356 124 1935
3390 356 1935 899
3391 894 899 1935
3392 894 899 340
3393 894 1935 536
3394 1723 536 1935
3395 1723 536 1879
3396 1879 536 1992
3397 2210 873 2085
3398 1142 1111 2144
3399 1142 1111 2264
3400 1936 1785 844
3401 2210 1785 873
3402 2210 1785 1936
3403 539 1453 538
3404 545 543 1455
3405 541 543 1455
3406 2408 1042 1067
3407 2408 2376 1067
3408 2490 540 538
3409 540 538 539
3410 1454 546 873
3411 1454 546 2490
3412 2490 538 2489
3413 1453 538 2489
3414 1257 396 397
3415 1283 396 397
3416 2058 906 1050
3417 1029 1950 2496
3418 906 2331 395
3419 179 2331 395
3420 592 2253 2094
3421 618 2253 2094
3422 1624 2417 1058
3423 1020 2417 1058
3424 2089 1748 137
3425 1026 995 999
3426 995 1833 999
3427 1005 392 2271
3428 179 2053 195
3429 556 572 994
3430 556 572 1815
3431 1005 2419 2173
3432 1005 2271 2173
3433 1034 1029 398
3434 1034 2328 398
3435 1058 1020 1950
3436 1646 1038 992
3437 2240 1038 992
3438 594 1734 1504
3439 1734 1504 1747
3440 1307 1304 1305
3441 2316 1304 1305
3442 1043 1020 2417
3443 1043 1020 1056
3444 1638 1637 123
3445 1638 1632 123
3446 1624 1638 2417
3447 1624 1638 997
3448 1271 1247 1254
3449 1271 1278 1254
3450 395 392 1005
3451 363 1284 1268
3452 2173 2271 1646
3453 997 1638 1632
3454 997 1820 1632
3455 895 339 1586
3456 1307 1503 1304
3457 1646 2440 2173
3458 2440 2409 2173
3459 2409 2173 1821
3460 193 2213 2332
3461 2419 1821 2173
3462 1006 1994 555
3463 1006 1994 2213
3464 1388 1397 1385
3465 1388 185 1385
3466 67 1053 1007
3467 2010 2150 1740
3468 1058 1950 1026
3469 2312 1072 998
3470 2312 1025 998
3471 1478 1888 1480
3472 186 1303 1308
3473 1041 1007 1013
3474 1041 1007 1033
3475 1464 151 1834
3476 579 1080 1730
3477 1042 388 2408
3478 997 1624 2357
3479 1041 1630 1033
3480 994 557 2086
3481 557 2398 2086
3482 995 1028 1066
3483 131 1831 1062
3484 1032 2312 84
3485 1032 1633 84
3486 2087 67 1016
3487 2087 67 1954
3488 1886 574 146
3489 1886 146 2176
3490 1640 128 1067
3491 1640 542 1067
3492 1067 542 1042
3493 573 146 574
3494 1333 658 1357
3495 1888 623 1478
3496 577 1464 1053
3497 151 1464 1053
3498 150 148 1834
3499 150 148 1014
3500 197 1740 2150
3501 84 1047 1079
3502 631 651 1479
3503 168 1485 667
3504 1485 630 667
3505 1013 2358 1041
3506 195 1000 2088
3507 577 576 1403
3508 561 560 139
3509 1882 560 139
3510 1008 1002 2450
3511 1079 1052 1019
3512 1079 1019 84
3513 542 131 1062
3514 542 131 1640
3515 588 1468 2217
3516 1277 1261 2337
3517 1277 80 2337
3518 1244 907 1257
3519 1244 1257 397
3520 391 1016 81
3521 577 1887 1463
3522 577 1403 1463
3523 1025 1033 391
3524 148 2358 1834
3525 151 2358 1834
3526 1034 1029 1056
3527 2344 1747 619
3528 1053 151 1013
3529 1032 1042 1072
3530 2320 1211 500
3531 2320 1211 85
3532 1951 1832 1016
3533 1832 1016 2087
3534 1954 576 1053
3535 1954 1053 67
3536 1504 594 1745
3537 594 662 1745
3538 1047 1824 1079
3539 1047 1824 2183
3540 1951 1052 81
3541 1951 1016 81
3542 2217 1468 1998
3543 81 1025 1019
3544 81 1025 391
3545 2312 1019 1025
3546 1297 1303 1277
3547 1297 1277 1283
3548 1021 1824 1079
3549 1021 1082 1079
3550 1047 1062 2183
3551 1831 1062 2183
3552 1045 1639 2182
3553 1639 1071 2182
3554 1633 84 1047
3555 1633 1062 1047
3556 1033 1007 391
3557 2363 1954 1048
3558 2377 1065 2174
3559 2377 2174 2055
3560 2093 1481 2495
3561 573 1071 1639
3562 1062 1633 542
3563 149 573 1639
3564 195 2088 2176
3565 2088 146 2176
3566 1633 1042 542
3567 1633 1042 1032
3568 1628 128 2376
3569 128 2376 1067
3570 2248 618 1733
3571 2248 618 2094
3572 1026 1950 1643
3573 2496 1950 1643
3574 1822 999 1643
3575 127 128 1640
3576 1026 1066 1058
3577 1026 1066 995
3578 149 148 1996
3579 148 2358 1996
3580 570 145 146
3581 2088 145 146
3582 1048 585 584
3583 1059 1998 1046
3584 586 1998 1046
3585 574 1886 1996
3586 2176 1886 1996
3587 574 149 573
3588 1498 171 646
3589 646 2091 2416
3590 570 571 145
3591 147 571 145
3592 1041 2358 2176
3593 574 149 1996
3594 1996 2176 2358
3595 146 573 570
3596 573 570 1071
3597 906 2407 1050
3598 2357 1050 2058
3599 2357 1050 1028
3600 1056 1029 1020
3601 1066 1028 2357
3602 398 1029 2496
3603 398 2182 2328
3604 2182 572 2328
3605 999 1833 2376
3606 2378 1003 1017
3607 994 556 557
3608 556 2398 557
3609 399 398 2496
3610 558 1642 2332
3611 558 1949 2332
3612 2376 1044 1833
3613 2376 1044 2408
3614 995 1833 1044
3615 1071 2182 572
3616 1071 572 570
3617 1813 981 969
3618 370 981 969
3619 906 2407 1044
3620 995 1044 2407
3621 553 554 555
3622 1815 571 147
3623 1815 1000 147
3624 572 571 1815
3625 572 570 571
3626 145 2088 147
3627 2088 1000 147
3628 2328 554 994
3629 554 994 2086
3630 2328 994 572
3631 379 1813 981
3632 2086 553 554
3633 1642 179 2053
3634 1642 2053 558
3635 195 2053 1000
3636 556 1000 1815
3637 558 1000 556
3638 558 1000 2053
3639 554 555 1006
3640 1026 999 1643
3641 2407 1050 1028
3642 2407 1028 995
3643 1043 1056 1826
3644 1056 1034 1826
3645 1994 1949 2213
3646 1825 1456 136
3647 1029 1020 1950
3648 553 1949 2086
3649 136 1034 1825
3650 1826 1034 1825
3651 136 1006 554
3652 136 554 1034
3653 554 1034 2328
3654 1006 2448 136
3655 552 2240 2448
3656 552 1456 136
3657 552 2448 136
3658 1958 1090 2277
3659 1958 1661 2277
3660 555 1994 1949
3661 555 1949 553
3662 2086 1949 2398
3663 558 1949 2398
3664 2213 2332 1949
3665 2453 2142 654
3666 642 2483 1477
3667 619 155 612
3668 651 632 1745
3669 651 632 190
3670 2344 619 2247
3671 164 2383 1473
3672 155 156 612
3673 2199 636 2149
3674 663 636 2149
3675 617 1471 2004
3676 617 664 2004
3677 1360 1334 1344
3678 1360 1325 1344
3679 1747 631 619
3680 631 612 619
3681 2465 190 1479
3682 2483 1498 171
3683 1334 204 1377
3684 1334 204 1345
3685 1490 2142 1481
3686 1490 2150 1481
3687 2431 1251 2137
3688 2142 2093 654
3689 1485 1732 1494
3690 651 631 1747
3691 651 1504 1747
3692 1712 665 2288
3693 2243 1737 1483
3694 1737 664 1483
3695 597 602 653
3696 602 653 1470
3697 1294 2316 1304
3698 1341 1975 1503
3699 2495 1478 1480
3700 2495 1478 156
3701 1471 2097 2093
3702 662 1732 1497
3703 662 1497 2243
3704 1496 168 1494
3705 168 1494 1485
3706 632 190 1496
3707 190 1496 2465
3708 1891 1483 2439
3709 1483 2439 2244
3710 617 1471 2097
3711 197 1740 1479
3712 1742 183 2010
3713 1742 2010 604
3714 1479 1740 2465
3715 178 595 626
3716 178 595 598
3717 2150 604 2010
3718 2150 604 599
3719 1740 183 182
3720 1740 183 2010
3721 1261 397 1089
3722 397 1244 1089
3723 637 1502 2248
3724 637 1502 2366
3725 1732 1745 1494
3726 1745 1494 632
3727 2453 2142 1490
3728 1290 396 1278
3729 396 1278 1254
3730 191 1889 622
3731 191 1889 2003
3732 639 168 160
3733 168 160 182
3734 182 183 160
3735 622 2365 191
3736 622 2365 655
3737 2150 599 1490
3738 2428 177 596
3739 182 168 1496
3740 1490 599 2453
3741 1150 1155 142
3742 1150 1155 1160
3743 182 1740 2465
3744 182 1496 2465
3745 1711 2341 479
3746 1742 596 157
3747 1271 1268 1284
3748 1271 1284 1269
3749 669 673 1736
3750 669 673 2005
3751 1312 1311 181
3752 1311 1705 181
3753 199 1366 1372
3754 199 1372 1383
3755 1402 310 207
3756 1402 310 1399
3757 1277 1261 1283
3758 1329 186 1308
3759 1704 1366 1357
3760 1704 1333 1357
3761 1297 1311 1319
3762 1143 2394 2333
3763 1143 1691 2333
3764 397 1283 1261
3765 1297 1290 1283
3766 1290 396 1283
3767 1236 907 1244
3768 1236 907 1227
3769 494 493 2338
3770 1076 2484 2494
3771 1076 2484 1433
3772 2003 2290 2500
3773 2003 1889 2290
3774 198 1397 1388
3775 627 2368 657
3776 627 625 657
3777 1319 1311 205
3778 204 1378 1377
3779 1247 1268 1271
3780 1247 1268 1232
3781 1268 1250 1232
3782 1250 347 1232
3783 1275 2231 363
3784 363 1275 1292
3785 363 1292 1284
3786 1304 1503 206
3787 1503 206 1975
3788 1339 1351 1359
3789 1360 1363 1334
3790 1363 201 1334
3791 1401 198 1397
3792 402 181 674
3793 181 1867 674
3794 1334 201 1377
3795 1867 1325 181
3796 1359 1355 1339
3797 674 1294 402
3798 1363 1360 1342
3799 1377 211 1382
3800 1705 1311 205
3801 1705 1342 205
3802 287 315 1394
3803 1705 1325 181
3804 2098 1500 626
3805 2098 626 595
3806 185 1373 1385
3807 1385 1373 201
3808 1363 1373 201
3809 1342 205 209
3810 209 1363 1373
3811 209 1363 1342
3812 1367 1366 1357
3813 1367 1366 1372
3814 2198 1491 2096
3815 1488 1491 2096
3816 496 77 80
3817 201 1382 1385
3818 1397 1382 1385
3819 1977 1378 211
3820 1378 1377 211
3821 1868 1355 1375
3822 310 1398 1399
3823 1390 198 207
3824 198 207 1402
3825 185 1383 1372
3826 1473 1482 2383
3827 144 1728 1461
3828 1402 1399 281
3829 1367 209 1373
3830 1367 1373 185
3831 1367 209 1357
3832 209 658 1357
3833 140 1462 141
3834 157 1742 480
3835 1742 480 481
3836 209 658 205
3837 205 1319 1324
3838 205 658 1324
3839 416 2228 2226
3840 1482 2197 2151
3841 660 2251 170
3842 660 2251 163
3843 185 1367 1372
3844 2095 74 633
3845 2095 74 1746
3846 1732 1485 630
3847 1732 630 1497
3848 2483 1477 611
3849 1477 611 1486
3850 484 483 635
3851 2439 159 1891
3852 164 2244 2007
3853 164 2244 2439
3854 178 626 672
3855 650 176 1743
3856 650 176 666
3857 657 626 596
3858 657 626 672
3859 2008 1893 630
3860 2008 2007 630
3861 2005 669 625
3862 647 561 1459
3863 561 1459 1727
3864 276 1412 1556
3865 276 1412 1405
3866 2426 2500 2479
3867 2426 2500 2290
3868 1712 1711 2341
3869 1533 1413 2104
3870 596 657 2428
3871 816 826 2110
3872 598 2291 178
3873 160 169 2098
3874 648 1743 2367
3875 1743 2367 176
3876 667 169 1896
3877 667 1896 1893
3878 1712 604 665
3879 1712 604 481
3880 140 143 1462
3881 639 168 667
3882 169 595 1896
3883 169 595 2098
3884 65 66 479
3885 2008 1893 1896
3886 595 598 1896
3887 598 1896 1898
3888 2008 1473 2007
3889 164 1473 2007
3890 2008 1898 1896
3891 2253 1498 1489
3892 1737 2243 662
3893 2244 1497 2007
3894 1497 2007 630
3895 620 1475 1477
3896 2427 2290 2426
3897 1493 1898 2008
3898 1493 1473 2008
3899 667 630 1893
3900 1883 1457 139
3901 1883 1727 139
3902 481 604 1742
3903 2197 2423 609
3904 2197 2423 2246
3905 2439 165 159
3906 165 159 2289
3907 2393 387 1215
3908 2439 164 2383
3909 2439 2383 165
3910 634 165 2383
3911 634 165 63
3912 2093 2495 1480
3913 2093 1480 2097
3914 2207 763 816
3915 763 816 1768
3916 786 2110 2207
3917 2110 816 2207
3918 650 649 589
3919 650 649 2246
3920 1889 176 652
3921 1889 176 2367
3922 1365 295 1393
3923 1365 1381 1393
3924 2104 1412 1533
3925 800 670 1537
3926 800 1537 778
3927 2500 2003 661
3928 2500 661 200
3929 1546 786 785
3930 2110 786 785
3931 479 66 1711
3932 480 66 1711
3933 1692 1177 2071
3934 1692 2071 1686
3935 2364 2152 644
3936 826 1405 1543
3937 826 1543 1744
3938 1405 1412 1922
3939 1537 670 194
3940 786 298 1546
3941 288 1537 1532
3942 1537 1532 194
3943 786 2207 298
3944 2246 2197 1482
3945 762 2261 777
3946 762 20 777
3947 2411 1160 1673
3948 2411 1180 1673
3949 412 1161 103
3950 1413 2297 1550
3951 1413 1550 1556
3952 1762 175 1744
3953 808 1532 802
3954 792 794 162
3955 794 1918 162
3956 19 2297 802
3957 1533 442 2105
3958 1550 2372 2163
3959 1533 19 2297
3960 1533 2297 1413
3961 1771 783 777
3962 2108 1536 1770
3963 2162 802 808
3964 2297 2372 802
3965 2372 2162 802
3966 1762 785 1546
3967 1762 807 1546
3968 2162 2372 1771
3969 2162 1770 1771
3970 808 194 807
3971 808 194 1532
3972 276 1556 2163
3973 1556 2163 1550
3974 105 104 1852
3975 1963 275 1251
3976 275 1177 1251
3977 2394 104 105
3978 2394 2333 105
3979 1428 2250 2399
3980 1428 2250 1713
3981 809 791 1327
3982 276 2163 20
3983 1770 1536 175
3984 2297 2372 1550
3985 1045 390 1639
3986 789 166 769
3987 794 1554 1543
3988 1543 1554 1744
3989 175 1554 1744
3990 1070 2450 1008
3991 1554 175 806
3992 175 1536 806
3993 442 2360 1924
3994 2360 1924 288
3995 1533 19 442
3996 19 1924 442
3997 2163 1771 2372
3998 78 2148 143
3999 1963 1181 412
4000 1171 1181 1851
4001 188 176 666
4002 188 666 644
4003 2479 2427 2426
4004 2479 2427 2090
4005 1429 489 491
4006 1429 489 76
4007 2427 648 202
4008 1741 627 167
4009 1546 194 671
4010 670 194 671
4011 673 1492 172
4012 673 1492 196
4013 1728 633 1702
4014 633 2095 1702
4015 199 1383 1371
4016 1383 1371 1390
4017 1890 647 1895
4018 2083 103 412
4019 2083 103 102
4020 644 2152 625
4021 634 2383 2151
4022 2383 2151 1482
4023 2001 589 2364
4024 2136 142 1688
4025 648 202 2423
4026 648 2423 1743
4027 1726 138 559
4028 644 666 2364
4029 2427 2290 648
4030 2290 2367 648
4031 1145 2135 99
4032 1145 111 99
4033 1882 2147 1726
4034 559 2147 1726
4035 1895 647 1499
4036 652 188 1736
4037 669 188 1736
4038 1890 68 647
4039 2000 1857 318
4040 1857 1149 318
4041 1743 2423 2246
4042 1743 2246 650
4043 481 1711 1712
4044 2152 672 625
4045 672 625 657
4046 188 669 644
4047 669 625 644
4048 1499 647 621
4049 627 167 2368
4050 167 1499 2368
4051 2001 589 649
4052 650 589 666
4053 2364 589 666
4054 1460 613 1883
4055 2367 2290 1889
4056 2250 2151 609
4057 2151 609 2197
4058 1493 649 154
4059 1493 649 2001
4060 614 634 2250
4061 634 2250 2151
4062 593 1729 1470
4063 593 1470 620
4064 762 2261 1919
4065 614 2250 478
4066 1473 154 1482
4067 1473 1493 154
4068 1482 154 2246
4069 649 154 2246
4070 482 635 483
4071 482 635 1428
4072 191 2446 2365
4073 1458 1738 68
4074 1260 2337 77
4075 561 139 1727
4076 1428 2399 138
4077 609 202 2399
4078 609 202 2423
4079 2250 2399 609
4080 1713 482 1428
4081 1460 1883 1727
4082 1460 1459 1727
4083 68 561 647
4084 68 561 1458
4085 2090 2476 1457
4086 2090 2476 2479
4087 180 621 2092
4088 621 2092 1894
4089 566 141 565
4090 566 563 565
4091 613 1883 1457
4092 1894 601 1892
4093 2289 64 2453
4094 599 64 2453
4095 665 599 64
4096 665 599 604
4097 1460 601 1459
4098 1894 601 1459
4099 1741 167 628
4100 167 628 180
4101 196 173 1492
4102 196 173 189
4103 636 637 2366
4104 478 614 2341
4105 478 479 2341
4106 481 1711 480
4107 596 177 157
4108 2250 478 1713
4109 65 482 483
4110 65 482 1713
4111 66 65 483
4112 658 1329 1324
4113 658 1329 1333
4114 138 1458 559
4115 484 66 483
4116 1382 211 1396
4117 315 211 1396
4118 2368 2428 1895
4119 2368 2428 657
4120 2428 1895 177
4121 1986 1243 497
4122 1243 497 1714
4123 2090 1882 1457
4124 2090 1726 1882
4125 1895 2368 1499
4126 1458 560 561
4127 2147 1882 560
4128 2147 559 1458
4129 2147 560 1458
4130 492 490 1429
4131 490 1429 76
4132 80 77 2337
4133 1738 484 635
4134 1738 484 68
4135 1738 138 635
4136 1371 199 1353
4137 199 1338 1353
4138 139 1457 1882
4139 1741 628 2198
4140 1328 76 1703
4141 655 172 668
4142 673 172 655
4143 621 1894 647
4144 1894 1459 647
4145 1894 1892 2092
4146 621 180 1499
4147 167 180 1499
4148 1491 1488 2092
4149 1488 1892 2092
4150 1741 189 196
4151 1741 189 2198
4152 513 95 98
4153 1488 638 1892
4154 1746 600 2252
4155 643 600 2252
4156 1177 275 1692
4157 1850 1143 1676
4158 1151 1143 1676
4159 655 673 624
4160 1467 1731 1997
4161 1457 2476 613
4162 1674 142 1155
4163 1674 142 2136
4164 1243 1714 1434
4165 1714 1987 1434
4166 140 565 562
4167 565 562 563
4168 2476 2500 200
4169 1462 74 141
4170 638 74 141
4171 1703 1476 1328
4172 208 2451 1371
4173 2451 1371 1356
4174 2340 1476 2318
4175 1328 490 1323
4176 629 668 172
4177 643 1703 1476
4178 643 1703 2362
4179 1356 1476 1353
4180 1328 1476 1353
4181 569 567 568
4182 76 2362 489
4183 76 2362 1703
4184 637 2248 1733
4185 158 2451 1356
4186 2362 489 2195
4187 489 2285 2195
4188 203 660 608
4189 203 660 170
4190 1443 1991 1444
4191 1443 513 1444
4192 494 2338 1430
4193 492 2143 495
4194 2069 1174 1690
4195 1688 2469 142
4196 208 1371 1390
4197 187 207 310
4198 187 207 208
4199 2340 2252 1476
4200 2252 1476 643
4201 1366 199 1338
4202 1353 1356 1371
4203 1356 2318 1476
4204 2252 2096 2340
4205 170 661 1735
4206 170 661 203
4207 1398 1393 310
4208 1328 1338 1353
4209 1621 1049 1999
4210 1704 1366 1338
4211 902 901 1587
4212 902 1587 903
4213 299 1370 2434
4214 2340 2318 173
4215 2318 173 603
4216 172 603 629
4217 603 173 1492
4218 2198 173 189
4219 187 158 2451
4220 187 158 2445
4221 187 310 1381
4222 310 1381 1393
4223 1381 1365 2445
4224 1381 2445 187
4225 158 2318 1356
4226 2362 643 600
4227 2362 600 2095
4228 600 1746 2095
4229 1681 1147 1686
4230 1147 1686 1692
4231 2321 1728 144
4232 2321 1728 1702
4233 1365 2445 1350
4234 2445 591 1350
4235 78 1728 633
4236 74 78 633
4237 140 565 141
4238 1686 1187 1670
4239 568 513 1443
4240 568 513 659
4241 1885 2002 1461
4242 1885 1461 1728
4243 1735 2342 1739
4244 2479 2476 2500
4245 2148 1995 2002
4246 2148 1995 143
4247 141 566 1460
4248 668 645 2342
4249 645 2342 1739
4250 563 564 562
4251 564 562 2476
4252 1163 2228 1672
4253 668 2342 655
4254 2365 655 2342
4255 1160 1183 1673
4256 661 200 203
4257 2342 2446 2365
4258 141 1460 601
4259 566 564 563
4260 566 564 1460
4261 2471 143 140
4262 2471 140 590
4263 2476 613 564
4264 1460 564 613
4265 200 608 203
4266 78 1728 1885
4267 638 1488 1746
4268 638 74 1746
4269 492 491 1429
4270 1885 2148 2002
4271 1885 2148 78
4272 1995 567 2471
4273 1746 1488 2252
4274 2252 1488 2096
4275 1208 1202 1210
4276 2471 143 1995
4277 516 520 2413
4278 1858 2184 1084
4279 2251 2241 163
4280 2251 2241 641
4281 528 527 526
4282 528 527 525
4283 2143 493 494
4284 2143 494 495
4285 1015 2131 2467
4286 1015 82 2467
4287 1716 491 2285
4288 489 491 2285
4289 144 1443 2321
4290 2002 1995 569
4291 1995 569 567
4292 1054 1039 1988
4293 568 1443 144
4294 513 1445 1719
4295 513 1445 98
4296 513 95 659
4297 95 163 659
4298 2447 1991 2321
4299 1991 1443 2321
4300 645 1349 2006
4301 1442 1501 514
4302 2139 1432 79
4303 163 2241 95
4304 1174 1173 1689
4305 1174 1173 1178
4306 1144 1148 25
4307 1148 25 1171
4308 2493 1862 2494
4309 1862 2484 2494
4310 514 98 1445
4311 2467 83 2286
4312 1209 2073 2474
4313 1209 362 2474
4314 516 1991 1875
4315 408 2393 1224
4316 2494 2420 2493
4317 2413 79 1432
4318 1876 518 515
4319 1876 1446 515
4320 516 1991 2447
4321 2195 2285 2413
4322 2285 1432 2413
4323 1719 1446 515
4324 1273 520 79
4325 79 1973 1273
4326 519 517 520
4327 1446 1875 1444
4328 1991 1875 1444
4329 1348 641 210
4330 519 520 1273
4331 1348 1350 1349
4332 513 1444 1719
4333 1444 1446 1719
4334 210 2436 1348
4335 2241 1501 210
4336 1273 1644 519
4337 510 117 1081
4338 117 1023 1081
4339 2193 510 1081
4340 2193 389 1081
4341 862 1196 1116
4342 862 2072 1116
4343 2073 1054 2184
4344 2073 1054 2474
4345 2447 2413 516
4346 1243 2286 1434
4347 2286 1434 1231
4348 86 82 2130
4349 1084 529 2438
4350 529 1083 2438
4351 421 2393 387
4352 421 387 1697
4353 1217 1231 83
4354 2310 362 2474
4355 1208 364 1202
4356 2420 1997 2494
4357 2420 1997 1731
4358 1696 85 904
4359 1696 85 1211
4360 2139 1430 1986
4361 1161 1152 105
4362 152 1999 588
4363 105 2333 1161
4364 1255 1433 1246
4365 1255 1973 1433
4366 1973 1433 2484
4367 1210 362 1209
4368 1208 1231 1217
4369 2282 1210 1202
4370 1329 1316 1323
4371 1217 1022 362
4372 1022 362 2310
4373 1210 2282 1209
4374 2282 2072 1209
4375 862 2072 2282
4376 91 1224 2393
4377 1715 1316 1308
4378 1951 1082 1052
4379 1089 2337 2287
4380 1089 2287 1249
4381 497 499 1714
4382 499 1987 1714
4383 2143 493 1716
4384 2143 491 1716
4385 1277 1303 80
4386 1303 80 1308
4387 1431 499 498
4388 496 75 77
4389 2004 664 1891
4390 1483 664 1891
4391 1987 85 2320
4392 1987 85 1434
4393 1328 490 76
4394 75 495 496
4395 495 492 496
4396 1262 499 497
4397 1262 497 1986
4398 75 1262 77
4399 1712 2288 2341
4400 1430 1986 1262
4401 2287 500 1249
4402 1015 1082 1647
4403 1082 1951 1647
4404 1015 1021 1082
4405 63 634 2288
4406 1076 2087 1832
4407 1076 2087 1621
4408 634 614 2288
4409 614 2288 2341
4410 1621 1049 2087
4411 1079 1052 1082
4412 63 2288 64
4413 2288 64 665
4414 2004 159 654
4415 2004 159 1891
4416 2004 654 1471
4417 2093 654 1471
4418 2289 2453 654
4419 2289 654 159
4420 592 2415 2249
4421 1192 2190 411
4422 2190 1191 411
4423 2225 108 1677
4424 1480 1888 656
4425 1851 1182 412
4426 1182 412 2083
4427 640 2242 1733
4428 2097 656 2249
4429 2097 656 1480
4430 1472 1487 1484
4431 1478 1897 623
4432 1478 1897 2247
4433 2253 161 1489
4434 161 1489 623
4435 637 663 636
4436 387 1084 529
4437 387 1084 1858
4438 2094 2415 592
4439 1478 155 156
4440 161 656 623
4441 656 623 1888
4442 2366 636 1734
4443 1747 636 1734
4444 2247 1897 2089
4445 2247 2344 2089
4446 616 2248 1737
4447 1502 2248 1737
4448 2097 2249 617
4449 592 2249 161
4450 656 2249 161
4451 617 2415 616
4452 617 2415 2249
4453 640 611 2242
4454 1748 1487 2384
4455 1674 1183 2444
4456 1183 2444 2000
4457 606 2384 1487
4458 606 2384 2343
4459 646 1498 1489
4460 646 1489 2416
4461 2091 1897 1748
4462 1897 1748 2089
4463 663 1733 2242
4464 663 2242 2149
4465 2416 1897 623
4466 2416 1489 623
4467 2416 1897 2091
4468 2483 1498 640
4469 2483 611 640
4470 1469 605 610
4471 1469 610 1484
4472 642 171 593
4473 171 593 2343
4474 2089 2199 137
4475 2199 137 2009
4476 2009 2149 615
4477 2149 615 2242
4478 615 1495 1469
4479 108 1192 1172
4480 2190 1192 1172
4481 1748 137 1487
4482 137 1487 1495
4483 646 2343 171
4484 1486 2242 611
4485 1486 2242 615
4486 593 620 642
4487 1477 620 642
4488 615 1495 2009
4489 137 1495 2009
4490 171 2483 642
4491 2091 2384 1748
4492 606 2343 1729
4493 2343 593 1729
4494 83 2286 1231
4495 1472 1484 653
4496 1484 653 610
4497 824 1921 2026
4498 824 1921 2350
4499 1484 1469 1495
4500 1484 1487 1495
4501 1729 1472 653
4502 605 615 1486
4503 605 615 1469
4504 597 1475 2245
4505 1470 1729 653
4506 606 1472 1729
4507 1470 2245 620
4508 1475 2245 620
4509 610 605 1475
4510 1078 579 581
4511 1326 1989 1310
4512 1486 1477 1475
4513 1486 1475 605
4514 576 1403 1048
4515 1049 1954 2087
4516 1049 1954 2363
4517 2484 1862 1973
4518 1023 389 1081
4519 421 1697 2473
4520 1697 2473 389
4521 1216 1814 1226
4522 421 2473 2066
4523 1059 2057 400
4524 2193 526 2382
4525 2420 1731 1088
4526 588 1468 152
4527 1468 1466 152
4528 587 1466 1465
4529 587 1465 586
4530 2214 1039 1634
4531 1467 1999 152
4532 1467 1466 152
4533 1467 1621 1999
4534 1997 1621 1467
4535 117 1088 100
4536 1088 100 2420
4537 1076 1621 1997
4538 2190 418 1172
4539 2214 1634 2438
4540 400 2438 1634
4541 400 2438 1059
4542 586 153 1046
4543 1046 1083 1059
4544 1083 1059 2438
4545 1046 153 1088
4546 1731 153 1088
4547 1465 1731 153
4548 1990 2145 2146
4549 1990 2145 512
4550 1442 514 97
4551 2317 1314 1310
4552 1168 418 1146
4553 659 567 608
4554 2217 1998 2057
4555 1078 581 1008
4556 1078 1070 1008
4557 1048 1403 585
4558 587 1466 1468
4559 587 1998 1468
4560 2057 1998 1059
4561 2420 1644 100
4562 2420 1644 2493
4563 1080 2217 588
4564 115 524 2359
4565 519 518 1280
4566 1441 1280 2237
4567 1441 2237 2382
4568 2134 2473 1157
4569 2134 2473 2066
4570 1023 1645 117
4571 1023 1645 1818
4572 512 1442 511
4573 1442 511 1501
4574 1967 2317 1720
4575 2317 1720 419
4576 92 2134 2066
4577 115 2464 1450
4578 2464 1450 116
4579 2000 1857 2444
4580 1154 411 1845
4581 1154 2280 1845
4582 115 1193 2359
4583 1193 1720 2359
4584 525 524 1450
4585 524 1450 115
4586 526 1157 2193
4587 527 1451 1157
4588 527 1451 525
4589 1150 1966 1968
4590 1150 1968 1684
4591 527 1157 526
4592 1157 389 2193
4593 1157 389 2473
4594 116 1721 2134
4595 525 1721 1451
4596 2134 1721 1451
4597 97 2146 1990
4598 1854 1678 113
4599 419 1720 1678
4600 2464 1449 1878
4601 210 1326 2436
4602 210 1989 1326
4603 1967 97 2146
4604 1967 97 2237
4605 1719 1445 515
4606 1445 97 1280
4607 1445 97 514
4608 2317 2146 1967
4609 2237 1967 1720
4610 2237 1720 2359
4611 1173 2188 2191
4612 1173 2191 96
4613 275 1181 1963
4614 1173 1163 1178
4615 584 583 580
4616 584 583 1048
4617 2238 2315 1182
4618 413 1178 2069
4619 2135 1674 2444
4620 2135 1674 99
4621 1146 1151 1688
4622 1146 1151 1676
4623 1150 142 1966
4624 2469 142 1966
4625 1155 1183 1160
4626 1046 117 1645
4627 1046 117 1088
4628 1463 1403 575
4629 1672 2228 1681
4630 2225 2280 1154
4631 1447 1679 1690
4632 1447 1679 1175
4633 1679 1690 2133
4634 1175 107 109
4635 1175 1447 107
4636 103 102 2189
4637 96 102 2189
4638 162 2107 789
4639 162 2107 2260
4640 2083 2238 101
4641 102 2083 101
4642 102 101 1689
4643 2191 96 2189
4644 783 1770 2108
4645 783 1770 1771
4646 275 1167 1181
4647 1174 1447 1689
4648 521 1447 1962
4649 2083 1182 2238
4650 107 521 2319
4651 106 521 2319
4652 1845 1145 2135
4653 1845 2135 1191
4654 107 1447 521
4655 1634 1039 88
4656 1039 88 996
4657 108 1172 1168
4658 108 1168 1677
4659 1628 127 1822
4660 127 1073 1822
4661 581 1403 585
4662 1168 111 1677
4663 318 2000 1673
4664 1183 2000 1673
4665 578 1004 150
4666 1191 2190 1857
4667 99 111 2136
4668 1073 2450 390
4669 2450 1002 390
4670 411 1192 1154
4671 1192 1154 2225
4672 1845 2280 1145
4673 318 1850 1149
4674 1676 1850 1149
4675 1845 1191 411
4676 2136 1688 1146
4677 1168 1146 111
4678 1146 111 2136
4679 1857 2444 1191
4680 2003 2446 661
4681 2003 2446 191
4682 1692 1970 1147
4683 25 1970 1167
4684 275 1692 1167
4685 1964 1144 1970
4686 1144 1970 25
4687 1964 1159 1144
4688 1964 1159 2070
4689 2251 1735 1739
4690 2251 1735 170
4691 2226 2228 1670
4692 1852 104 1966
4693 2191 2188 416
4694 1970 1964 1147
4695 1964 1681 1147
4696 2070 1681 413
4697 1672 1681 413
4698 416 2228 2188
4699 1687 1684 2411
4700 1187 1687 1194
4701 2071 1194 1187
4702 1177 2071 1194
4703 1852 2189 416
4704 1852 1966 416
4705 1194 2137 279
4706 1143 1850 1691
4707 1850 1691 1699
4708 1852 105 2189
4709 1152 105 2189
4710 1150 2411 1684
4711 1670 1687 1187
4712 2411 1687 1180
4713 1687 1180 279
4714 2226 416 1968
4715 1968 1670 2226
4716 1670 1684 1968
4717 1670 1684 1687
4718 416 1966 1968
4719 2394 1151 1143
4720 1850 1699 1693
4721 104 1151 2394
4722 104 1151 2469
4723 318 1673 1693
4724 318 1693 1850
4725 2137 1691 2431
4726 2164 2107 789
4727 2164 788 789
4728 279 1180 1693
4729 279 1699 1693
4730 2137 1699 279
4731 806 1536 769
4732 1536 174 769
4733 1673 1693 1180
4734 104 2469 1966
4735 1699 2137 1691
4736 1919 166 788
4737 166 788 789
4738 791 1919 788
4739 578 575 1004
4740 2164 1327 788
4741 791 1327 788
4742 1640 131 127
4743 131 1823 127
4744 1004 1008 1002
4745 1073 399 390
4746 399 390 1045
4747 148 1014 149
4748 1639 1014 149
4749 769 1918 789
4750 162 1918 789
4751 1834 1464 578
4752 1464 578 1887
4753 2107 1327 2164
4754 762 791 809
4755 762 791 1919
4756 794 1918 1554
4757 806 1918 1554
4758 2215 127 1073
4759 2215 1073 2450
4760 806 1918 769
4761 280 20 762
4762 174 2261 2108
4763 783 2261 2108
4764 1822 1073 399
4765 584 582 585
4766 584 582 580
4767 579 582 581
4768 583 2363 1048
4769 2378 1003 1627
4770 582 585 581
4771 2107 2260 1327
4772 2260 1327 809
4773 2287 1431 1260
4774 1078 2217 2057
4775 579 2217 1078
4776 579 2217 1080
4777 2438 1084 2214
4778 1325 1342 1360
4779 1262 498 1260
4780 1431 498 1260
4781 1004 1008 581
4782 1004 575 581
4783 1634 400 1070
4784 1634 88 1070
4785 128 127 1628
4786 359 1115 875
4787 359 1115 2391
4788 575 1403 581
4789 1084 2184 2214
4790 1831 1010 131
4791 1010 1024 131
4792 2215 996 1823
4793 2215 996 88
4794 2057 400 1078
4795 1054 1039 2184
4796 1039 2184 2214
4797 2310 2216 1063
4798 2310 2216 1022
4799 1054 1063 2310
4800 1070 88 2450
4801 2215 88 2450
4802 996 1988 1024
4803 1010 1988 1024
4804 86 2130 1055
4805 400 1078 1070
4806 875 1958 1111
4807 875 1958 1115
4808 384 1816 383
4809 384 383 1001
4810 1001 2218 383
4811 2218 2054 1077
4812 2179 2056 1627
4813 377 2380 1190
4814 377 2380 1170
4815 1989 2317 2146
4816 1989 2317 1310
4817 150 1004 1014
4818 1735 661 2446
4819 968 2043 435
4820 968 2043 983
4821 966 952 967
4822 917 982 819
4823 917 982 1773
4824 1128 2186 406
4825 1945 941 314
4826 1945 941 940
4827 1702 2447 2195
4828 1702 2447 2321
4829 1812 1806 1411
4830 1294 1304 674
4831 206 1304 674
4832 414 1965 1162
4833 1647 1433 1246
4834 1647 2131 1246
4835 798 277 296
4836 798 277 767
4837 1228 500 1211
4838 1228 500 1249
4839 1365 1347 1348
4840 1365 1347 2432
4841 2067 1685 1856
4842 2067 1685 2068
4843 569 144 568
4844 902 901 1783
4845 2150 2495 1481
4846 2150 2495 197
4847 1730 2363 1080
4848 2296 771 28
4849 2296 771 1763
4850 1795 541 1568
4851 1795 541 900
4852 845 2353 874
4853 845 2353 2457
4854 645 1349 1739
4855 1349 1739 2251
4856 2369 2412 257
4857 2369 2412 473
4858 2060 2279 29
4859 1546 298 782
4860 1979 984 1611
4861 1979 984 2267
4862 107 522 109
4863 107 522 2319
4864 818 1767 779
4865 818 1767 812
4866 756 59 467
4867 2055 120 2377
4868 2055 120 1622
4869 622 655 624
4870 2382 2359 526
4871 2382 2359 2237
4872 1189 92 116
4873 1314 2339 2232
4874 1314 2232 2317
4875 2179 1001 384
4876 2179 1816 384
4877 1401 315 1396
4878 2329 61 1623
4879 342 1575 903
4880 342 1575 2435
4881 766 787 811
4882 766 787 775
4883 1807 2170 311
4884 1038 2213 193
4885 2240 2213 1006
4886 2240 2213 1038
4887 1121 1838 2222
4888 1121 1838 1137
4889 470 56 51
4890 56 51 2293
4891 1726 2399 202
4892 1726 2399 138
4893 2476 608 590
4894 2476 608 200
4895 1238 1252 2336
4896 158 2445 591
4897 1993 1202 1884
4898 1993 1202 129
4899 117 510 100
4900 1575 1931 322
4901 1575 1931 340
4902 1713 479 478
4903 1713 479 65
4904 46 2259 2079
4905 46 2259 47
4906 1101 1099 267
4907 1101 1099 1096
4908 1929 1213 1204
4909 1929 1213 1206
4910 516 517 520
4911 516 517 1875
4912 2339 415 410
4913 415 410 1267
4914 1014 1004 1639
4915 1002 1004 1639
4916 1617 1942 311
4917 1617 1942 306
4918 895 339 327
4919 339 834 327
4920 2442 2429 2208
4921 2442 2429 248
4922 988 2049 974
4923 988 2049 1610
4924 492 491 2143
4925 1696 343 856
4926 1696 343 1797
4927 578 575 1463
4928 578 1887 1463
4929 1235 1248 2074
4930 2389 1011 1069
4931 2303 1585 1563
4932 2303 1585 837
4933 280 20 792
4934 1491 180 2092
4935 1491 180 628
4936 1656 1837 2488
4937 2490 540 1454
4938 40 460 738
4939 40 739 738
4940 965 2124 266
4941 965 2124 976
4942 1016 1007 391
4943 1016 1007 67
4944 1513 1512 2255
4945 1513 1512 2257
4946 2025 304 2026
4947 2025 304 2403
4948 596 183 1742
4949 596 183 1500
4950 878 845 844
4951 878 845 330
4952 1474 670 768
4953 1474 670 671
4954 1635 346 2418
4955 1057 346 1087
4956 1057 346 1635
4957 351 2166 360
4958 351 2166 2375
4959 837 1586 1585
4960 837 1586 1560
4961 1398 1393 1395
4962 1546 671 782
4963 1384 289 1380
4964 1384 289 1387
4965 1610 966 2122
4966 1610 966 988
4967 1325 1705 1342
4968 976 2192 380
4969 976 2192 965
4970 618 1498 640
4971 618 1498 2253
4972 1098 29 2060
4973 1098 29 1104
4974 2090 1726 202
4975 2090 202 2427
4976 42 746 46
4977 42 46 1759
4978 2190 418 1149
4979 2190 1857 1149
4980 1515 684 1903
4981 1515 684 1909
4982 248 1566 868
4983 248 1566 897
4984 1884 1724 1993
4985 1884 1724 549
4986 974 2049 940
4987 1042 388 1072
4988 388 998 1072
4989 974 370 988
4990 974 370 969
4991 1641 125 1051
4992 125 2128 1051
4993 1799 1805 2119
4994 1799 1805 925
4995 1518 686 2385
4996 1518 686 688
4997 2070 1964 1681
4998 1909 686 240
4999 2021 686 240
